{"canvas_config": {"height": 1080, "ratio": "original", "width": 1920}, "color_space": 0, "config": {"adjust_max_index": 1, "attachment_info": [], "combination_max_index": 1, "export_range": null, "extract_audio_last_index": 1, "lyrics_recognition_id": "", "lyrics_sync": true, "lyrics_taskinfo": [], "maintrack_adsorb": true, "material_save_mode": 0, "original_sound_last_index": 1, "record_audio_last_index": 1, "sticker_max_index": 1, "subtitle_recognition_id": "", "subtitle_sync": true, "subtitle_taskinfo": [], "video_mute": false, "zoom_info_params": null}, "cover": null, "create_time": 0, "duration": 10000000, "extra_info": null, "fps": 30.0, "group_container": null, "id": "EC0779AA-AA20-4cb6-92FC-F2F66C3650ED", "keyframes": {"adjusts": [], "audios": [], "filters": [], "handwrites": [], "stickers": [], "texts": [], "videos": []}, "last_modified_platform": {"app_id": 3704, "app_version": "3.4.1", "os": "windows", "os_version": "10.0.19044"}, "materials": {"audio_balances": [], "audio_effects": [], "audio_fades": [], "audios": [], "beats": [], "canvases": [{"album_image": "", "blur": 0.0, "color": "", "id": "canvases-0", "image": "", "image_id": "", "image_name": "", "type": "canvas_color"}, {"album_image": "", "blur": 0.0, "color": "", "id": "canvases-1", "image": "", "image_id": "", "image_name": "", "type": "canvas_color"}, {"album_image": "", "blur": 0.0, "color": "", "id": "canvases-2", "image": "", "image_id": "", "image_name": "", "type": "canvas_color"}, {"album_image": "", "blur": 0.0, "color": "", "id": "canvases-3", "image": "", "image_id": "", "image_name": "", "type": "canvas_color"}, {"album_image": "", "blur": 0.0, "color": "", "id": "canvases-4", "image": "", "image_id": "", "image_name": "", "type": "canvas_color"}, {"album_image": "", "blur": 0.0, "color": "", "id": "canvases-5", "image": "", "image_id": "", "image_name": "", "type": "canvas_color"}, {"album_image": "", "blur": 0.0, "color": "", "id": "canvases-6", "image": "", "image_id": "", "image_name": "", "type": "canvas_color"}, {"album_image": "", "blur": 0.0, "color": "", "id": "canvases-7", "image": "", "image_id": "", "image_name": "", "type": "canvas_color"}, {"album_image": "", "blur": 0.0, "color": "", "id": "canvases-8", "image": "", "image_id": "", "image_name": "", "type": "canvas_color"}, {"album_image": "", "blur": 0.0, "color": "", "id": "canvases-9", "image": "", "image_id": "", "image_name": "", "type": "canvas_color"}, {"album_image": "", "blur": 0.0, "color": "", "id": "canvases-10", "image": "", "image_id": "", "image_name": "", "type": "canvas_color"}, {"album_image": "", "blur": 0.0, "color": "", "id": "canvases-11", "image": "", "image_id": "", "image_name": "", "type": "canvas_color"}, {"album_image": "", "blur": 0.0, "color": "", "id": "canvases-12", "image": "", "image_id": "", "image_name": "", "type": "canvas_color"}, {"album_image": "", "blur": 0.0, "color": "", "id": "canvases-13", "image": "", "image_id": "", "image_name": "", "type": "canvas_color"}, {"album_image": "", "blur": 0.0, "color": "", "id": "canvases-14", "image": "", "image_id": "", "image_name": "", "type": "canvas_color"}, {"album_image": "", "blur": 0.0, "color": "", "id": "canvases-15", "image": "", "image_id": "", "image_name": "", "type": "canvas_color"}, {"album_image": "", "blur": 0.0, "color": "", "id": "canvases-16", "image": "", "image_id": "", "image_name": "", "type": "canvas_color"}, {"album_image": "", "blur": 0.0, "color": "", "id": "canvases-17", "image": "", "image_id": "", "image_name": "", "type": "canvas_color"}, {"album_image": "", "blur": 0.0, "color": "", "id": "canvases-18", "image": "", "image_id": "", "image_name": "", "type": "canvas_color"}, {"album_image": "", "blur": 0.0, "color": "", "id": "canvases-19", "image": "", "image_id": "", "image_name": "", "type": "canvas_color"}, {"album_image": "", "blur": 0.0, "color": "", "id": "canvases-20", "image": "", "image_id": "", "image_name": "", "type": "canvas_color"}, {"album_image": "", "blur": 0.0, "color": "", "id": "canvases-21", "image": "", "image_id": "", "image_name": "", "type": "canvas_color"}, {"album_image": "", "blur": 0.0, "color": "", "id": "canvases-22", "image": "", "image_id": "", "image_name": "", "type": "canvas_color"}, {"album_image": "", "blur": 0.0, "color": "", "id": "canvases-23", "image": "", "image_id": "", "image_name": "", "type": "canvas_color"}, {"album_image": "", "blur": 0.0, "color": "", "id": "canvases-24", "image": "", "image_id": "", "image_name": "", "type": "canvas_color"}, {"album_image": "", "blur": 0.0, "color": "", "id": "canvases-25", "image": "", "image_id": "", "image_name": "", "type": "canvas_color"}, {"album_image": "", "blur": 0.0, "color": "", "id": "canvases-26", "image": "", "image_id": "", "image_name": "", "type": "canvas_color"}, {"album_image": "", "blur": 0.0, "color": "", "id": "canvases-27", "image": "", "image_id": "", "image_name": "", "type": "canvas_color"}, {"album_image": "", "blur": 0.0, "color": "", "id": "canvases-28", "image": "", "image_id": "", "image_name": "", "type": "canvas_color"}, {"album_image": "", "blur": 0.0, "color": "", "id": "canvases-29", "image": "", "image_id": "", "image_name": "", "type": "canvas_color"}, {"album_image": "", "blur": 0.0, "color": "", "id": "canvases-30", "image": "", "image_id": "", "image_name": "", "type": "canvas_color"}, {"album_image": "", "blur": 0.0, "color": "", "id": "canvases-31", "image": "", "image_id": "", "image_name": "", "type": "canvas_color"}, {"album_image": "", "blur": 0.0, "color": "", "id": "canvases-32", "image": "", "image_id": "", "image_name": "", "type": "canvas_color"}, {"album_image": "", "blur": 0.0, "color": "", "id": "canvases-33", "image": "", "image_id": "", "image_name": "", "type": "canvas_color"}, {"album_image": "", "blur": 0.0, "color": "", "id": "canvases-34", "image": "", "image_id": "", "image_name": "", "type": "canvas_color"}, {"album_image": "", "blur": 0.0, "color": "", "id": "canvases-35", "image": "", "image_id": "", "image_name": "", "type": "canvas_color"}, {"album_image": "", "blur": 0.0, "color": "", "id": "canvases-36", "image": "", "image_id": "", "image_name": "", "type": "canvas_color"}, {"album_image": "", "blur": 0.0, "color": "", "id": "canvases-37", "image": "", "image_id": "", "image_name": "", "type": "canvas_color"}, {"album_image": "", "blur": 0.0, "color": "", "id": "canvases-38", "image": "", "image_id": "", "image_name": "", "type": "canvas_color"}, {"album_image": "", "blur": 0.0, "color": "", "id": "canvases-39", "image": "", "image_id": "", "image_name": "", "type": "canvas_color"}, {"album_image": "", "blur": 0.0, "color": "", "id": "canvases-40", "image": "", "image_id": "", "image_name": "", "type": "canvas_color"}, {"album_image": "", "blur": 0.0, "color": "", "id": "canvases-41", "image": "", "image_id": "", "image_name": "", "type": "canvas_color"}, {"album_image": "", "blur": 0.0, "color": "", "id": "canvases-42", "image": "", "image_id": "", "image_name": "", "type": "canvas_color"}, {"album_image": "", "blur": 0.0, "color": "", "id": "canvases-43", "image": "", "image_id": "", "image_name": "", "type": "canvas_color"}, {"album_image": "", "blur": 0.0, "color": "", "id": "canvases-44", "image": "", "image_id": "", "image_name": "", "type": "canvas_color"}, {"album_image": "", "blur": 0.0, "color": "", "id": "canvases-45", "image": "", "image_id": "", "image_name": "", "type": "canvas_color"}, {"album_image": "", "blur": 0.0, "color": "", "id": "canvases-46", "image": "", "image_id": "", "image_name": "", "type": "canvas_color"}, {"album_image": "", "blur": 0.0, "color": "", "id": "canvases-47", "image": "", "image_id": "", "image_name": "", "type": "canvas_color"}, {"album_image": "", "blur": 0.0, "color": "", "id": "canvases-48", "image": "", "image_id": "", "image_name": "", "type": "canvas_color"}, {"album_image": "", "blur": 0.0, "color": "", "id": "canvases-49", "image": "", "image_id": "", "image_name": "", "type": "canvas_color"}], "chromas": [], "color_curves": [], "drafts": [], "effects": [], "handwrites": [], "hsl": [], "images": [], "log_color_wheels": [], "manual_deformations": [], "masks": [], "material_animations": [{"animations": [], "id": "material_animations-0", "type": "sticker_animation"}, {"animations": [], "id": "material_animations-1", "type": "sticker_animation"}, {"animations": [], "id": "material_animations-2", "type": "sticker_animation"}, {"animations": [], "id": "material_animations-3", "type": "sticker_animation"}, {"animations": [], "id": "material_animations-4", "type": "sticker_animation"}, {"animations": [], "id": "material_animations-5", "type": "sticker_animation"}, {"animations": [], "id": "material_animations-6", "type": "sticker_animation"}, {"animations": [], "id": "material_animations-7", "type": "sticker_animation"}, {"animations": [], "id": "material_animations-8", "type": "sticker_animation"}, {"animations": [], "id": "material_animations-9", "type": "sticker_animation"}, {"animations": [], "id": "material_animations-10", "type": "sticker_animation"}, {"animations": [], "id": "material_animations-11", "type": "sticker_animation"}, {"animations": [], "id": "material_animations-12", "type": "sticker_animation"}, {"animations": [], "id": "material_animations-13", "type": "sticker_animation"}, {"animations": [], "id": "material_animations-14", "type": "sticker_animation"}, {"animations": [], "id": "material_animations-15", "type": "sticker_animation"}, {"animations": [], "id": "material_animations-16", "type": "sticker_animation"}, {"animations": [], "id": "material_animations-17", "type": "sticker_animation"}, {"animations": [], "id": "material_animations-18", "type": "sticker_animation"}, {"animations": [], "id": "material_animations-19", "type": "sticker_animation"}, {"animations": [], "id": "material_animations-20", "type": "sticker_animation"}, {"animations": [], "id": "material_animations-21", "type": "sticker_animation"}, {"animations": [], "id": "material_animations-22", "type": "sticker_animation"}, {"animations": [], "id": "material_animations-23", "type": "sticker_animation"}, {"animations": [], "id": "material_animations-24", "type": "sticker_animation"}, {"animations": [], "id": "material_animations-25", "type": "sticker_animation"}, {"animations": [], "id": "material_animations-26", "type": "sticker_animation"}, {"animations": [], "id": "material_animations-27", "type": "sticker_animation"}, {"animations": [], "id": "material_animations-28", "type": "sticker_animation"}, {"animations": [], "id": "material_animations-29", "type": "sticker_animation"}, {"animations": [], "id": "material_animations-30", "type": "sticker_animation"}, {"animations": [], "id": "material_animations-31", "type": "sticker_animation"}, {"animations": [], "id": "material_animations-32", "type": "sticker_animation"}, {"animations": [], "id": "material_animations-33", "type": "sticker_animation"}, {"animations": [], "id": "material_animations-34", "type": "sticker_animation"}, {"animations": [], "id": "material_animations-35", "type": "sticker_animation"}, {"animations": [], "id": "material_animations-36", "type": "sticker_animation"}, {"animations": [], "id": "material_animations-37", "type": "sticker_animation"}, {"animations": [], "id": "material_animations-38", "type": "sticker_animation"}, {"animations": [], "id": "material_animations-39", "type": "sticker_animation"}, {"animations": [], "id": "material_animations-40", "type": "sticker_animation"}, {"animations": [], "id": "material_animations-41", "type": "sticker_animation"}, {"animations": [], "id": "material_animations-42", "type": "sticker_animation"}, {"animations": [], "id": "material_animations-43", "type": "sticker_animation"}, {"animations": [], "id": "material_animations-44", "type": "sticker_animation"}, {"animations": [], "id": "material_animations-45", "type": "sticker_animation"}, {"animations": [], "id": "material_animations-46", "type": "sticker_animation"}, {"animations": [], "id": "material_animations-47", "type": "sticker_animation"}, {"animations": [], "id": "material_animations-48", "type": "sticker_animation"}, {"animations": [], "id": "material_animations-49", "type": "sticker_animation"}], "placeholders": [], "plugin_effects": [], "primary_color_wheels": [], "realtime_denoises": [], "speeds": [{"curve_speed": null, "id": "speeds-0", "mode": 0, "speed": 1.0, "type": "speed"}, {"curve_speed": null, "id": "speeds-1", "mode": 0, "speed": 1.0, "type": "speed"}, {"curve_speed": null, "id": "speeds-2", "mode": 0, "speed": 1.0, "type": "speed"}, {"curve_speed": null, "id": "speeds-3", "mode": 0, "speed": 1.0, "type": "speed"}, {"curve_speed": null, "id": "speeds-4", "mode": 0, "speed": 1.0, "type": "speed"}, {"curve_speed": null, "id": "speeds-5", "mode": 0, "speed": 1.0, "type": "speed"}, {"curve_speed": null, "id": "speeds-6", "mode": 0, "speed": 1.0, "type": "speed"}, {"curve_speed": null, "id": "speeds-7", "mode": 0, "speed": 1.0, "type": "speed"}, {"curve_speed": null, "id": "speeds-8", "mode": 0, "speed": 1.0, "type": "speed"}, {"curve_speed": null, "id": "speeds-9", "mode": 0, "speed": 1.0, "type": "speed"}, {"curve_speed": null, "id": "speeds-10", "mode": 0, "speed": 1.0, "type": "speed"}, {"curve_speed": null, "id": "speeds-11", "mode": 0, "speed": 1.0, "type": "speed"}, {"curve_speed": null, "id": "speeds-12", "mode": 0, "speed": 1.0, "type": "speed"}, {"curve_speed": null, "id": "speeds-13", "mode": 0, "speed": 1.0, "type": "speed"}, {"curve_speed": null, "id": "speeds-14", "mode": 0, "speed": 1.0, "type": "speed"}, {"curve_speed": null, "id": "speeds-15", "mode": 0, "speed": 1.0, "type": "speed"}, {"curve_speed": null, "id": "speeds-16", "mode": 0, "speed": 1.0, "type": "speed"}, {"curve_speed": null, "id": "speeds-17", "mode": 0, "speed": 1.0, "type": "speed"}, {"curve_speed": null, "id": "speeds-18", "mode": 0, "speed": 1.0, "type": "speed"}, {"curve_speed": null, "id": "speeds-19", "mode": 0, "speed": 1.0, "type": "speed"}, {"curve_speed": null, "id": "speeds-20", "mode": 0, "speed": 1.0, "type": "speed"}, {"curve_speed": null, "id": "speeds-21", "mode": 0, "speed": 1.0, "type": "speed"}, {"curve_speed": null, "id": "speeds-22", "mode": 0, "speed": 1.0, "type": "speed"}, {"curve_speed": null, "id": "speeds-23", "mode": 0, "speed": 1.0, "type": "speed"}, {"curve_speed": null, "id": "speeds-24", "mode": 0, "speed": 1.0, "type": "speed"}, {"curve_speed": null, "id": "speeds-25", "mode": 0, "speed": 1.0, "type": "speed"}, {"curve_speed": null, "id": "speeds-26", "mode": 0, "speed": 1.0, "type": "speed"}, {"curve_speed": null, "id": "speeds-27", "mode": 0, "speed": 1.0, "type": "speed"}, {"curve_speed": null, "id": "speeds-28", "mode": 0, "speed": 1.0, "type": "speed"}, {"curve_speed": null, "id": "speeds-29", "mode": 0, "speed": 1.0, "type": "speed"}, {"curve_speed": null, "id": "speeds-30", "mode": 0, "speed": 1.0, "type": "speed"}, {"curve_speed": null, "id": "speeds-31", "mode": 0, "speed": 1.0, "type": "speed"}, {"curve_speed": null, "id": "speeds-32", "mode": 0, "speed": 1.0, "type": "speed"}, {"curve_speed": null, "id": "speeds-33", "mode": 0, "speed": 1.0, "type": "speed"}, {"curve_speed": null, "id": "speeds-34", "mode": 0, "speed": 1.0, "type": "speed"}, {"curve_speed": null, "id": "speeds-35", "mode": 0, "speed": 1.0, "type": "speed"}, {"curve_speed": null, "id": "speeds-36", "mode": 0, "speed": 1.0, "type": "speed"}, {"curve_speed": null, "id": "speeds-37", "mode": 0, "speed": 1.0, "type": "speed"}, {"curve_speed": null, "id": "speeds-38", "mode": 0, "speed": 1.0, "type": "speed"}, {"curve_speed": null, "id": "speeds-39", "mode": 0, "speed": 1.0, "type": "speed"}, {"curve_speed": null, "id": "speeds-40", "mode": 0, "speed": 1.0, "type": "speed"}, {"curve_speed": null, "id": "speeds-41", "mode": 0, "speed": 1.0, "type": "speed"}, {"curve_speed": null, "id": "speeds-42", "mode": 0, "speed": 1.0, "type": "speed"}, {"curve_speed": null, "id": "speeds-43", "mode": 0, "speed": 1.0, "type": "speed"}, {"curve_speed": null, "id": "speeds-44", "mode": 0, "speed": 1.0, "type": "speed"}, {"curve_speed": null, "id": "speeds-45", "mode": 0, "speed": 1.0, "type": "speed"}, {"curve_speed": null, "id": "speeds-46", "mode": 0, "speed": 1.0, "type": "speed"}, {"curve_speed": null, "id": "speeds-47", "mode": 0, "speed": 1.0, "type": "speed"}, {"curve_speed": null, "id": "speeds-48", "mode": 0, "speed": 1.0, "type": "speed"}, {"curve_speed": null, "id": "speeds-49", "mode": 0, "speed": 1.0, "type": "speed"}], "stickers": [], "tail_leaders": [], "text_templates": [], "texts": [{"add_type": 0, "alignment": 1, "background_alpha": 1.0, "background_color": "", "background_height": 1.0, "background_horizontal_offset": 0.0, "background_round_radius": 0.0, "background_vertical_offset": 0.0, "background_width": 1.0, "bold_width": 0.0, "border_color": "#ffffff", "border_width": 0.08, "check_flag": 15, "content": "<outline color=(1,1,1,1) width=0.08><size=11><color=(0,0,0,1)><font id=\"\" path=\"D:/MyTools/JianyingPro/3.4.1.9179/Resources/Font/SystemFont/zh-hans.ttf\">[\u73b0\u5728 \u5982\u679c\u8fd8\u60f3\u7740\u201c\u901a\u8fc7\u827a\u8003\u4f4e\u5206\u8fdb\u9ad8\u6821\u201d]</font></color></size></outline>", "font_category_id": "", "font_category_name": "", "font_id": "", "font_name": "", "font_path": "D:/MyTools/JianyingPro/3.4.1.9179/Resources/Font/SystemFont/zh-hans.ttf", "font_resource_id": "", "font_size": 11.0, "font_title": "none", "font_url": "", "fonts": [], "global_alpha": 1.0, "has_shadow": false, "id": "texts-0", "initial_scale": 1.0, "is_rich_text": false, "italic_degree": 0, "ktv_color": "", "layer_weight": 1, "letter_spacing": 0.0, "line_spacing": 0.02, "recognize_type": 0, "shadow_alpha": 0.0, "shadow_angle": -45.0, "shadow_color": "#000000", "shadow_distance": 8.0, "shadow_point": {"x": 1.0182337649086284, "y": -1.0182337649086284}, "shadow_smoothing": 0.99, "shape_clip_x": false, "shape_clip_y": false, "style_name": "\u9ed1\u5b57\u767d\u8fb9", "sub_type": 0, "text_alpha": 1.0, "text_color": "#000000", "text_size": 30, "text_to_audio_ids": [], "type": "text", "typesetting": 0, "underline": false, "underline_offset": 0.22, "underline_width": 0.05, "use_effect_default_color": false}, {"add_type": 0, "alignment": 1, "background_alpha": 1.0, "background_color": "", "background_height": 1.0, "background_horizontal_offset": 0.0, "background_round_radius": 0.0, "background_vertical_offset": 0.0, "background_width": 1.0, "bold_width": 0.0, "border_color": "#ffffff", "border_width": 0.08, "check_flag": 15, "content": "<outline color=(1,1,1,1) width=0.08><size=11><color=(0,0,0,1)><font id=\"\" path=\"D:/MyTools/JianyingPro/3.4.1.9179/Resources/Font/SystemFont/zh-hans.ttf\">[\u53ef\u80fd\u5c31\u884c\u4e0d\u901a\u4e86]</font></color></size></outline>", "font_category_id": "", "font_category_name": "", "font_id": "", "font_name": "", "font_path": "D:/MyTools/JianyingPro/3.4.1.9179/Resources/Font/SystemFont/zh-hans.ttf", "font_resource_id": "", "font_size": 11.0, "font_title": "none", "font_url": "", "fonts": [], "global_alpha": 1.0, "has_shadow": false, "id": "texts-1", "initial_scale": 1.0, "is_rich_text": false, "italic_degree": 0, "ktv_color": "", "layer_weight": 1, "letter_spacing": 0.0, "line_spacing": 0.02, "recognize_type": 0, "shadow_alpha": 0.0, "shadow_angle": -45.0, "shadow_color": "#000000", "shadow_distance": 8.0, "shadow_point": {"x": 1.0182337649086284, "y": -1.0182337649086284}, "shadow_smoothing": 0.99, "shape_clip_x": false, "shape_clip_y": false, "style_name": "\u9ed1\u5b57\u767d\u8fb9", "sub_type": 0, "text_alpha": 1.0, "text_color": "#000000", "text_size": 30, "text_to_audio_ids": [], "type": "text", "typesetting": 0, "underline": false, "underline_offset": 0.22, "underline_width": 0.05, "use_effect_default_color": false}, {"add_type": 0, "alignment": 1, "background_alpha": 1.0, "background_color": "", "background_height": 1.0, "background_horizontal_offset": 0.0, "background_round_radius": 0.0, "background_vertical_offset": 0.0, "background_width": 1.0, "bold_width": 0.0, "border_color": "#ffffff", "border_width": 0.08, "check_flag": 15, "content": "<outline color=(1,1,1,1) width=0.08><size=11><color=(0,0,0,1)><font id=\"\" path=\"D:/MyTools/JianyingPro/3.4.1.9179/Resources/Font/SystemFont/zh-hans.ttf\">[\u524d\u4e9b\u65e5\u5b50\u6559\u80b2\u90e8\u53d1\u5e03\u300a\u5173\u4e8e\u505a\u597d2023\u5e74\u666e\u901a]</font></color></size></outline>", "font_category_id": "", "font_category_name": "", "font_id": "", "font_name": "", "font_path": "D:/MyTools/JianyingPro/3.4.1.9179/Resources/Font/SystemFont/zh-hans.ttf", "font_resource_id": "", "font_size": 11.0, "font_title": "none", "font_url": "", "fonts": [], "global_alpha": 1.0, "has_shadow": false, "id": "texts-2", "initial_scale": 1.0, "is_rich_text": false, "italic_degree": 0, "ktv_color": "", "layer_weight": 1, "letter_spacing": 0.0, "line_spacing": 0.02, "recognize_type": 0, "shadow_alpha": 0.0, "shadow_angle": -45.0, "shadow_color": "#000000", "shadow_distance": 8.0, "shadow_point": {"x": 1.0182337649086284, "y": -1.0182337649086284}, "shadow_smoothing": 0.99, "shape_clip_x": false, "shape_clip_y": false, "style_name": "\u9ed1\u5b57\u767d\u8fb9", "sub_type": 0, "text_alpha": 1.0, "text_color": "#000000", "text_size": 30, "text_to_audio_ids": [], "type": "text", "typesetting": 0, "underline": false, "underline_offset": 0.22, "underline_width": 0.05, "use_effect_default_color": false}, {"add_type": 0, "alignment": 1, "background_alpha": 1.0, "background_color": "", "background_height": 1.0, "background_horizontal_offset": 0.0, "background_round_radius": 0.0, "background_vertical_offset": 0.0, "background_width": 1.0, "bold_width": 0.0, "border_color": "#ffffff", "border_width": 0.08, "check_flag": 15, "content": "<outline color=(1,1,1,1) width=0.08><size=11><color=(0,0,0,1)><font id=\"\" path=\"D:/MyTools/JianyingPro/3.4.1.9179/Resources/Font/SystemFont/zh-hans.ttf\">[\u9ad8\u7b49\u5b66\u6821\u90e8\u5206\u7279\u6b8a\u7c7b\u578b\u62db\u751f\u5de5\u4f5c\u7684\u901a\u77e5\u300b]</font></color></size></outline>", "font_category_id": "", "font_category_name": "", "font_id": "", "font_name": "", "font_path": "D:/MyTools/JianyingPro/3.4.1.9179/Resources/Font/SystemFont/zh-hans.ttf", "font_resource_id": "", "font_size": 11.0, "font_title": "none", "font_url": "", "fonts": [], "global_alpha": 1.0, "has_shadow": false, "id": "texts-3", "initial_scale": 1.0, "is_rich_text": false, "italic_degree": 0, "ktv_color": "", "layer_weight": 1, "letter_spacing": 0.0, "line_spacing": 0.02, "recognize_type": 0, "shadow_alpha": 0.0, "shadow_angle": -45.0, "shadow_color": "#000000", "shadow_distance": 8.0, "shadow_point": {"x": 1.0182337649086284, "y": -1.0182337649086284}, "shadow_smoothing": 0.99, "shape_clip_x": false, "shape_clip_y": false, "style_name": "\u9ed1\u5b57\u767d\u8fb9", "sub_type": 0, "text_alpha": 1.0, "text_color": "#000000", "text_size": 30, "text_to_audio_ids": [], "type": "text", "typesetting": 0, "underline": false, "underline_offset": 0.22, "underline_width": 0.05, "use_effect_default_color": false}, {"add_type": 0, "alignment": 1, "background_alpha": 1.0, "background_color": "", "background_height": 1.0, "background_horizontal_offset": 0.0, "background_round_radius": 0.0, "background_vertical_offset": 0.0, "background_width": 1.0, "bold_width": 0.0, "border_color": "#ffffff", "border_width": 0.08, "check_flag": 15, "content": "<outline color=(1,1,1,1) width=0.08><size=11><color=(0,0,0,1)><font id=\"\" path=\"D:/MyTools/JianyingPro/3.4.1.9179/Resources/Font/SystemFont/zh-hans.ttf\">[\u901a\u77e5\u63d0\u51fa\u827a\u672f\u7c7b\u672c\u79d1\u4e13\u4e1a\u9ad8\u8003\u6587\u5316\u8bfe]</font></color></size></outline>", "font_category_id": "", "font_category_name": "", "font_id": "", "font_name": "", "font_path": "D:/MyTools/JianyingPro/3.4.1.9179/Resources/Font/SystemFont/zh-hans.ttf", "font_resource_id": "", "font_size": 11.0, "font_title": "none", "font_url": "", "fonts": [], "global_alpha": 1.0, "has_shadow": false, "id": "texts-4", "initial_scale": 1.0, "is_rich_text": false, "italic_degree": 0, "ktv_color": "", "layer_weight": 1, "letter_spacing": 0.0, "line_spacing": 0.02, "recognize_type": 0, "shadow_alpha": 0.0, "shadow_angle": -45.0, "shadow_color": "#000000", "shadow_distance": 8.0, "shadow_point": {"x": 1.0182337649086284, "y": -1.0182337649086284}, "shadow_smoothing": 0.99, "shape_clip_x": false, "shape_clip_y": false, "style_name": "\u9ed1\u5b57\u767d\u8fb9", "sub_type": 0, "text_alpha": 1.0, "text_color": "#000000", "text_size": 30, "text_to_audio_ids": [], "type": "text", "typesetting": 0, "underline": false, "underline_offset": 0.22, "underline_width": 0.05, "use_effect_default_color": false}, {"add_type": 0, "alignment": 1, "background_alpha": 1.0, "background_color": "", "background_height": 1.0, "background_horizontal_offset": 0.0, "background_round_radius": 0.0, "background_vertical_offset": 0.0, "background_width": 1.0, "bold_width": 0.0, "border_color": "#ffffff", "border_width": 0.08, "check_flag": 15, "content": "<outline color=(1,1,1,1) width=0.08><size=11><color=(0,0,0,1)><font id=\"\" path=\"D:/MyTools/JianyingPro/3.4.1.9179/Resources/Font/SystemFont/zh-hans.ttf\">[\u5f55\u53d6\u63a7\u5236\u5206\u6570\u7ebf \u539f\u5219\u4e0a\u4e0d\u4f4e\u4e8e\u4e8c\u672c\u7ebf\u768475%]</font></color></size></outline>", "font_category_id": "", "font_category_name": "", "font_id": "", "font_name": "", "font_path": "D:/MyTools/JianyingPro/3.4.1.9179/Resources/Font/SystemFont/zh-hans.ttf", "font_resource_id": "", "font_size": 11.0, "font_title": "none", "font_url": "", "fonts": [], "global_alpha": 1.0, "has_shadow": false, "id": "texts-5", "initial_scale": 1.0, "is_rich_text": false, "italic_degree": 0, "ktv_color": "", "layer_weight": 1, "letter_spacing": 0.0, "line_spacing": 0.02, "recognize_type": 0, "shadow_alpha": 0.0, "shadow_angle": -45.0, "shadow_color": "#000000", "shadow_distance": 8.0, "shadow_point": {"x": 1.0182337649086284, "y": -1.0182337649086284}, "shadow_smoothing": 0.99, "shape_clip_x": false, "shape_clip_y": false, "style_name": "\u9ed1\u5b57\u767d\u8fb9", "sub_type": 0, "text_alpha": 1.0, "text_color": "#000000", "text_size": 30, "text_to_audio_ids": [], "type": "text", "typesetting": 0, "underline": false, "underline_offset": 0.22, "underline_width": 0.05, "use_effect_default_color": false}, {"add_type": 0, "alignment": 1, "background_alpha": 1.0, "background_color": "", "background_height": 1.0, "background_horizontal_offset": 0.0, "background_round_radius": 0.0, "background_vertical_offset": 0.0, "background_width": 1.0, "bold_width": 0.0, "border_color": "#ffffff", "border_width": 0.08, "check_flag": 15, "content": "<outline color=(1,1,1,1) width=0.08><size=11><color=(0,0,0,1)><font id=\"\" path=\"D:/MyTools/JianyingPro/3.4.1.9179/Resources/Font/SystemFont/zh-hans.ttf\">[\u821e\u8e48\u5b66\u7c7b \u8868\u6f14\u7b49\u4e13\u4e1a\u53ef\u9002\u5f53\u964d\u4f4e\u8981\u6c42]</font></color></size></outline>", "font_category_id": "", "font_category_name": "", "font_id": "", "font_name": "", "font_path": "D:/MyTools/JianyingPro/3.4.1.9179/Resources/Font/SystemFont/zh-hans.ttf", "font_resource_id": "", "font_size": 11.0, "font_title": "none", "font_url": "", "fonts": [], "global_alpha": 1.0, "has_shadow": false, "id": "texts-6", "initial_scale": 1.0, "is_rich_text": false, "italic_degree": 0, "ktv_color": "", "layer_weight": 1, "letter_spacing": 0.0, "line_spacing": 0.02, "recognize_type": 0, "shadow_alpha": 0.0, "shadow_angle": -45.0, "shadow_color": "#000000", "shadow_distance": 8.0, "shadow_point": {"x": 1.0182337649086284, "y": -1.0182337649086284}, "shadow_smoothing": 0.99, "shape_clip_x": false, "shape_clip_y": false, "style_name": "\u9ed1\u5b57\u767d\u8fb9", "sub_type": 0, "text_alpha": 1.0, "text_color": "#000000", "text_size": 30, "text_to_audio_ids": [], "type": "text", "typesetting": 0, "underline": false, "underline_offset": 0.22, "underline_width": 0.05, "use_effect_default_color": false}, {"add_type": 0, "alignment": 1, "background_alpha": 1.0, "background_color": "", "background_height": 1.0, "background_horizontal_offset": 0.0, "background_round_radius": 0.0, "background_vertical_offset": 0.0, "background_width": 1.0, "bold_width": 0.0, "border_color": "#ffffff", "border_width": 0.08, "check_flag": 15, "content": "<outline color=(1,1,1,1) width=0.08><size=11><color=(0,0,0,1)><font id=\"\" path=\"D:/MyTools/JianyingPro/3.4.1.9179/Resources/Font/SystemFont/zh-hans.ttf\">[\u9002\u5ea6\u63d0\u9ad8\u827a\u672f\u5b66\u7406\u8bba\u7c7b \u620f\u5267\u4e0e\u5f71\u89c6\u5b66\u7c7b\u7b49\u6709\u5173]</font></color></size></outline>", "font_category_id": "", "font_category_name": "", "font_id": "", "font_name": "", "font_path": "D:/MyTools/JianyingPro/3.4.1.9179/Resources/Font/SystemFont/zh-hans.ttf", "font_resource_id": "", "font_size": 11.0, "font_title": "none", "font_url": "", "fonts": [], "global_alpha": 1.0, "has_shadow": false, "id": "texts-7", "initial_scale": 1.0, "is_rich_text": false, "italic_degree": 0, "ktv_color": "", "layer_weight": 1, "letter_spacing": 0.0, "line_spacing": 0.02, "recognize_type": 0, "shadow_alpha": 0.0, "shadow_angle": -45.0, "shadow_color": "#000000", "shadow_distance": 8.0, "shadow_point": {"x": 1.0182337649086284, "y": -1.0182337649086284}, "shadow_smoothing": 0.99, "shape_clip_x": false, "shape_clip_y": false, "style_name": "\u9ed1\u5b57\u767d\u8fb9", "sub_type": 0, "text_alpha": 1.0, "text_color": "#000000", "text_size": 30, "text_to_audio_ids": [], "type": "text", "typesetting": 0, "underline": false, "underline_offset": 0.22, "underline_width": 0.05, "use_effect_default_color": false}, {"add_type": 0, "alignment": 1, "background_alpha": 1.0, "background_color": "", "background_height": 1.0, "background_horizontal_offset": 0.0, "background_round_radius": 0.0, "background_vertical_offset": 0.0, "background_width": 1.0, "bold_width": 0.0, "border_color": "#ffffff", "border_width": 0.08, "check_flag": 15, "content": "<outline color=(1,1,1,1) width=0.08><size=11><color=(0,0,0,1)><font id=\"\" path=\"D:/MyTools/JianyingPro/3.4.1.9179/Resources/Font/SystemFont/zh-hans.ttf\">[\u672c\u79d1\u4e13\u4e1a\u7684\u6587\u5316\u8bfe\u5f55\u53d6\u7ebf]</font></color></size></outline>", "font_category_id": "", "font_category_name": "", "font_id": "", "font_name": "", "font_path": "D:/MyTools/JianyingPro/3.4.1.9179/Resources/Font/SystemFont/zh-hans.ttf", "font_resource_id": "", "font_size": 11.0, "font_title": "none", "font_url": "", "fonts": [], "global_alpha": 1.0, "has_shadow": false, "id": "texts-8", "initial_scale": 1.0, "is_rich_text": false, "italic_degree": 0, "ktv_color": "", "layer_weight": 1, "letter_spacing": 0.0, "line_spacing": 0.02, "recognize_type": 0, "shadow_alpha": 0.0, "shadow_angle": -45.0, "shadow_color": "#000000", "shadow_distance": 8.0, "shadow_point": {"x": 1.0182337649086284, "y": -1.0182337649086284}, "shadow_smoothing": 0.99, "shape_clip_x": false, "shape_clip_y": false, "style_name": "\u9ed1\u5b57\u767d\u8fb9", "sub_type": 0, "text_alpha": 1.0, "text_color": "#000000", "text_size": 30, "text_to_audio_ids": [], "type": "text", "typesetting": 0, "underline": false, "underline_offset": 0.22, "underline_width": 0.05, "use_effect_default_color": false}, {"add_type": 0, "alignment": 1, "background_alpha": 1.0, "background_color": "", "background_height": 1.0, "background_horizontal_offset": 0.0, "background_round_radius": 0.0, "background_vertical_offset": 0.0, "background_width": 1.0, "bold_width": 0.0, "border_color": "#ffffff", "border_width": 0.08, "check_flag": 15, "content": "<outline color=(1,1,1,1) width=0.08><size=11><color=(0,0,0,1)><font id=\"\" path=\"D:/MyTools/JianyingPro/3.4.1.9179/Resources/Font/SystemFont/zh-hans.ttf\">[\u8fd9\u4e5f\u610f\u5473\u7740\u63a5\u4e0b\u6765\u827a\u672f\u7c7b\u4e13\u4e1a\u6587\u5316\u8bfe]</font></color></size></outline>", "font_category_id": "", "font_category_name": "", "font_id": "", "font_name": "", "font_path": "D:/MyTools/JianyingPro/3.4.1.9179/Resources/Font/SystemFont/zh-hans.ttf", "font_resource_id": "", "font_size": 11.0, "font_title": "none", "font_url": "", "fonts": [], "global_alpha": 1.0, "has_shadow": false, "id": "texts-9", "initial_scale": 1.0, "is_rich_text": false, "italic_degree": 0, "ktv_color": "", "layer_weight": 1, "letter_spacing": 0.0, "line_spacing": 0.02, "recognize_type": 0, "shadow_alpha": 0.0, "shadow_angle": -45.0, "shadow_color": "#000000", "shadow_distance": 8.0, "shadow_point": {"x": 1.0182337649086284, "y": -1.0182337649086284}, "shadow_smoothing": 0.99, "shape_clip_x": false, "shape_clip_y": false, "style_name": "\u9ed1\u5b57\u767d\u8fb9", "sub_type": 0, "text_alpha": 1.0, "text_color": "#000000", "text_size": 30, "text_to_audio_ids": [], "type": "text", "typesetting": 0, "underline": false, "underline_offset": 0.22, "underline_width": 0.05, "use_effect_default_color": false}, {"add_type": 0, "alignment": 1, "background_alpha": 1.0, "background_color": "", "background_height": 1.0, "background_horizontal_offset": 0.0, "background_round_radius": 0.0, "background_vertical_offset": 0.0, "background_width": 1.0, "bold_width": 0.0, "border_color": "#ffffff", "border_width": 0.08, "check_flag": 15, "content": "<outline color=(1,1,1,1) width=0.08><size=11><color=(0,0,0,1)><font id=\"\" path=\"D:/MyTools/JianyingPro/3.4.1.9179/Resources/Font/SystemFont/zh-hans.ttf\">[\u5206\u6570\u7ebf\u5c06\u9010\u6b65\u63d0\u9ad8]</font></color></size></outline>", "font_category_id": "", "font_category_name": "", "font_id": "", "font_name": "", "font_path": "D:/MyTools/JianyingPro/3.4.1.9179/Resources/Font/SystemFont/zh-hans.ttf", "font_resource_id": "", "font_size": 11.0, "font_title": "none", "font_url": "", "fonts": [], "global_alpha": 1.0, "has_shadow": false, "id": "texts-10", "initial_scale": 1.0, "is_rich_text": false, "italic_degree": 0, "ktv_color": "", "layer_weight": 1, "letter_spacing": 0.0, "line_spacing": 0.02, "recognize_type": 0, "shadow_alpha": 0.0, "shadow_angle": -45.0, "shadow_color": "#000000", "shadow_distance": 8.0, "shadow_point": {"x": 1.0182337649086284, "y": -1.0182337649086284}, "shadow_smoothing": 0.99, "shape_clip_x": false, "shape_clip_y": false, "style_name": "\u9ed1\u5b57\u767d\u8fb9", "sub_type": 0, "text_alpha": 1.0, "text_color": "#000000", "text_size": 30, "text_to_audio_ids": [], "type": "text", "typesetting": 0, "underline": false, "underline_offset": 0.22, "underline_width": 0.05, "use_effect_default_color": false}, {"add_type": 0, "alignment": 1, "background_alpha": 1.0, "background_color": "", "background_height": 1.0, "background_horizontal_offset": 0.0, "background_round_radius": 0.0, "background_vertical_offset": 0.0, "background_width": 1.0, "bold_width": 0.0, "border_color": "#ffffff", "border_width": 0.08, "check_flag": 15, "content": "<outline color=(1,1,1,1) width=0.08><size=11><color=(0,0,0,1)><font id=\"\" path=\"D:/MyTools/JianyingPro/3.4.1.9179/Resources/Font/SystemFont/zh-hans.ttf\">[\u6709\u4e0d\u5c11\u827a\u8003\u751f\u5728\u51c6\u5907\u827a\u8003\u671f\u95f4\u7ec8\u6b62]</font></color></size></outline>", "font_category_id": "", "font_category_name": "", "font_id": "", "font_name": "", "font_path": "D:/MyTools/JianyingPro/3.4.1.9179/Resources/Font/SystemFont/zh-hans.ttf", "font_resource_id": "", "font_size": 11.0, "font_title": "none", "font_url": "", "fonts": [], "global_alpha": 1.0, "has_shadow": false, "id": "texts-11", "initial_scale": 1.0, "is_rich_text": false, "italic_degree": 0, "ktv_color": "", "layer_weight": 1, "letter_spacing": 0.0, "line_spacing": 0.02, "recognize_type": 0, "shadow_alpha": 0.0, "shadow_angle": -45.0, "shadow_color": "#000000", "shadow_distance": 8.0, "shadow_point": {"x": 1.0182337649086284, "y": -1.0182337649086284}, "shadow_smoothing": 0.99, "shape_clip_x": false, "shape_clip_y": false, "style_name": "\u9ed1\u5b57\u767d\u8fb9", "sub_type": 0, "text_alpha": 1.0, "text_color": "#000000", "text_size": 30, "text_to_audio_ids": [], "type": "text", "typesetting": 0, "underline": false, "underline_offset": 0.22, "underline_width": 0.05, "use_effect_default_color": false}, {"add_type": 0, "alignment": 1, "background_alpha": 1.0, "background_color": "", "background_height": 1.0, "background_horizontal_offset": 0.0, "background_round_radius": 0.0, "background_vertical_offset": 0.0, "background_width": 1.0, "bold_width": 0.0, "border_color": "#ffffff", "border_width": 0.08, "check_flag": 15, "content": "<outline color=(1,1,1,1) width=0.08><size=11><color=(0,0,0,1)><font id=\"\" path=\"D:/MyTools/JianyingPro/3.4.1.9179/Resources/Font/SystemFont/zh-hans.ttf\">[\u4e86\u6587\u5316\u8bfe\u7684\u5b66\u4e60 \u5168\u529b\u4ee5\u8d74\u51c6\u5907\u4e13\u4e1a\u8bfe]</font></color></size></outline>", "font_category_id": "", "font_category_name": "", "font_id": "", "font_name": "", "font_path": "D:/MyTools/JianyingPro/3.4.1.9179/Resources/Font/SystemFont/zh-hans.ttf", "font_resource_id": "", "font_size": 11.0, "font_title": "none", "font_url": "", "fonts": [], "global_alpha": 1.0, "has_shadow": false, "id": "texts-12", "initial_scale": 1.0, "is_rich_text": false, "italic_degree": 0, "ktv_color": "", "layer_weight": 1, "letter_spacing": 0.0, "line_spacing": 0.02, "recognize_type": 0, "shadow_alpha": 0.0, "shadow_angle": -45.0, "shadow_color": "#000000", "shadow_distance": 8.0, "shadow_point": {"x": 1.0182337649086284, "y": -1.0182337649086284}, "shadow_smoothing": 0.99, "shape_clip_x": false, "shape_clip_y": false, "style_name": "\u9ed1\u5b57\u767d\u8fb9", "sub_type": 0, "text_alpha": 1.0, "text_color": "#000000", "text_size": 30, "text_to_audio_ids": [], "type": "text", "typesetting": 0, "underline": false, "underline_offset": 0.22, "underline_width": 0.05, "use_effect_default_color": false}, {"add_type": 0, "alignment": 1, "background_alpha": 1.0, "background_color": "", "background_height": 1.0, "background_horizontal_offset": 0.0, "background_round_radius": 0.0, "background_vertical_offset": 0.0, "background_width": 1.0, "bold_width": 0.0, "border_color": "#ffffff", "border_width": 0.08, "check_flag": 15, "content": "<outline color=(1,1,1,1) width=0.08><size=11><color=(0,0,0,1)><font id=\"\" path=\"D:/MyTools/JianyingPro/3.4.1.9179/Resources/Font/SystemFont/zh-hans.ttf\">[\u800c\u666e\u901a\u8003\u751f\u5728\u8fd9\u6bb5\u65f6\u95f4\u8fdb\u884c\u4e86\u5927\u91cf\u7684\u57fa\u7840\u590d\u4e60]</font></color></size></outline>", "font_category_id": "", "font_category_name": "", "font_id": "", "font_name": "", "font_path": "D:/MyTools/JianyingPro/3.4.1.9179/Resources/Font/SystemFont/zh-hans.ttf", "font_resource_id": "", "font_size": 11.0, "font_title": "none", "font_url": "", "fonts": [], "global_alpha": 1.0, "has_shadow": false, "id": "texts-13", "initial_scale": 1.0, "is_rich_text": false, "italic_degree": 0, "ktv_color": "", "layer_weight": 1, "letter_spacing": 0.0, "line_spacing": 0.02, "recognize_type": 0, "shadow_alpha": 0.0, "shadow_angle": -45.0, "shadow_color": "#000000", "shadow_distance": 8.0, "shadow_point": {"x": 1.0182337649086284, "y": -1.0182337649086284}, "shadow_smoothing": 0.99, "shape_clip_x": false, "shape_clip_y": false, "style_name": "\u9ed1\u5b57\u767d\u8fb9", "sub_type": 0, "text_alpha": 1.0, "text_color": "#000000", "text_size": 30, "text_to_audio_ids": [], "type": "text", "typesetting": 0, "underline": false, "underline_offset": 0.22, "underline_width": 0.05, "use_effect_default_color": false}, {"add_type": 0, "alignment": 1, "background_alpha": 1.0, "background_color": "", "background_height": 1.0, "background_horizontal_offset": 0.0, "background_round_radius": 0.0, "background_vertical_offset": 0.0, "background_width": 1.0, "bold_width": 0.0, "border_color": "#ffffff", "border_width": 0.08, "check_flag": 15, "content": "<outline color=(1,1,1,1) width=0.08><size=11><color=(0,0,0,1)><font id=\"\" path=\"D:/MyTools/JianyingPro/3.4.1.9179/Resources/Font/SystemFont/zh-hans.ttf\">[\u5360\u5c3d\u5148\u673a]</font></color></size></outline>", "font_category_id": "", "font_category_name": "", "font_id": "", "font_name": "", "font_path": "D:/MyTools/JianyingPro/3.4.1.9179/Resources/Font/SystemFont/zh-hans.ttf", "font_resource_id": "", "font_size": 11.0, "font_title": "none", "font_url": "", "fonts": [], "global_alpha": 1.0, "has_shadow": false, "id": "texts-14", "initial_scale": 1.0, "is_rich_text": false, "italic_degree": 0, "ktv_color": "", "layer_weight": 1, "letter_spacing": 0.0, "line_spacing": 0.02, "recognize_type": 0, "shadow_alpha": 0.0, "shadow_angle": -45.0, "shadow_color": "#000000", "shadow_distance": 8.0, "shadow_point": {"x": 1.0182337649086284, "y": -1.0182337649086284}, "shadow_smoothing": 0.99, "shape_clip_x": false, "shape_clip_y": false, "style_name": "\u9ed1\u5b57\u767d\u8fb9", "sub_type": 0, "text_alpha": 1.0, "text_color": "#000000", "text_size": 30, "text_to_audio_ids": [], "type": "text", "typesetting": 0, "underline": false, "underline_offset": 0.22, "underline_width": 0.05, "use_effect_default_color": false}, {"add_type": 0, "alignment": 1, "background_alpha": 1.0, "background_color": "", "background_height": 1.0, "background_horizontal_offset": 0.0, "background_round_radius": 0.0, "background_vertical_offset": 0.0, "background_width": 1.0, "bold_width": 0.0, "border_color": "#ffffff", "border_width": 0.08, "check_flag": 15, "content": "<outline color=(1,1,1,1) width=0.08><size=11><color=(0,0,0,1)><font id=\"\" path=\"D:/MyTools/JianyingPro/3.4.1.9179/Resources/Font/SystemFont/zh-hans.ttf\">[\u827a\u8003\u751f\u5728\u4e13\u4e1a\u8bfe\u8003\u8bd5\u7ed3\u675f\u540e\u8be5\u5982\u4f55\u6446\u8131\u4e0d\u5229\u5f62\u52bf]</font></color></size></outline>", "font_category_id": "", "font_category_name": "", "font_id": "", "font_name": "", "font_path": "D:/MyTools/JianyingPro/3.4.1.9179/Resources/Font/SystemFont/zh-hans.ttf", "font_resource_id": "", "font_size": 11.0, "font_title": "none", "font_url": "", "fonts": [], "global_alpha": 1.0, "has_shadow": false, "id": "texts-15", "initial_scale": 1.0, "is_rich_text": false, "italic_degree": 0, "ktv_color": "", "layer_weight": 1, "letter_spacing": 0.0, "line_spacing": 0.02, "recognize_type": 0, "shadow_alpha": 0.0, "shadow_angle": -45.0, "shadow_color": "#000000", "shadow_distance": 8.0, "shadow_point": {"x": 1.0182337649086284, "y": -1.0182337649086284}, "shadow_smoothing": 0.99, "shape_clip_x": false, "shape_clip_y": false, "style_name": "\u9ed1\u5b57\u767d\u8fb9", "sub_type": 0, "text_alpha": 1.0, "text_color": "#000000", "text_size": 30, "text_to_audio_ids": [], "type": "text", "typesetting": 0, "underline": false, "underline_offset": 0.22, "underline_width": 0.05, "use_effect_default_color": false}, {"add_type": 0, "alignment": 1, "background_alpha": 1.0, "background_color": "", "background_height": 1.0, "background_horizontal_offset": 0.0, "background_round_radius": 0.0, "background_vertical_offset": 0.0, "background_width": 1.0, "bold_width": 0.0, "border_color": "#ffffff", "border_width": 0.08, "check_flag": 15, "content": "<outline color=(1,1,1,1) width=0.08><size=11><color=(0,0,0,1)><font id=\"\" path=\"D:/MyTools/JianyingPro/3.4.1.9179/Resources/Font/SystemFont/zh-hans.ttf\">[\u51b2\u523a\u6587\u5316\u8bfe?]</font></color></size></outline>", "font_category_id": "", "font_category_name": "", "font_id": "", "font_name": "", "font_path": "D:/MyTools/JianyingPro/3.4.1.9179/Resources/Font/SystemFont/zh-hans.ttf", "font_resource_id": "", "font_size": 11.0, "font_title": "none", "font_url": "", "fonts": [], "global_alpha": 1.0, "has_shadow": false, "id": "texts-16", "initial_scale": 1.0, "is_rich_text": false, "italic_degree": 0, "ktv_color": "", "layer_weight": 1, "letter_spacing": 0.0, "line_spacing": 0.02, "recognize_type": 0, "shadow_alpha": 0.0, "shadow_angle": -45.0, "shadow_color": "#000000", "shadow_distance": 8.0, "shadow_point": {"x": 1.0182337649086284, "y": -1.0182337649086284}, "shadow_smoothing": 0.99, "shape_clip_x": false, "shape_clip_y": false, "style_name": "\u9ed1\u5b57\u767d\u8fb9", "sub_type": 0, "text_alpha": 1.0, "text_color": "#000000", "text_size": 30, "text_to_audio_ids": [], "type": "text", "typesetting": 0, "underline": false, "underline_offset": 0.22, "underline_width": 0.05, "use_effect_default_color": false}, {"add_type": 0, "alignment": 1, "background_alpha": 1.0, "background_color": "", "background_height": 1.0, "background_horizontal_offset": 0.0, "background_round_radius": 0.0, "background_vertical_offset": 0.0, "background_width": 1.0, "bold_width": 0.0, "border_color": "#ffffff", "border_width": 0.08, "check_flag": 15, "content": "<outline color=(1,1,1,1) width=0.08><size=11><color=(0,0,0,1)><font id=\"\" path=\"D:/MyTools/JianyingPro/3.4.1.9179/Resources/Font/SystemFont/zh-hans.ttf\">[\u627e\u51c6\u81ea\u5df1\u7684\u5b9a\u4f4d]</font></color></size></outline>", "font_category_id": "", "font_category_name": "", "font_id": "", "font_name": "", "font_path": "D:/MyTools/JianyingPro/3.4.1.9179/Resources/Font/SystemFont/zh-hans.ttf", "font_resource_id": "", "font_size": 11.0, "font_title": "none", "font_url": "", "fonts": [], "global_alpha": 1.0, "has_shadow": false, "id": "texts-17", "initial_scale": 1.0, "is_rich_text": false, "italic_degree": 0, "ktv_color": "", "layer_weight": 1, "letter_spacing": 0.0, "line_spacing": 0.02, "recognize_type": 0, "shadow_alpha": 0.0, "shadow_angle": -45.0, "shadow_color": "#000000", "shadow_distance": 8.0, "shadow_point": {"x": 1.0182337649086284, "y": -1.0182337649086284}, "shadow_smoothing": 0.99, "shape_clip_x": false, "shape_clip_y": false, "style_name": "\u9ed1\u5b57\u767d\u8fb9", "sub_type": 0, "text_alpha": 1.0, "text_color": "#000000", "text_size": 30, "text_to_audio_ids": [], "type": "text", "typesetting": 0, "underline": false, "underline_offset": 0.22, "underline_width": 0.05, "use_effect_default_color": false}, {"add_type": 0, "alignment": 1, "background_alpha": 1.0, "background_color": "", "background_height": 1.0, "background_horizontal_offset": 0.0, "background_round_radius": 0.0, "background_vertical_offset": 0.0, "background_width": 1.0, "bold_width": 0.0, "border_color": "#ffffff", "border_width": 0.08, "check_flag": 15, "content": "<outline color=(1,1,1,1) width=0.08><size=11><color=(0,0,0,1)><font id=\"\" path=\"D:/MyTools/JianyingPro/3.4.1.9179/Resources/Font/SystemFont/zh-hans.ttf\">[\u5728\u5f00\u59cb\u590d\u4e60\u4e4b\u524d]</font></color></size></outline>", "font_category_id": "", "font_category_name": "", "font_id": "", "font_name": "", "font_path": "D:/MyTools/JianyingPro/3.4.1.9179/Resources/Font/SystemFont/zh-hans.ttf", "font_resource_id": "", "font_size": 11.0, "font_title": "none", "font_url": "", "fonts": [], "global_alpha": 1.0, "has_shadow": false, "id": "texts-18", "initial_scale": 1.0, "is_rich_text": false, "italic_degree": 0, "ktv_color": "", "layer_weight": 1, "letter_spacing": 0.0, "line_spacing": 0.02, "recognize_type": 0, "shadow_alpha": 0.0, "shadow_angle": -45.0, "shadow_color": "#000000", "shadow_distance": 8.0, "shadow_point": {"x": 1.0182337649086284, "y": -1.0182337649086284}, "shadow_smoothing": 0.99, "shape_clip_x": false, "shape_clip_y": false, "style_name": "\u9ed1\u5b57\u767d\u8fb9", "sub_type": 0, "text_alpha": 1.0, "text_color": "#000000", "text_size": 30, "text_to_audio_ids": [], "type": "text", "typesetting": 0, "underline": false, "underline_offset": 0.22, "underline_width": 0.05, "use_effect_default_color": false}, {"add_type": 0, "alignment": 1, "background_alpha": 1.0, "background_color": "", "background_height": 1.0, "background_horizontal_offset": 0.0, "background_round_radius": 0.0, "background_vertical_offset": 0.0, "background_width": 1.0, "bold_width": 0.0, "border_color": "#ffffff", "border_width": 0.08, "check_flag": 15, "content": "<outline color=(1,1,1,1) width=0.08><size=11><color=(0,0,0,1)><font id=\"\" path=\"D:/MyTools/JianyingPro/3.4.1.9179/Resources/Font/SystemFont/zh-hans.ttf\">[\u8981\u5bf9\u81ea\u5df1\u7684\u5b66\u4e60\u72b6\u51b5\u6709\u4e00\u4e2a\u5145\u5206\u7684\u4e86\u89e3]</font></color></size></outline>", "font_category_id": "", "font_category_name": "", "font_id": "", "font_name": "", "font_path": "D:/MyTools/JianyingPro/3.4.1.9179/Resources/Font/SystemFont/zh-hans.ttf", "font_resource_id": "", "font_size": 11.0, "font_title": "none", "font_url": "", "fonts": [], "global_alpha": 1.0, "has_shadow": false, "id": "texts-19", "initial_scale": 1.0, "is_rich_text": false, "italic_degree": 0, "ktv_color": "", "layer_weight": 1, "letter_spacing": 0.0, "line_spacing": 0.02, "recognize_type": 0, "shadow_alpha": 0.0, "shadow_angle": -45.0, "shadow_color": "#000000", "shadow_distance": 8.0, "shadow_point": {"x": 1.0182337649086284, "y": -1.0182337649086284}, "shadow_smoothing": 0.99, "shape_clip_x": false, "shape_clip_y": false, "style_name": "\u9ed1\u5b57\u767d\u8fb9", "sub_type": 0, "text_alpha": 1.0, "text_color": "#000000", "text_size": 30, "text_to_audio_ids": [], "type": "text", "typesetting": 0, "underline": false, "underline_offset": 0.22, "underline_width": 0.05, "use_effect_default_color": false}, {"add_type": 0, "alignment": 1, "background_alpha": 1.0, "background_color": "", "background_height": 1.0, "background_horizontal_offset": 0.0, "background_round_radius": 0.0, "background_vertical_offset": 0.0, "background_width": 1.0, "bold_width": 0.0, "border_color": "#ffffff", "border_width": 0.08, "check_flag": 15, "content": "<outline color=(1,1,1,1) width=0.08><size=11><color=(0,0,0,1)><font id=\"\" path=\"D:/MyTools/JianyingPro/3.4.1.9179/Resources/Font/SystemFont/zh-hans.ttf\">[\u53ea\u6709\u8fd9\u6837\u624d\u80fd\u505a\u597d\u66f4\u9002\u5408\u81ea\u5df1\u7684\u5b66\u4e60\u8ba1\u5212]</font></color></size></outline>", "font_category_id": "", "font_category_name": "", "font_id": "", "font_name": "", "font_path": "D:/MyTools/JianyingPro/3.4.1.9179/Resources/Font/SystemFont/zh-hans.ttf", "font_resource_id": "", "font_size": 11.0, "font_title": "none", "font_url": "", "fonts": [], "global_alpha": 1.0, "has_shadow": false, "id": "texts-20", "initial_scale": 1.0, "is_rich_text": false, "italic_degree": 0, "ktv_color": "", "layer_weight": 1, "letter_spacing": 0.0, "line_spacing": 0.02, "recognize_type": 0, "shadow_alpha": 0.0, "shadow_angle": -45.0, "shadow_color": "#000000", "shadow_distance": 8.0, "shadow_point": {"x": 1.0182337649086284, "y": -1.0182337649086284}, "shadow_smoothing": 0.99, "shape_clip_x": false, "shape_clip_y": false, "style_name": "\u9ed1\u5b57\u767d\u8fb9", "sub_type": 0, "text_alpha": 1.0, "text_color": "#000000", "text_size": 30, "text_to_audio_ids": [], "type": "text", "typesetting": 0, "underline": false, "underline_offset": 0.22, "underline_width": 0.05, "use_effect_default_color": false}, {"add_type": 0, "alignment": 1, "background_alpha": 1.0, "background_color": "", "background_height": 1.0, "background_horizontal_offset": 0.0, "background_round_radius": 0.0, "background_vertical_offset": 0.0, "background_width": 1.0, "bold_width": 0.0, "border_color": "#ffffff", "border_width": 0.08, "check_flag": 15, "content": "<outline color=(1,1,1,1) width=0.08><size=11><color=(0,0,0,1)><font id=\"\" path=\"D:/MyTools/JianyingPro/3.4.1.9179/Resources/Font/SystemFont/zh-hans.ttf\">[\u4ece\u8fc7\u53bb\u7684\u6570\u636e\u6765\u770b]</font></color></size></outline>", "font_category_id": "", "font_category_name": "", "font_id": "", "font_name": "", "font_path": "D:/MyTools/JianyingPro/3.4.1.9179/Resources/Font/SystemFont/zh-hans.ttf", "font_resource_id": "", "font_size": 11.0, "font_title": "none", "font_url": "", "fonts": [], "global_alpha": 1.0, "has_shadow": false, "id": "texts-21", "initial_scale": 1.0, "is_rich_text": false, "italic_degree": 0, "ktv_color": "", "layer_weight": 1, "letter_spacing": 0.0, "line_spacing": 0.02, "recognize_type": 0, "shadow_alpha": 0.0, "shadow_angle": -45.0, "shadow_color": "#000000", "shadow_distance": 8.0, "shadow_point": {"x": 1.0182337649086284, "y": -1.0182337649086284}, "shadow_smoothing": 0.99, "shape_clip_x": false, "shape_clip_y": false, "style_name": "\u9ed1\u5b57\u767d\u8fb9", "sub_type": 0, "text_alpha": 1.0, "text_color": "#000000", "text_size": 30, "text_to_audio_ids": [], "type": "text", "typesetting": 0, "underline": false, "underline_offset": 0.22, "underline_width": 0.05, "use_effect_default_color": false}, {"add_type": 0, "alignment": 1, "background_alpha": 1.0, "background_color": "", "background_height": 1.0, "background_horizontal_offset": 0.0, "background_round_radius": 0.0, "background_vertical_offset": 0.0, "background_width": 1.0, "bold_width": 0.0, "border_color": "#ffffff", "border_width": 0.08, "check_flag": 15, "content": "<outline color=(1,1,1,1) width=0.08><size=11><color=(0,0,0,1)><font id=\"\" path=\"D:/MyTools/JianyingPro/3.4.1.9179/Resources/Font/SystemFont/zh-hans.ttf\">[\u6709\u4e9b\u540c\u5b66\u590d\u4e60\u671f\u95f4\u6ca1\u6709\u5f88\u597d\u7684\u6548\u679c]</font></color></size></outline>", "font_category_id": "", "font_category_name": "", "font_id": "", "font_name": "", "font_path": "D:/MyTools/JianyingPro/3.4.1.9179/Resources/Font/SystemFont/zh-hans.ttf", "font_resource_id": "", "font_size": 11.0, "font_title": "none", "font_url": "", "fonts": [], "global_alpha": 1.0, "has_shadow": false, "id": "texts-22", "initial_scale": 1.0, "is_rich_text": false, "italic_degree": 0, "ktv_color": "", "layer_weight": 1, "letter_spacing": 0.0, "line_spacing": 0.02, "recognize_type": 0, "shadow_alpha": 0.0, "shadow_angle": -45.0, "shadow_color": "#000000", "shadow_distance": 8.0, "shadow_point": {"x": 1.0182337649086284, "y": -1.0182337649086284}, "shadow_smoothing": 0.99, "shape_clip_x": false, "shape_clip_y": false, "style_name": "\u9ed1\u5b57\u767d\u8fb9", "sub_type": 0, "text_alpha": 1.0, "text_color": "#000000", "text_size": 30, "text_to_audio_ids": [], "type": "text", "typesetting": 0, "underline": false, "underline_offset": 0.22, "underline_width": 0.05, "use_effect_default_color": false}, {"add_type": 0, "alignment": 1, "background_alpha": 1.0, "background_color": "", "background_height": 1.0, "background_horizontal_offset": 0.0, "background_round_radius": 0.0, "background_vertical_offset": 0.0, "background_width": 1.0, "bold_width": 0.0, "border_color": "#ffffff", "border_width": 0.08, "check_flag": 15, "content": "<outline color=(1,1,1,1) width=0.08><size=11><color=(0,0,0,1)><font id=\"\" path=\"D:/MyTools/JianyingPro/3.4.1.9179/Resources/Font/SystemFont/zh-hans.ttf\">[\u80cc\u540e\u7684\u539f\u56e0\u5e76\u4e0d\u662f\u4e0d\u591f\u52aa\u529b]</font></color></size></outline>", "font_category_id": "", "font_category_name": "", "font_id": "", "font_name": "", "font_path": "D:/MyTools/JianyingPro/3.4.1.9179/Resources/Font/SystemFont/zh-hans.ttf", "font_resource_id": "", "font_size": 11.0, "font_title": "none", "font_url": "", "fonts": [], "global_alpha": 1.0, "has_shadow": false, "id": "texts-23", "initial_scale": 1.0, "is_rich_text": false, "italic_degree": 0, "ktv_color": "", "layer_weight": 1, "letter_spacing": 0.0, "line_spacing": 0.02, "recognize_type": 0, "shadow_alpha": 0.0, "shadow_angle": -45.0, "shadow_color": "#000000", "shadow_distance": 8.0, "shadow_point": {"x": 1.0182337649086284, "y": -1.0182337649086284}, "shadow_smoothing": 0.99, "shape_clip_x": false, "shape_clip_y": false, "style_name": "\u9ed1\u5b57\u767d\u8fb9", "sub_type": 0, "text_alpha": 1.0, "text_color": "#000000", "text_size": 30, "text_to_audio_ids": [], "type": "text", "typesetting": 0, "underline": false, "underline_offset": 0.22, "underline_width": 0.05, "use_effect_default_color": false}, {"add_type": 0, "alignment": 1, "background_alpha": 1.0, "background_color": "", "background_height": 1.0, "background_horizontal_offset": 0.0, "background_round_radius": 0.0, "background_vertical_offset": 0.0, "background_width": 1.0, "bold_width": 0.0, "border_color": "#ffffff", "border_width": 0.08, "check_flag": 15, "content": "<outline color=(1,1,1,1) width=0.08><size=11><color=(0,0,0,1)><font id=\"\" path=\"D:/MyTools/JianyingPro/3.4.1.9179/Resources/Font/SystemFont/zh-hans.ttf\">[\u800c\u662f\u6ca1\u6709\u660e\u786e\u81ea\u5df1\u7684\u5b9a\u4f4d]</font></color></size></outline>", "font_category_id": "", "font_category_name": "", "font_id": "", "font_name": "", "font_path": "D:/MyTools/JianyingPro/3.4.1.9179/Resources/Font/SystemFont/zh-hans.ttf", "font_resource_id": "", "font_size": 11.0, "font_title": "none", "font_url": "", "fonts": [], "global_alpha": 1.0, "has_shadow": false, "id": "texts-24", "initial_scale": 1.0, "is_rich_text": false, "italic_degree": 0, "ktv_color": "", "layer_weight": 1, "letter_spacing": 0.0, "line_spacing": 0.02, "recognize_type": 0, "shadow_alpha": 0.0, "shadow_angle": -45.0, "shadow_color": "#000000", "shadow_distance": 8.0, "shadow_point": {"x": 1.0182337649086284, "y": -1.0182337649086284}, "shadow_smoothing": 0.99, "shape_clip_x": false, "shape_clip_y": false, "style_name": "\u9ed1\u5b57\u767d\u8fb9", "sub_type": 0, "text_alpha": 1.0, "text_color": "#000000", "text_size": 30, "text_to_audio_ids": [], "type": "text", "typesetting": 0, "underline": false, "underline_offset": 0.22, "underline_width": 0.05, "use_effect_default_color": false}, {"add_type": 0, "alignment": 1, "background_alpha": 1.0, "background_color": "", "background_height": 1.0, "background_horizontal_offset": 0.0, "background_round_radius": 0.0, "background_vertical_offset": 0.0, "background_width": 1.0, "bold_width": 0.0, "border_color": "#ffffff", "border_width": 0.08, "check_flag": 15, "content": "<outline color=(1,1,1,1) width=0.08><size=11><color=(0,0,0,1)><font id=\"\" path=\"D:/MyTools/JianyingPro/3.4.1.9179/Resources/Font/SystemFont/zh-hans.ttf\">[\u590d\u4e60\u65f6\u5207\u5fcc\u76f2\u76ee\u8ddf\u4ece \u8981\u627e\u51c6\u81ea\u5df1\u7684\u8282\u594f]</font></color></size></outline>", "font_category_id": "", "font_category_name": "", "font_id": "", "font_name": "", "font_path": "D:/MyTools/JianyingPro/3.4.1.9179/Resources/Font/SystemFont/zh-hans.ttf", "font_resource_id": "", "font_size": 11.0, "font_title": "none", "font_url": "", "fonts": [], "global_alpha": 1.0, "has_shadow": false, "id": "texts-25", "initial_scale": 1.0, "is_rich_text": false, "italic_degree": 0, "ktv_color": "", "layer_weight": 1, "letter_spacing": 0.0, "line_spacing": 0.02, "recognize_type": 0, "shadow_alpha": 0.0, "shadow_angle": -45.0, "shadow_color": "#000000", "shadow_distance": 8.0, "shadow_point": {"x": 1.0182337649086284, "y": -1.0182337649086284}, "shadow_smoothing": 0.99, "shape_clip_x": false, "shape_clip_y": false, "style_name": "\u9ed1\u5b57\u767d\u8fb9", "sub_type": 0, "text_alpha": 1.0, "text_color": "#000000", "text_size": 30, "text_to_audio_ids": [], "type": "text", "typesetting": 0, "underline": false, "underline_offset": 0.22, "underline_width": 0.05, "use_effect_default_color": false}, {"add_type": 0, "alignment": 1, "background_alpha": 1.0, "background_color": "", "background_height": 1.0, "background_horizontal_offset": 0.0, "background_round_radius": 0.0, "background_vertical_offset": 0.0, "background_width": 1.0, "bold_width": 0.0, "border_color": "#ffffff", "border_width": 0.08, "check_flag": 15, "content": "<outline color=(1,1,1,1) width=0.08><size=11><color=(0,0,0,1)><font id=\"\" path=\"D:/MyTools/JianyingPro/3.4.1.9179/Resources/Font/SystemFont/zh-hans.ttf\">[\u7528\u9002\u5408\u81ea\u5df1\u7684\u5b66\u4e60\u65b9\u6cd5]</font></color></size></outline>", "font_category_id": "", "font_category_name": "", "font_id": "", "font_name": "", "font_path": "D:/MyTools/JianyingPro/3.4.1.9179/Resources/Font/SystemFont/zh-hans.ttf", "font_resource_id": "", "font_size": 11.0, "font_title": "none", "font_url": "", "fonts": [], "global_alpha": 1.0, "has_shadow": false, "id": "texts-26", "initial_scale": 1.0, "is_rich_text": false, "italic_degree": 0, "ktv_color": "", "layer_weight": 1, "letter_spacing": 0.0, "line_spacing": 0.02, "recognize_type": 0, "shadow_alpha": 0.0, "shadow_angle": -45.0, "shadow_color": "#000000", "shadow_distance": 8.0, "shadow_point": {"x": 1.0182337649086284, "y": -1.0182337649086284}, "shadow_smoothing": 0.99, "shape_clip_x": false, "shape_clip_y": false, "style_name": "\u9ed1\u5b57\u767d\u8fb9", "sub_type": 0, "text_alpha": 1.0, "text_color": "#000000", "text_size": 30, "text_to_audio_ids": [], "type": "text", "typesetting": 0, "underline": false, "underline_offset": 0.22, "underline_width": 0.05, "use_effect_default_color": false}, {"add_type": 0, "alignment": 1, "background_alpha": 1.0, "background_color": "", "background_height": 1.0, "background_horizontal_offset": 0.0, "background_round_radius": 0.0, "background_vertical_offset": 0.0, "background_width": 1.0, "bold_width": 0.0, "border_color": "#ffffff", "border_width": 0.08, "check_flag": 15, "content": "<outline color=(1,1,1,1) width=0.08><size=11><color=(0,0,0,1)><font id=\"\" path=\"D:/MyTools/JianyingPro/3.4.1.9179/Resources/Font/SystemFont/zh-hans.ttf\">[\u5728\u67e5\u627e\u81ea\u5df1\u7684\u95ee\u9898\u65f6\u53ef\u4ee5\u5229\u7528\u4e0b\u9762\u51e0\u4e2a\u529e\u6cd5:]</font></color></size></outline>", "font_category_id": "", "font_category_name": "", "font_id": "", "font_name": "", "font_path": "D:/MyTools/JianyingPro/3.4.1.9179/Resources/Font/SystemFont/zh-hans.ttf", "font_resource_id": "", "font_size": 11.0, "font_title": "none", "font_url": "", "fonts": [], "global_alpha": 1.0, "has_shadow": false, "id": "texts-27", "initial_scale": 1.0, "is_rich_text": false, "italic_degree": 0, "ktv_color": "", "layer_weight": 1, "letter_spacing": 0.0, "line_spacing": 0.02, "recognize_type": 0, "shadow_alpha": 0.0, "shadow_angle": -45.0, "shadow_color": "#000000", "shadow_distance": 8.0, "shadow_point": {"x": 1.0182337649086284, "y": -1.0182337649086284}, "shadow_smoothing": 0.99, "shape_clip_x": false, "shape_clip_y": false, "style_name": "\u9ed1\u5b57\u767d\u8fb9", "sub_type": 0, "text_alpha": 1.0, "text_color": "#000000", "text_size": 30, "text_to_audio_ids": [], "type": "text", "typesetting": 0, "underline": false, "underline_offset": 0.22, "underline_width": 0.05, "use_effect_default_color": false}, {"add_type": 0, "alignment": 1, "background_alpha": 1.0, "background_color": "", "background_height": 1.0, "background_horizontal_offset": 0.0, "background_round_radius": 0.0, "background_vertical_offset": 0.0, "background_width": 1.0, "bold_width": 0.0, "border_color": "#ffffff", "border_width": 0.08, "check_flag": 15, "content": "<outline color=(1,1,1,1) width=0.08><size=11><color=(0,0,0,1)><font id=\"\" path=\"D:/MyTools/JianyingPro/3.4.1.9179/Resources/Font/SystemFont/zh-hans.ttf\">[1\u4e86\u89e3\u81ea\u5df1\u5f53\u524d\u7684\u5b66\u4e60\u6c34\u5e73]</font></color></size></outline>", "font_category_id": "", "font_category_name": "", "font_id": "", "font_name": "", "font_path": "D:/MyTools/JianyingPro/3.4.1.9179/Resources/Font/SystemFont/zh-hans.ttf", "font_resource_id": "", "font_size": 11.0, "font_title": "none", "font_url": "", "fonts": [], "global_alpha": 1.0, "has_shadow": false, "id": "texts-28", "initial_scale": 1.0, "is_rich_text": false, "italic_degree": 0, "ktv_color": "", "layer_weight": 1, "letter_spacing": 0.0, "line_spacing": 0.02, "recognize_type": 0, "shadow_alpha": 0.0, "shadow_angle": -45.0, "shadow_color": "#000000", "shadow_distance": 8.0, "shadow_point": {"x": 1.0182337649086284, "y": -1.0182337649086284}, "shadow_smoothing": 0.99, "shape_clip_x": false, "shape_clip_y": false, "style_name": "\u9ed1\u5b57\u767d\u8fb9", "sub_type": 0, "text_alpha": 1.0, "text_color": "#000000", "text_size": 30, "text_to_audio_ids": [], "type": "text", "typesetting": 0, "underline": false, "underline_offset": 0.22, "underline_width": 0.05, "use_effect_default_color": false}, {"add_type": 0, "alignment": 1, "background_alpha": 1.0, "background_color": "", "background_height": 1.0, "background_horizontal_offset": 0.0, "background_round_radius": 0.0, "background_vertical_offset": 0.0, "background_width": 1.0, "bold_width": 0.0, "border_color": "#ffffff", "border_width": 0.08, "check_flag": 15, "content": "<outline color=(1,1,1,1) width=0.08><size=11><color=(0,0,0,1)><font id=\"\" path=\"D:/MyTools/JianyingPro/3.4.1.9179/Resources/Font/SystemFont/zh-hans.ttf\">[\u786e\u5b9a\u76ee\u524d\u6210\u7ee9\u548c\u76ee\u6807\u6210\u7ee9\u7684\u5dee\u8ddd]</font></color></size></outline>", "font_category_id": "", "font_category_name": "", "font_id": "", "font_name": "", "font_path": "D:/MyTools/JianyingPro/3.4.1.9179/Resources/Font/SystemFont/zh-hans.ttf", "font_resource_id": "", "font_size": 11.0, "font_title": "none", "font_url": "", "fonts": [], "global_alpha": 1.0, "has_shadow": false, "id": "texts-29", "initial_scale": 1.0, "is_rich_text": false, "italic_degree": 0, "ktv_color": "", "layer_weight": 1, "letter_spacing": 0.0, "line_spacing": 0.02, "recognize_type": 0, "shadow_alpha": 0.0, "shadow_angle": -45.0, "shadow_color": "#000000", "shadow_distance": 8.0, "shadow_point": {"x": 1.0182337649086284, "y": -1.0182337649086284}, "shadow_smoothing": 0.99, "shape_clip_x": false, "shape_clip_y": false, "style_name": "\u9ed1\u5b57\u767d\u8fb9", "sub_type": 0, "text_alpha": 1.0, "text_color": "#000000", "text_size": 30, "text_to_audio_ids": [], "type": "text", "typesetting": 0, "underline": false, "underline_offset": 0.22, "underline_width": 0.05, "use_effect_default_color": false}, {"add_type": 0, "alignment": 1, "background_alpha": 1.0, "background_color": "", "background_height": 1.0, "background_horizontal_offset": 0.0, "background_round_radius": 0.0, "background_vertical_offset": 0.0, "background_width": 1.0, "bold_width": 0.0, "border_color": "#ffffff", "border_width": 0.08, "check_flag": 15, "content": "<outline color=(1,1,1,1) width=0.08><size=11><color=(0,0,0,1)><font id=\"\" path=\"D:/MyTools/JianyingPro/3.4.1.9179/Resources/Font/SystemFont/zh-hans.ttf\">[2 \u5c06\u5dee\u8ddd\u5206\u5e03\u7ed9\u4e0d\u540c\u5b66\u79d1 \u786e\u5b9a\u5404\u5b66\u79d1\u7684\u5dee\u8ddd]</font></color></size></outline>", "font_category_id": "", "font_category_name": "", "font_id": "", "font_name": "", "font_path": "D:/MyTools/JianyingPro/3.4.1.9179/Resources/Font/SystemFont/zh-hans.ttf", "font_resource_id": "", "font_size": 11.0, "font_title": "none", "font_url": "", "fonts": [], "global_alpha": 1.0, "has_shadow": false, "id": "texts-30", "initial_scale": 1.0, "is_rich_text": false, "italic_degree": 0, "ktv_color": "", "layer_weight": 1, "letter_spacing": 0.0, "line_spacing": 0.02, "recognize_type": 0, "shadow_alpha": 0.0, "shadow_angle": -45.0, "shadow_color": "#000000", "shadow_distance": 8.0, "shadow_point": {"x": 1.0182337649086284, "y": -1.0182337649086284}, "shadow_smoothing": 0.99, "shape_clip_x": false, "shape_clip_y": false, "style_name": "\u9ed1\u5b57\u767d\u8fb9", "sub_type": 0, "text_alpha": 1.0, "text_color": "#000000", "text_size": 30, "text_to_audio_ids": [], "type": "text", "typesetting": 0, "underline": false, "underline_offset": 0.22, "underline_width": 0.05, "use_effect_default_color": false}, {"add_type": 0, "alignment": 1, "background_alpha": 1.0, "background_color": "", "background_height": 1.0, "background_horizontal_offset": 0.0, "background_round_radius": 0.0, "background_vertical_offset": 0.0, "background_width": 1.0, "bold_width": 0.0, "border_color": "#ffffff", "border_width": 0.08, "check_flag": 15, "content": "<outline color=(1,1,1,1) width=0.08><size=11><color=(0,0,0,1)><font id=\"\" path=\"D:/MyTools/JianyingPro/3.4.1.9179/Resources/Font/SystemFont/zh-hans.ttf\">[3 \u7ee7\u7eed\u62c6\u89e3\u6bcf\u4e2a\u5b66\u79d1\u5404\u4e2a\u77e5\u8bc6\u70b9\u7684\u638c\u63e1\u60c5\u51b5]</font></color></size></outline>", "font_category_id": "", "font_category_name": "", "font_id": "", "font_name": "", "font_path": "D:/MyTools/JianyingPro/3.4.1.9179/Resources/Font/SystemFont/zh-hans.ttf", "font_resource_id": "", "font_size": 11.0, "font_title": "none", "font_url": "", "fonts": [], "global_alpha": 1.0, "has_shadow": false, "id": "texts-31", "initial_scale": 1.0, "is_rich_text": false, "italic_degree": 0, "ktv_color": "", "layer_weight": 1, "letter_spacing": 0.0, "line_spacing": 0.02, "recognize_type": 0, "shadow_alpha": 0.0, "shadow_angle": -45.0, "shadow_color": "#000000", "shadow_distance": 8.0, "shadow_point": {"x": 1.0182337649086284, "y": -1.0182337649086284}, "shadow_smoothing": 0.99, "shape_clip_x": false, "shape_clip_y": false, "style_name": "\u9ed1\u5b57\u767d\u8fb9", "sub_type": 0, "text_alpha": 1.0, "text_color": "#000000", "text_size": 30, "text_to_audio_ids": [], "type": "text", "typesetting": 0, "underline": false, "underline_offset": 0.22, "underline_width": 0.05, "use_effect_default_color": false}, {"add_type": 0, "alignment": 1, "background_alpha": 1.0, "background_color": "", "background_height": 1.0, "background_horizontal_offset": 0.0, "background_round_radius": 0.0, "background_vertical_offset": 0.0, "background_width": 1.0, "bold_width": 0.0, "border_color": "#ffffff", "border_width": 0.08, "check_flag": 15, "content": "<outline color=(1,1,1,1) width=0.08><size=11><color=(0,0,0,1)><font id=\"\" path=\"D:/MyTools/JianyingPro/3.4.1.9179/Resources/Font/SystemFont/zh-hans.ttf\">[4 \u9488\u5bf9\u5404\u4e2a\u77e5\u8bc6\u70b9\u7684\u638c\u63e1\u60c5\u51b5\u5236\u5b9a]</font></color></size></outline>", "font_category_id": "", "font_category_name": "", "font_id": "", "font_name": "", "font_path": "D:/MyTools/JianyingPro/3.4.1.9179/Resources/Font/SystemFont/zh-hans.ttf", "font_resource_id": "", "font_size": 11.0, "font_title": "none", "font_url": "", "fonts": [], "global_alpha": 1.0, "has_shadow": false, "id": "texts-32", "initial_scale": 1.0, "is_rich_text": false, "italic_degree": 0, "ktv_color": "", "layer_weight": 1, "letter_spacing": 0.0, "line_spacing": 0.02, "recognize_type": 0, "shadow_alpha": 0.0, "shadow_angle": -45.0, "shadow_color": "#000000", "shadow_distance": 8.0, "shadow_point": {"x": 1.0182337649086284, "y": -1.0182337649086284}, "shadow_smoothing": 0.99, "shape_clip_x": false, "shape_clip_y": false, "style_name": "\u9ed1\u5b57\u767d\u8fb9", "sub_type": 0, "text_alpha": 1.0, "text_color": "#000000", "text_size": 30, "text_to_audio_ids": [], "type": "text", "typesetting": 0, "underline": false, "underline_offset": 0.22, "underline_width": 0.05, "use_effect_default_color": false}, {"add_type": 0, "alignment": 1, "background_alpha": 1.0, "background_color": "", "background_height": 1.0, "background_horizontal_offset": 0.0, "background_round_radius": 0.0, "background_vertical_offset": 0.0, "background_width": 1.0, "bold_width": 0.0, "border_color": "#ffffff", "border_width": 0.08, "check_flag": 15, "content": "<outline color=(1,1,1,1) width=0.08><size=11><color=(0,0,0,1)><font id=\"\" path=\"D:/MyTools/JianyingPro/3.4.1.9179/Resources/Font/SystemFont/zh-hans.ttf\">[\u81ea\u5df1\u7684\u5b66\u4e60\u8ba1\u5212]</font></color></size></outline>", "font_category_id": "", "font_category_name": "", "font_id": "", "font_name": "", "font_path": "D:/MyTools/JianyingPro/3.4.1.9179/Resources/Font/SystemFont/zh-hans.ttf", "font_resource_id": "", "font_size": 11.0, "font_title": "none", "font_url": "", "fonts": [], "global_alpha": 1.0, "has_shadow": false, "id": "texts-33", "initial_scale": 1.0, "is_rich_text": false, "italic_degree": 0, "ktv_color": "", "layer_weight": 1, "letter_spacing": 0.0, "line_spacing": 0.02, "recognize_type": 0, "shadow_alpha": 0.0, "shadow_angle": -45.0, "shadow_color": "#000000", "shadow_distance": 8.0, "shadow_point": {"x": 1.0182337649086284, "y": -1.0182337649086284}, "shadow_smoothing": 0.99, "shape_clip_x": false, "shape_clip_y": false, "style_name": "\u9ed1\u5b57\u767d\u8fb9", "sub_type": 0, "text_alpha": 1.0, "text_color": "#000000", "text_size": 30, "text_to_audio_ids": [], "type": "text", "typesetting": 0, "underline": false, "underline_offset": 0.22, "underline_width": 0.05, "use_effect_default_color": false}, {"add_type": 0, "alignment": 1, "background_alpha": 1.0, "background_color": "", "background_height": 1.0, "background_horizontal_offset": 0.0, "background_round_radius": 0.0, "background_vertical_offset": 0.0, "background_width": 1.0, "bold_width": 0.0, "border_color": "#ffffff", "border_width": 0.08, "check_flag": 15, "content": "<outline color=(1,1,1,1) width=0.08><size=11><color=(0,0,0,1)><font id=\"\" path=\"D:/MyTools/JianyingPro/3.4.1.9179/Resources/Font/SystemFont/zh-hans.ttf\">[\u6293\u7262\u57fa\u7840\u77e5\u8bc6]</font></color></size></outline>", "font_category_id": "", "font_category_name": "", "font_id": "", "font_name": "", "font_path": "D:/MyTools/JianyingPro/3.4.1.9179/Resources/Font/SystemFont/zh-hans.ttf", "font_resource_id": "", "font_size": 11.0, "font_title": "none", "font_url": "", "fonts": [], "global_alpha": 1.0, "has_shadow": false, "id": "texts-34", "initial_scale": 1.0, "is_rich_text": false, "italic_degree": 0, "ktv_color": "", "layer_weight": 1, "letter_spacing": 0.0, "line_spacing": 0.02, "recognize_type": 0, "shadow_alpha": 0.0, "shadow_angle": -45.0, "shadow_color": "#000000", "shadow_distance": 8.0, "shadow_point": {"x": 1.0182337649086284, "y": -1.0182337649086284}, "shadow_smoothing": 0.99, "shape_clip_x": false, "shape_clip_y": false, "style_name": "\u9ed1\u5b57\u767d\u8fb9", "sub_type": 0, "text_alpha": 1.0, "text_color": "#000000", "text_size": 30, "text_to_audio_ids": [], "type": "text", "typesetting": 0, "underline": false, "underline_offset": 0.22, "underline_width": 0.05, "use_effect_default_color": false}, {"add_type": 0, "alignment": 1, "background_alpha": 1.0, "background_color": "", "background_height": 1.0, "background_horizontal_offset": 0.0, "background_round_radius": 0.0, "background_vertical_offset": 0.0, "background_width": 1.0, "bold_width": 0.0, "border_color": "#ffffff", "border_width": 0.08, "check_flag": 15, "content": "<outline color=(1,1,1,1) width=0.08><size=11><color=(0,0,0,1)><font id=\"\" path=\"D:/MyTools/JianyingPro/3.4.1.9179/Resources/Font/SystemFont/zh-hans.ttf\">[\u5373\u4f7f\u827a\u8003\u751f\u6587\u5316\u8bfe\u7684\u5206\u6570\u7ebf\u589e\u957f\u5df2\u6210\u4e3a\u8d8b\u52bf]</font></color></size></outline>", "font_category_id": "", "font_category_name": "", "font_id": "", "font_name": "", "font_path": "D:/MyTools/JianyingPro/3.4.1.9179/Resources/Font/SystemFont/zh-hans.ttf", "font_resource_id": "", "font_size": 11.0, "font_title": "none", "font_url": "", "fonts": [], "global_alpha": 1.0, "has_shadow": false, "id": "texts-35", "initial_scale": 1.0, "is_rich_text": false, "italic_degree": 0, "ktv_color": "", "layer_weight": 1, "letter_spacing": 0.0, "line_spacing": 0.02, "recognize_type": 0, "shadow_alpha": 0.0, "shadow_angle": -45.0, "shadow_color": "#000000", "shadow_distance": 8.0, "shadow_point": {"x": 1.0182337649086284, "y": -1.0182337649086284}, "shadow_smoothing": 0.99, "shape_clip_x": false, "shape_clip_y": false, "style_name": "\u9ed1\u5b57\u767d\u8fb9", "sub_type": 0, "text_alpha": 1.0, "text_color": "#000000", "text_size": 30, "text_to_audio_ids": [], "type": "text", "typesetting": 0, "underline": false, "underline_offset": 0.22, "underline_width": 0.05, "use_effect_default_color": false}, {"add_type": 0, "alignment": 1, "background_alpha": 1.0, "background_color": "", "background_height": 1.0, "background_horizontal_offset": 0.0, "background_round_radius": 0.0, "background_vertical_offset": 0.0, "background_width": 1.0, "bold_width": 0.0, "border_color": "#ffffff", "border_width": 0.08, "check_flag": 15, "content": "<outline color=(1,1,1,1) width=0.08><size=11><color=(0,0,0,1)><font id=\"\" path=\"D:/MyTools/JianyingPro/3.4.1.9179/Resources/Font/SystemFont/zh-hans.ttf\">[\u4f46\u5206\u6570\u7ebf\u4ecd\u4f1a\u6bd4\u666e\u901a\u8003\u751f\u4f4e\u4e00\u4e9b]</font></color></size></outline>", "font_category_id": "", "font_category_name": "", "font_id": "", "font_name": "", "font_path": "D:/MyTools/JianyingPro/3.4.1.9179/Resources/Font/SystemFont/zh-hans.ttf", "font_resource_id": "", "font_size": 11.0, "font_title": "none", "font_url": "", "fonts": [], "global_alpha": 1.0, "has_shadow": false, "id": "texts-36", "initial_scale": 1.0, "is_rich_text": false, "italic_degree": 0, "ktv_color": "", "layer_weight": 1, "letter_spacing": 0.0, "line_spacing": 0.02, "recognize_type": 0, "shadow_alpha": 0.0, "shadow_angle": -45.0, "shadow_color": "#000000", "shadow_distance": 8.0, "shadow_point": {"x": 1.0182337649086284, "y": -1.0182337649086284}, "shadow_smoothing": 0.99, "shape_clip_x": false, "shape_clip_y": false, "style_name": "\u9ed1\u5b57\u767d\u8fb9", "sub_type": 0, "text_alpha": 1.0, "text_color": "#000000", "text_size": 30, "text_to_audio_ids": [], "type": "text", "typesetting": 0, "underline": false, "underline_offset": 0.22, "underline_width": 0.05, "use_effect_default_color": false}, {"add_type": 0, "alignment": 1, "background_alpha": 1.0, "background_color": "", "background_height": 1.0, "background_horizontal_offset": 0.0, "background_round_radius": 0.0, "background_vertical_offset": 0.0, "background_width": 1.0, "bold_width": 0.0, "border_color": "#ffffff", "border_width": 0.08, "check_flag": 15, "content": "<outline color=(1,1,1,1) width=0.08><size=11><color=(0,0,0,1)><font id=\"\" path=\"D:/MyTools/JianyingPro/3.4.1.9179/Resources/Font/SystemFont/zh-hans.ttf\">[\u6240\u4ee5\u6700\u5173\u952e\u7684\u662f\u638c\u63e1\u597d\u57fa\u7840\u77e5\u8bc6]</font></color></size></outline>", "font_category_id": "", "font_category_name": "", "font_id": "", "font_name": "", "font_path": "D:/MyTools/JianyingPro/3.4.1.9179/Resources/Font/SystemFont/zh-hans.ttf", "font_resource_id": "", "font_size": 11.0, "font_title": "none", "font_url": "", "fonts": [], "global_alpha": 1.0, "has_shadow": false, "id": "texts-37", "initial_scale": 1.0, "is_rich_text": false, "italic_degree": 0, "ktv_color": "", "layer_weight": 1, "letter_spacing": 0.0, "line_spacing": 0.02, "recognize_type": 0, "shadow_alpha": 0.0, "shadow_angle": -45.0, "shadow_color": "#000000", "shadow_distance": 8.0, "shadow_point": {"x": 1.0182337649086284, "y": -1.0182337649086284}, "shadow_smoothing": 0.99, "shape_clip_x": false, "shape_clip_y": false, "style_name": "\u9ed1\u5b57\u767d\u8fb9", "sub_type": 0, "text_alpha": 1.0, "text_color": "#000000", "text_size": 30, "text_to_audio_ids": [], "type": "text", "typesetting": 0, "underline": false, "underline_offset": 0.22, "underline_width": 0.05, "use_effect_default_color": false}, {"add_type": 0, "alignment": 1, "background_alpha": 1.0, "background_color": "", "background_height": 1.0, "background_horizontal_offset": 0.0, "background_round_radius": 0.0, "background_vertical_offset": 0.0, "background_width": 1.0, "bold_width": 0.0, "border_color": "#ffffff", "border_width": 0.08, "check_flag": 15, "content": "<outline color=(1,1,1,1) width=0.08><size=11><color=(0,0,0,1)><font id=\"\" path=\"D:/MyTools/JianyingPro/3.4.1.9179/Resources/Font/SystemFont/zh-hans.ttf\">[\u590d\u4e60\u671f\u95f4\u5c31\u8981\u7d27\u8ddf\u8001\u5e08\u7684\u601d\u8def]</font></color></size></outline>", "font_category_id": "", "font_category_name": "", "font_id": "", "font_name": "", "font_path": "D:/MyTools/JianyingPro/3.4.1.9179/Resources/Font/SystemFont/zh-hans.ttf", "font_resource_id": "", "font_size": 11.0, "font_title": "none", "font_url": "", "fonts": [], "global_alpha": 1.0, "has_shadow": false, "id": "texts-38", "initial_scale": 1.0, "is_rich_text": false, "italic_degree": 0, "ktv_color": "", "layer_weight": 1, "letter_spacing": 0.0, "line_spacing": 0.02, "recognize_type": 0, "shadow_alpha": 0.0, "shadow_angle": -45.0, "shadow_color": "#000000", "shadow_distance": 8.0, "shadow_point": {"x": 1.0182337649086284, "y": -1.0182337649086284}, "shadow_smoothing": 0.99, "shape_clip_x": false, "shape_clip_y": false, "style_name": "\u9ed1\u5b57\u767d\u8fb9", "sub_type": 0, "text_alpha": 1.0, "text_color": "#000000", "text_size": 30, "text_to_audio_ids": [], "type": "text", "typesetting": 0, "underline": false, "underline_offset": 0.22, "underline_width": 0.05, "use_effect_default_color": false}, {"add_type": 0, "alignment": 1, "background_alpha": 1.0, "background_color": "", "background_height": 1.0, "background_horizontal_offset": 0.0, "background_round_radius": 0.0, "background_vertical_offset": 0.0, "background_width": 1.0, "bold_width": 0.0, "border_color": "#ffffff", "border_width": 0.08, "check_flag": 15, "content": "<outline color=(1,1,1,1) width=0.08><size=11><color=(0,0,0,1)><font id=\"\" path=\"D:/MyTools/JianyingPro/3.4.1.9179/Resources/Font/SystemFont/zh-hans.ttf\">[\u96c6\u4e2d\u603b\u7ed3\u8001\u5e08\u63d0\u5230\u7684\u57fa\u7840\u91cd\u70b9]</font></color></size></outline>", "font_category_id": "", "font_category_name": "", "font_id": "", "font_name": "", "font_path": "D:/MyTools/JianyingPro/3.4.1.9179/Resources/Font/SystemFont/zh-hans.ttf", "font_resource_id": "", "font_size": 11.0, "font_title": "none", "font_url": "", "fonts": [], "global_alpha": 1.0, "has_shadow": false, "id": "texts-39", "initial_scale": 1.0, "is_rich_text": false, "italic_degree": 0, "ktv_color": "", "layer_weight": 1, "letter_spacing": 0.0, "line_spacing": 0.02, "recognize_type": 0, "shadow_alpha": 0.0, "shadow_angle": -45.0, "shadow_color": "#000000", "shadow_distance": 8.0, "shadow_point": {"x": 1.0182337649086284, "y": -1.0182337649086284}, "shadow_smoothing": 0.99, "shape_clip_x": false, "shape_clip_y": false, "style_name": "\u9ed1\u5b57\u767d\u8fb9", "sub_type": 0, "text_alpha": 1.0, "text_color": "#000000", "text_size": 30, "text_to_audio_ids": [], "type": "text", "typesetting": 0, "underline": false, "underline_offset": 0.22, "underline_width": 0.05, "use_effect_default_color": false}, {"add_type": 0, "alignment": 1, "background_alpha": 1.0, "background_color": "", "background_height": 1.0, "background_horizontal_offset": 0.0, "background_round_radius": 0.0, "background_vertical_offset": 0.0, "background_width": 1.0, "bold_width": 0.0, "border_color": "#ffffff", "border_width": 0.08, "check_flag": 15, "content": "<outline color=(1,1,1,1) width=0.08><size=11><color=(0,0,0,1)><font id=\"\" path=\"D:/MyTools/JianyingPro/3.4.1.9179/Resources/Font/SystemFont/zh-hans.ttf\">[\u5982\u679c\u9047\u5230\u4e0d\u660e\u767d\u7684\u95ee\u9898\u53ca\u65f6\u89e3\u51b3]</font></color></size></outline>", "font_category_id": "", "font_category_name": "", "font_id": "", "font_name": "", "font_path": "D:/MyTools/JianyingPro/3.4.1.9179/Resources/Font/SystemFont/zh-hans.ttf", "font_resource_id": "", "font_size": 11.0, "font_title": "none", "font_url": "", "fonts": [], "global_alpha": 1.0, "has_shadow": false, "id": "texts-40", "initial_scale": 1.0, "is_rich_text": false, "italic_degree": 0, "ktv_color": "", "layer_weight": 1, "letter_spacing": 0.0, "line_spacing": 0.02, "recognize_type": 0, "shadow_alpha": 0.0, "shadow_angle": -45.0, "shadow_color": "#000000", "shadow_distance": 8.0, "shadow_point": {"x": 1.0182337649086284, "y": -1.0182337649086284}, "shadow_smoothing": 0.99, "shape_clip_x": false, "shape_clip_y": false, "style_name": "\u9ed1\u5b57\u767d\u8fb9", "sub_type": 0, "text_alpha": 1.0, "text_color": "#000000", "text_size": 30, "text_to_audio_ids": [], "type": "text", "typesetting": 0, "underline": false, "underline_offset": 0.22, "underline_width": 0.05, "use_effect_default_color": false}, {"add_type": 0, "alignment": 1, "background_alpha": 1.0, "background_color": "", "background_height": 1.0, "background_horizontal_offset": 0.0, "background_round_radius": 0.0, "background_vertical_offset": 0.0, "background_width": 1.0, "bold_width": 0.0, "border_color": "#ffffff", "border_width": 0.08, "check_flag": 15, "content": "<outline color=(1,1,1,1) width=0.08><size=11><color=(0,0,0,1)><font id=\"\" path=\"D:/MyTools/JianyingPro/3.4.1.9179/Resources/Font/SystemFont/zh-hans.ttf\">[\u53e6\u5916\u8981\u61c2\u5f97\u603b\u7ed3\u5b66\u4e60\u89c4\u5f8b]</font></color></size></outline>", "font_category_id": "", "font_category_name": "", "font_id": "", "font_name": "", "font_path": "D:/MyTools/JianyingPro/3.4.1.9179/Resources/Font/SystemFont/zh-hans.ttf", "font_resource_id": "", "font_size": 11.0, "font_title": "none", "font_url": "", "fonts": [], "global_alpha": 1.0, "has_shadow": false, "id": "texts-41", "initial_scale": 1.0, "is_rich_text": false, "italic_degree": 0, "ktv_color": "", "layer_weight": 1, "letter_spacing": 0.0, "line_spacing": 0.02, "recognize_type": 0, "shadow_alpha": 0.0, "shadow_angle": -45.0, "shadow_color": "#000000", "shadow_distance": 8.0, "shadow_point": {"x": 1.0182337649086284, "y": -1.0182337649086284}, "shadow_smoothing": 0.99, "shape_clip_x": false, "shape_clip_y": false, "style_name": "\u9ed1\u5b57\u767d\u8fb9", "sub_type": 0, "text_alpha": 1.0, "text_color": "#000000", "text_size": 30, "text_to_audio_ids": [], "type": "text", "typesetting": 0, "underline": false, "underline_offset": 0.22, "underline_width": 0.05, "use_effect_default_color": false}, {"add_type": 0, "alignment": 1, "background_alpha": 1.0, "background_color": "", "background_height": 1.0, "background_horizontal_offset": 0.0, "background_round_radius": 0.0, "background_vertical_offset": 0.0, "background_width": 1.0, "bold_width": 0.0, "border_color": "#ffffff", "border_width": 0.08, "check_flag": 15, "content": "<outline color=(1,1,1,1) width=0.08><size=11><color=(0,0,0,1)><font id=\"\" path=\"D:/MyTools/JianyingPro/3.4.1.9179/Resources/Font/SystemFont/zh-hans.ttf\">[\u7136\u540e\u81ea\u5df1\u9488\u5bf9\u6f0f\u7f3a\u7684\u77e5\u8bc6\u70b9\u52a0\u5f3a\u7ec3\u4e60]</font></color></size></outline>", "font_category_id": "", "font_category_name": "", "font_id": "", "font_name": "", "font_path": "D:/MyTools/JianyingPro/3.4.1.9179/Resources/Font/SystemFont/zh-hans.ttf", "font_resource_id": "", "font_size": 11.0, "font_title": "none", "font_url": "", "fonts": [], "global_alpha": 1.0, "has_shadow": false, "id": "texts-42", "initial_scale": 1.0, "is_rich_text": false, "italic_degree": 0, "ktv_color": "", "layer_weight": 1, "letter_spacing": 0.0, "line_spacing": 0.02, "recognize_type": 0, "shadow_alpha": 0.0, "shadow_angle": -45.0, "shadow_color": "#000000", "shadow_distance": 8.0, "shadow_point": {"x": 1.0182337649086284, "y": -1.0182337649086284}, "shadow_smoothing": 0.99, "shape_clip_x": false, "shape_clip_y": false, "style_name": "\u9ed1\u5b57\u767d\u8fb9", "sub_type": 0, "text_alpha": 1.0, "text_color": "#000000", "text_size": 30, "text_to_audio_ids": [], "type": "text", "typesetting": 0, "underline": false, "underline_offset": 0.22, "underline_width": 0.05, "use_effect_default_color": false}, {"add_type": 0, "alignment": 1, "background_alpha": 1.0, "background_color": "", "background_height": 1.0, "background_horizontal_offset": 0.0, "background_round_radius": 0.0, "background_vertical_offset": 0.0, "background_width": 1.0, "bold_width": 0.0, "border_color": "#ffffff", "border_width": 0.08, "check_flag": 15, "content": "<outline color=(1,1,1,1) width=0.08><size=11><color=(0,0,0,1)><font id=\"\" path=\"D:/MyTools/JianyingPro/3.4.1.9179/Resources/Font/SystemFont/zh-hans.ttf\">[\u53ca\u65f6\u8c03\u6574\u5fc3\u6001]</font></color></size></outline>", "font_category_id": "", "font_category_name": "", "font_id": "", "font_name": "", "font_path": "D:/MyTools/JianyingPro/3.4.1.9179/Resources/Font/SystemFont/zh-hans.ttf", "font_resource_id": "", "font_size": 11.0, "font_title": "none", "font_url": "", "fonts": [], "global_alpha": 1.0, "has_shadow": false, "id": "texts-43", "initial_scale": 1.0, "is_rich_text": false, "italic_degree": 0, "ktv_color": "", "layer_weight": 1, "letter_spacing": 0.0, "line_spacing": 0.02, "recognize_type": 0, "shadow_alpha": 0.0, "shadow_angle": -45.0, "shadow_color": "#000000", "shadow_distance": 8.0, "shadow_point": {"x": 1.0182337649086284, "y": -1.0182337649086284}, "shadow_smoothing": 0.99, "shape_clip_x": false, "shape_clip_y": false, "style_name": "\u9ed1\u5b57\u767d\u8fb9", "sub_type": 0, "text_alpha": 1.0, "text_color": "#000000", "text_size": 30, "text_to_audio_ids": [], "type": "text", "typesetting": 0, "underline": false, "underline_offset": 0.22, "underline_width": 0.05, "use_effect_default_color": false}, {"add_type": 0, "alignment": 1, "background_alpha": 1.0, "background_color": "", "background_height": 1.0, "background_horizontal_offset": 0.0, "background_round_radius": 0.0, "background_vertical_offset": 0.0, "background_width": 1.0, "bold_width": 0.0, "border_color": "#ffffff", "border_width": 0.08, "check_flag": 15, "content": "<outline color=(1,1,1,1) width=0.08><size=11><color=(0,0,0,1)><font id=\"\" path=\"D:/MyTools/JianyingPro/3.4.1.9179/Resources/Font/SystemFont/zh-hans.ttf\">[\u5f88\u591a\u827a\u8003\u751f\u5728\u521a\u5f00\u59cb\u590d\u4e60\u6587\u5316\u8bfe\u65f6\u4f1a\u4e00\u5934\u96fe\u6c34]</font></color></size></outline>", "font_category_id": "", "font_category_name": "", "font_id": "", "font_name": "", "font_path": "D:/MyTools/JianyingPro/3.4.1.9179/Resources/Font/SystemFont/zh-hans.ttf", "font_resource_id": "", "font_size": 11.0, "font_title": "none", "font_url": "", "fonts": [], "global_alpha": 1.0, "has_shadow": false, "id": "texts-44", "initial_scale": 1.0, "is_rich_text": false, "italic_degree": 0, "ktv_color": "", "layer_weight": 1, "letter_spacing": 0.0, "line_spacing": 0.02, "recognize_type": 0, "shadow_alpha": 0.0, "shadow_angle": -45.0, "shadow_color": "#000000", "shadow_distance": 8.0, "shadow_point": {"x": 1.0182337649086284, "y": -1.0182337649086284}, "shadow_smoothing": 0.99, "shape_clip_x": false, "shape_clip_y": false, "style_name": "\u9ed1\u5b57\u767d\u8fb9", "sub_type": 0, "text_alpha": 1.0, "text_color": "#000000", "text_size": 30, "text_to_audio_ids": [], "type": "text", "typesetting": 0, "underline": false, "underline_offset": 0.22, "underline_width": 0.05, "use_effect_default_color": false}, {"add_type": 0, "alignment": 1, "background_alpha": 1.0, "background_color": "", "background_height": 1.0, "background_horizontal_offset": 0.0, "background_round_radius": 0.0, "background_vertical_offset": 0.0, "background_width": 1.0, "bold_width": 0.0, "border_color": "#ffffff", "border_width": 0.08, "check_flag": 15, "content": "<outline color=(1,1,1,1) width=0.08><size=11><color=(0,0,0,1)><font id=\"\" path=\"D:/MyTools/JianyingPro/3.4.1.9179/Resources/Font/SystemFont/zh-hans.ttf\">[\u5728\u53d1\u73b0\u81ea\u5df1\u6709\u4e9b\u77e5\u8bc6\u70b9\u638c\u63e1\u5f97\u4e0d\u592a\u597d\u540e\u5f88\u5bb9\u6613]</font></color></size></outline>", "font_category_id": "", "font_category_name": "", "font_id": "", "font_name": "", "font_path": "D:/MyTools/JianyingPro/3.4.1.9179/Resources/Font/SystemFont/zh-hans.ttf", "font_resource_id": "", "font_size": 11.0, "font_title": "none", "font_url": "", "fonts": [], "global_alpha": 1.0, "has_shadow": false, "id": "texts-45", "initial_scale": 1.0, "is_rich_text": false, "italic_degree": 0, "ktv_color": "", "layer_weight": 1, "letter_spacing": 0.0, "line_spacing": 0.02, "recognize_type": 0, "shadow_alpha": 0.0, "shadow_angle": -45.0, "shadow_color": "#000000", "shadow_distance": 8.0, "shadow_point": {"x": 1.0182337649086284, "y": -1.0182337649086284}, "shadow_smoothing": 0.99, "shape_clip_x": false, "shape_clip_y": false, "style_name": "\u9ed1\u5b57\u767d\u8fb9", "sub_type": 0, "text_alpha": 1.0, "text_color": "#000000", "text_size": 30, "text_to_audio_ids": [], "type": "text", "typesetting": 0, "underline": false, "underline_offset": 0.22, "underline_width": 0.05, "use_effect_default_color": false}, {"add_type": 0, "alignment": 1, "background_alpha": 1.0, "background_color": "", "background_height": 1.0, "background_horizontal_offset": 0.0, "background_round_radius": 0.0, "background_vertical_offset": 0.0, "background_width": 1.0, "bold_width": 0.0, "border_color": "#ffffff", "border_width": 0.08, "check_flag": 15, "content": "<outline color=(1,1,1,1) width=0.08><size=11><color=(0,0,0,1)><font id=\"\" path=\"D:/MyTools/JianyingPro/3.4.1.9179/Resources/Font/SystemFont/zh-hans.ttf\">[\u4e27\u5931\u5b66\u4e60\u6587\u5316\u8bfe\u7684\u4fe1\u5fc3]</font></color></size></outline>", "font_category_id": "", "font_category_name": "", "font_id": "", "font_name": "", "font_path": "D:/MyTools/JianyingPro/3.4.1.9179/Resources/Font/SystemFont/zh-hans.ttf", "font_resource_id": "", "font_size": 11.0, "font_title": "none", "font_url": "", "fonts": [], "global_alpha": 1.0, "has_shadow": false, "id": "texts-46", "initial_scale": 1.0, "is_rich_text": false, "italic_degree": 0, "ktv_color": "", "layer_weight": 1, "letter_spacing": 0.0, "line_spacing": 0.02, "recognize_type": 0, "shadow_alpha": 0.0, "shadow_angle": -45.0, "shadow_color": "#000000", "shadow_distance": 8.0, "shadow_point": {"x": 1.0182337649086284, "y": -1.0182337649086284}, "shadow_smoothing": 0.99, "shape_clip_x": false, "shape_clip_y": false, "style_name": "\u9ed1\u5b57\u767d\u8fb9", "sub_type": 0, "text_alpha": 1.0, "text_color": "#000000", "text_size": 30, "text_to_audio_ids": [], "type": "text", "typesetting": 0, "underline": false, "underline_offset": 0.22, "underline_width": 0.05, "use_effect_default_color": false}, {"add_type": 0, "alignment": 1, "background_alpha": 1.0, "background_color": "", "background_height": 1.0, "background_horizontal_offset": 0.0, "background_round_radius": 0.0, "background_vertical_offset": 0.0, "background_width": 1.0, "bold_width": 0.0, "border_color": "#ffffff", "border_width": 0.08, "check_flag": 15, "content": "<outline color=(1,1,1,1) width=0.08><size=11><color=(0,0,0,1)><font id=\"\" path=\"D:/MyTools/JianyingPro/3.4.1.9179/Resources/Font/SystemFont/zh-hans.ttf\">[\u9047\u5230\u4e0d\u4f1a\u7684\u95ee\u9898\u53ef\u4ee5\u95ee\u8001\u5e08 \u4e00\u5b9a\u8981\u8c03\u6574\u597d\u5fc3\u6001]</font></color></size></outline>", "font_category_id": "", "font_category_name": "", "font_id": "", "font_name": "", "font_path": "D:/MyTools/JianyingPro/3.4.1.9179/Resources/Font/SystemFont/zh-hans.ttf", "font_resource_id": "", "font_size": 11.0, "font_title": "none", "font_url": "", "fonts": [], "global_alpha": 1.0, "has_shadow": false, "id": "texts-47", "initial_scale": 1.0, "is_rich_text": false, "italic_degree": 0, "ktv_color": "", "layer_weight": 1, "letter_spacing": 0.0, "line_spacing": 0.02, "recognize_type": 0, "shadow_alpha": 0.0, "shadow_angle": -45.0, "shadow_color": "#000000", "shadow_distance": 8.0, "shadow_point": {"x": 1.0182337649086284, "y": -1.0182337649086284}, "shadow_smoothing": 0.99, "shape_clip_x": false, "shape_clip_y": false, "style_name": "\u9ed1\u5b57\u767d\u8fb9", "sub_type": 0, "text_alpha": 1.0, "text_color": "#000000", "text_size": 30, "text_to_audio_ids": [], "type": "text", "typesetting": 0, "underline": false, "underline_offset": 0.22, "underline_width": 0.05, "use_effect_default_color": false}, {"add_type": 0, "alignment": 1, "background_alpha": 1.0, "background_color": "", "background_height": 1.0, "background_horizontal_offset": 0.0, "background_round_radius": 0.0, "background_vertical_offset": 0.0, "background_width": 1.0, "bold_width": 0.0, "border_color": "#ffffff", "border_width": 0.08, "check_flag": 15, "content": "<outline color=(1,1,1,1) width=0.08><size=11><color=(0,0,0,1)><font id=\"\" path=\"D:/MyTools/JianyingPro/3.4.1.9179/Resources/Font/SystemFont/zh-hans.ttf\">[\u5bb6\u91cc\u6709\u6761\u4ef6\u7684\u8bdd\u4e5f\u53ef\u4ee5\u9009\u62e9\u9488\u5bf9\u827a\u8003\u751f\u5f00\u653e]</font></color></size></outline>", "font_category_id": "", "font_category_name": "", "font_id": "", "font_name": "", "font_path": "D:/MyTools/JianyingPro/3.4.1.9179/Resources/Font/SystemFont/zh-hans.ttf", "font_resource_id": "", "font_size": 11.0, "font_title": "none", "font_url": "", "fonts": [], "global_alpha": 1.0, "has_shadow": false, "id": "texts-48", "initial_scale": 1.0, "is_rich_text": false, "italic_degree": 0, "ktv_color": "", "layer_weight": 1, "letter_spacing": 0.0, "line_spacing": 0.02, "recognize_type": 0, "shadow_alpha": 0.0, "shadow_angle": -45.0, "shadow_color": "#000000", "shadow_distance": 8.0, "shadow_point": {"x": 1.0182337649086284, "y": -1.0182337649086284}, "shadow_smoothing": 0.99, "shape_clip_x": false, "shape_clip_y": false, "style_name": "\u9ed1\u5b57\u767d\u8fb9", "sub_type": 0, "text_alpha": 1.0, "text_color": "#000000", "text_size": 30, "text_to_audio_ids": [], "type": "text", "typesetting": 0, "underline": false, "underline_offset": 0.22, "underline_width": 0.05, "use_effect_default_color": false}, {"add_type": 0, "alignment": 1, "background_alpha": 1.0, "background_color": "", "background_height": 1.0, "background_horizontal_offset": 0.0, "background_round_radius": 0.0, "background_vertical_offset": 0.0, "background_width": 1.0, "bold_width": 0.0, "border_color": "#ffffff", "border_width": 0.08, "check_flag": 15, "content": "<outline color=(1,1,1,1) width=0.08><size=11><color=(0,0,0,1)><font id=\"\" path=\"D:/MyTools/JianyingPro/3.4.1.9179/Resources/Font/SystemFont/zh-hans.ttf\">[\u7684\u6587\u5316\u8bfe\u57f9\u8bad\u73ed]</font></color></size></outline>", "font_category_id": "", "font_category_name": "", "font_id": "", "font_name": "", "font_path": "D:/MyTools/JianyingPro/3.4.1.9179/Resources/Font/SystemFont/zh-hans.ttf", "font_resource_id": "", "font_size": 11.0, "font_title": "none", "font_url": "", "fonts": [], "global_alpha": 1.0, "has_shadow": false, "id": "texts-49", "initial_scale": 1.0, "is_rich_text": false, "italic_degree": 0, "ktv_color": "", "layer_weight": 1, "letter_spacing": 0.0, "line_spacing": 0.02, "recognize_type": 0, "shadow_alpha": 0.0, "shadow_angle": -45.0, "shadow_color": "#000000", "shadow_distance": 8.0, "shadow_point": {"x": 1.0182337649086284, "y": -1.0182337649086284}, "shadow_smoothing": 0.99, "shape_clip_x": false, "shape_clip_y": false, "style_name": "\u9ed1\u5b57\u767d\u8fb9", "sub_type": 0, "text_alpha": 1.0, "text_color": "#000000", "text_size": 30, "text_to_audio_ids": [], "type": "text", "typesetting": 0, "underline": false, "underline_offset": 0.22, "underline_width": 0.05, "use_effect_default_color": false}], "transitions": [], "video_effects": [], "video_trackings": [{"config": {"center_x": 0.0, "center_y": 0.0, "height": 0.0, "rotation": 0.0, "width": 0.0}, "enable_scale": false, "enable_video_tracking": true, "id": "video_trackings-0", "map_path": "", "result_path": "", "tracker_type": 0, "trackers": [], "tracking_time_range": 0, "type": "video_tracking", "version": ""}, {"config": {"center_x": 0.0, "center_y": 0.0, "height": 0.0, "rotation": 0.0, "width": 0.0}, "enable_scale": false, "enable_video_tracking": true, "id": "video_trackings-1", "map_path": "", "result_path": "", "tracker_type": 0, "trackers": [], "tracking_time_range": 0, "type": "video_tracking", "version": ""}, {"config": {"center_x": 0.0, "center_y": 0.0, "height": 0.0, "rotation": 0.0, "width": 0.0}, "enable_scale": false, "enable_video_tracking": true, "id": "video_trackings-2", "map_path": "", "result_path": "", "tracker_type": 0, "trackers": [], "tracking_time_range": 0, "type": "video_tracking", "version": ""}, {"config": {"center_x": 0.0, "center_y": 0.0, "height": 0.0, "rotation": 0.0, "width": 0.0}, "enable_scale": false, "enable_video_tracking": true, "id": "video_trackings-3", "map_path": "", "result_path": "", "tracker_type": 0, "trackers": [], "tracking_time_range": 0, "type": "video_tracking", "version": ""}, {"config": {"center_x": 0.0, "center_y": 0.0, "height": 0.0, "rotation": 0.0, "width": 0.0}, "enable_scale": false, "enable_video_tracking": true, "id": "video_trackings-4", "map_path": "", "result_path": "", "tracker_type": 0, "trackers": [], "tracking_time_range": 0, "type": "video_tracking", "version": ""}, {"config": {"center_x": 0.0, "center_y": 0.0, "height": 0.0, "rotation": 0.0, "width": 0.0}, "enable_scale": false, "enable_video_tracking": true, "id": "video_trackings-5", "map_path": "", "result_path": "", "tracker_type": 0, "trackers": [], "tracking_time_range": 0, "type": "video_tracking", "version": ""}, {"config": {"center_x": 0.0, "center_y": 0.0, "height": 0.0, "rotation": 0.0, "width": 0.0}, "enable_scale": false, "enable_video_tracking": true, "id": "video_trackings-6", "map_path": "", "result_path": "", "tracker_type": 0, "trackers": [], "tracking_time_range": 0, "type": "video_tracking", "version": ""}, {"config": {"center_x": 0.0, "center_y": 0.0, "height": 0.0, "rotation": 0.0, "width": 0.0}, "enable_scale": false, "enable_video_tracking": true, "id": "video_trackings-7", "map_path": "", "result_path": "", "tracker_type": 0, "trackers": [], "tracking_time_range": 0, "type": "video_tracking", "version": ""}, {"config": {"center_x": 0.0, "center_y": 0.0, "height": 0.0, "rotation": 0.0, "width": 0.0}, "enable_scale": false, "enable_video_tracking": true, "id": "video_trackings-8", "map_path": "", "result_path": "", "tracker_type": 0, "trackers": [], "tracking_time_range": 0, "type": "video_tracking", "version": ""}, {"config": {"center_x": 0.0, "center_y": 0.0, "height": 0.0, "rotation": 0.0, "width": 0.0}, "enable_scale": false, "enable_video_tracking": true, "id": "video_trackings-9", "map_path": "", "result_path": "", "tracker_type": 0, "trackers": [], "tracking_time_range": 0, "type": "video_tracking", "version": ""}, {"config": {"center_x": 0.0, "center_y": 0.0, "height": 0.0, "rotation": 0.0, "width": 0.0}, "enable_scale": false, "enable_video_tracking": true, "id": "video_trackings-10", "map_path": "", "result_path": "", "tracker_type": 0, "trackers": [], "tracking_time_range": 0, "type": "video_tracking", "version": ""}, {"config": {"center_x": 0.0, "center_y": 0.0, "height": 0.0, "rotation": 0.0, "width": 0.0}, "enable_scale": false, "enable_video_tracking": true, "id": "video_trackings-11", "map_path": "", "result_path": "", "tracker_type": 0, "trackers": [], "tracking_time_range": 0, "type": "video_tracking", "version": ""}, {"config": {"center_x": 0.0, "center_y": 0.0, "height": 0.0, "rotation": 0.0, "width": 0.0}, "enable_scale": false, "enable_video_tracking": true, "id": "video_trackings-12", "map_path": "", "result_path": "", "tracker_type": 0, "trackers": [], "tracking_time_range": 0, "type": "video_tracking", "version": ""}, {"config": {"center_x": 0.0, "center_y": 0.0, "height": 0.0, "rotation": 0.0, "width": 0.0}, "enable_scale": false, "enable_video_tracking": true, "id": "video_trackings-13", "map_path": "", "result_path": "", "tracker_type": 0, "trackers": [], "tracking_time_range": 0, "type": "video_tracking", "version": ""}, {"config": {"center_x": 0.0, "center_y": 0.0, "height": 0.0, "rotation": 0.0, "width": 0.0}, "enable_scale": false, "enable_video_tracking": true, "id": "video_trackings-14", "map_path": "", "result_path": "", "tracker_type": 0, "trackers": [], "tracking_time_range": 0, "type": "video_tracking", "version": ""}, {"config": {"center_x": 0.0, "center_y": 0.0, "height": 0.0, "rotation": 0.0, "width": 0.0}, "enable_scale": false, "enable_video_tracking": true, "id": "video_trackings-15", "map_path": "", "result_path": "", "tracker_type": 0, "trackers": [], "tracking_time_range": 0, "type": "video_tracking", "version": ""}, {"config": {"center_x": 0.0, "center_y": 0.0, "height": 0.0, "rotation": 0.0, "width": 0.0}, "enable_scale": false, "enable_video_tracking": true, "id": "video_trackings-16", "map_path": "", "result_path": "", "tracker_type": 0, "trackers": [], "tracking_time_range": 0, "type": "video_tracking", "version": ""}, {"config": {"center_x": 0.0, "center_y": 0.0, "height": 0.0, "rotation": 0.0, "width": 0.0}, "enable_scale": false, "enable_video_tracking": true, "id": "video_trackings-17", "map_path": "", "result_path": "", "tracker_type": 0, "trackers": [], "tracking_time_range": 0, "type": "video_tracking", "version": ""}, {"config": {"center_x": 0.0, "center_y": 0.0, "height": 0.0, "rotation": 0.0, "width": 0.0}, "enable_scale": false, "enable_video_tracking": true, "id": "video_trackings-18", "map_path": "", "result_path": "", "tracker_type": 0, "trackers": [], "tracking_time_range": 0, "type": "video_tracking", "version": ""}, {"config": {"center_x": 0.0, "center_y": 0.0, "height": 0.0, "rotation": 0.0, "width": 0.0}, "enable_scale": false, "enable_video_tracking": true, "id": "video_trackings-19", "map_path": "", "result_path": "", "tracker_type": 0, "trackers": [], "tracking_time_range": 0, "type": "video_tracking", "version": ""}, {"config": {"center_x": 0.0, "center_y": 0.0, "height": 0.0, "rotation": 0.0, "width": 0.0}, "enable_scale": false, "enable_video_tracking": true, "id": "video_trackings-20", "map_path": "", "result_path": "", "tracker_type": 0, "trackers": [], "tracking_time_range": 0, "type": "video_tracking", "version": ""}, {"config": {"center_x": 0.0, "center_y": 0.0, "height": 0.0, "rotation": 0.0, "width": 0.0}, "enable_scale": false, "enable_video_tracking": true, "id": "video_trackings-21", "map_path": "", "result_path": "", "tracker_type": 0, "trackers": [], "tracking_time_range": 0, "type": "video_tracking", "version": ""}, {"config": {"center_x": 0.0, "center_y": 0.0, "height": 0.0, "rotation": 0.0, "width": 0.0}, "enable_scale": false, "enable_video_tracking": true, "id": "video_trackings-22", "map_path": "", "result_path": "", "tracker_type": 0, "trackers": [], "tracking_time_range": 0, "type": "video_tracking", "version": ""}, {"config": {"center_x": 0.0, "center_y": 0.0, "height": 0.0, "rotation": 0.0, "width": 0.0}, "enable_scale": false, "enable_video_tracking": true, "id": "video_trackings-23", "map_path": "", "result_path": "", "tracker_type": 0, "trackers": [], "tracking_time_range": 0, "type": "video_tracking", "version": ""}, {"config": {"center_x": 0.0, "center_y": 0.0, "height": 0.0, "rotation": 0.0, "width": 0.0}, "enable_scale": false, "enable_video_tracking": true, "id": "video_trackings-24", "map_path": "", "result_path": "", "tracker_type": 0, "trackers": [], "tracking_time_range": 0, "type": "video_tracking", "version": ""}, {"config": {"center_x": 0.0, "center_y": 0.0, "height": 0.0, "rotation": 0.0, "width": 0.0}, "enable_scale": false, "enable_video_tracking": true, "id": "video_trackings-25", "map_path": "", "result_path": "", "tracker_type": 0, "trackers": [], "tracking_time_range": 0, "type": "video_tracking", "version": ""}, {"config": {"center_x": 0.0, "center_y": 0.0, "height": 0.0, "rotation": 0.0, "width": 0.0}, "enable_scale": false, "enable_video_tracking": true, "id": "video_trackings-26", "map_path": "", "result_path": "", "tracker_type": 0, "trackers": [], "tracking_time_range": 0, "type": "video_tracking", "version": ""}, {"config": {"center_x": 0.0, "center_y": 0.0, "height": 0.0, "rotation": 0.0, "width": 0.0}, "enable_scale": false, "enable_video_tracking": true, "id": "video_trackings-27", "map_path": "", "result_path": "", "tracker_type": 0, "trackers": [], "tracking_time_range": 0, "type": "video_tracking", "version": ""}, {"config": {"center_x": 0.0, "center_y": 0.0, "height": 0.0, "rotation": 0.0, "width": 0.0}, "enable_scale": false, "enable_video_tracking": true, "id": "video_trackings-28", "map_path": "", "result_path": "", "tracker_type": 0, "trackers": [], "tracking_time_range": 0, "type": "video_tracking", "version": ""}, {"config": {"center_x": 0.0, "center_y": 0.0, "height": 0.0, "rotation": 0.0, "width": 0.0}, "enable_scale": false, "enable_video_tracking": true, "id": "video_trackings-29", "map_path": "", "result_path": "", "tracker_type": 0, "trackers": [], "tracking_time_range": 0, "type": "video_tracking", "version": ""}, {"config": {"center_x": 0.0, "center_y": 0.0, "height": 0.0, "rotation": 0.0, "width": 0.0}, "enable_scale": false, "enable_video_tracking": true, "id": "video_trackings-30", "map_path": "", "result_path": "", "tracker_type": 0, "trackers": [], "tracking_time_range": 0, "type": "video_tracking", "version": ""}, {"config": {"center_x": 0.0, "center_y": 0.0, "height": 0.0, "rotation": 0.0, "width": 0.0}, "enable_scale": false, "enable_video_tracking": true, "id": "video_trackings-31", "map_path": "", "result_path": "", "tracker_type": 0, "trackers": [], "tracking_time_range": 0, "type": "video_tracking", "version": ""}, {"config": {"center_x": 0.0, "center_y": 0.0, "height": 0.0, "rotation": 0.0, "width": 0.0}, "enable_scale": false, "enable_video_tracking": true, "id": "video_trackings-32", "map_path": "", "result_path": "", "tracker_type": 0, "trackers": [], "tracking_time_range": 0, "type": "video_tracking", "version": ""}, {"config": {"center_x": 0.0, "center_y": 0.0, "height": 0.0, "rotation": 0.0, "width": 0.0}, "enable_scale": false, "enable_video_tracking": true, "id": "video_trackings-33", "map_path": "", "result_path": "", "tracker_type": 0, "trackers": [], "tracking_time_range": 0, "type": "video_tracking", "version": ""}, {"config": {"center_x": 0.0, "center_y": 0.0, "height": 0.0, "rotation": 0.0, "width": 0.0}, "enable_scale": false, "enable_video_tracking": true, "id": "video_trackings-34", "map_path": "", "result_path": "", "tracker_type": 0, "trackers": [], "tracking_time_range": 0, "type": "video_tracking", "version": ""}, {"config": {"center_x": 0.0, "center_y": 0.0, "height": 0.0, "rotation": 0.0, "width": 0.0}, "enable_scale": false, "enable_video_tracking": true, "id": "video_trackings-35", "map_path": "", "result_path": "", "tracker_type": 0, "trackers": [], "tracking_time_range": 0, "type": "video_tracking", "version": ""}, {"config": {"center_x": 0.0, "center_y": 0.0, "height": 0.0, "rotation": 0.0, "width": 0.0}, "enable_scale": false, "enable_video_tracking": true, "id": "video_trackings-36", "map_path": "", "result_path": "", "tracker_type": 0, "trackers": [], "tracking_time_range": 0, "type": "video_tracking", "version": ""}, {"config": {"center_x": 0.0, "center_y": 0.0, "height": 0.0, "rotation": 0.0, "width": 0.0}, "enable_scale": false, "enable_video_tracking": true, "id": "video_trackings-37", "map_path": "", "result_path": "", "tracker_type": 0, "trackers": [], "tracking_time_range": 0, "type": "video_tracking", "version": ""}, {"config": {"center_x": 0.0, "center_y": 0.0, "height": 0.0, "rotation": 0.0, "width": 0.0}, "enable_scale": false, "enable_video_tracking": true, "id": "video_trackings-38", "map_path": "", "result_path": "", "tracker_type": 0, "trackers": [], "tracking_time_range": 0, "type": "video_tracking", "version": ""}, {"config": {"center_x": 0.0, "center_y": 0.0, "height": 0.0, "rotation": 0.0, "width": 0.0}, "enable_scale": false, "enable_video_tracking": true, "id": "video_trackings-39", "map_path": "", "result_path": "", "tracker_type": 0, "trackers": [], "tracking_time_range": 0, "type": "video_tracking", "version": ""}, {"config": {"center_x": 0.0, "center_y": 0.0, "height": 0.0, "rotation": 0.0, "width": 0.0}, "enable_scale": false, "enable_video_tracking": true, "id": "video_trackings-40", "map_path": "", "result_path": "", "tracker_type": 0, "trackers": [], "tracking_time_range": 0, "type": "video_tracking", "version": ""}, {"config": {"center_x": 0.0, "center_y": 0.0, "height": 0.0, "rotation": 0.0, "width": 0.0}, "enable_scale": false, "enable_video_tracking": true, "id": "video_trackings-41", "map_path": "", "result_path": "", "tracker_type": 0, "trackers": [], "tracking_time_range": 0, "type": "video_tracking", "version": ""}, {"config": {"center_x": 0.0, "center_y": 0.0, "height": 0.0, "rotation": 0.0, "width": 0.0}, "enable_scale": false, "enable_video_tracking": true, "id": "video_trackings-42", "map_path": "", "result_path": "", "tracker_type": 0, "trackers": [], "tracking_time_range": 0, "type": "video_tracking", "version": ""}, {"config": {"center_x": 0.0, "center_y": 0.0, "height": 0.0, "rotation": 0.0, "width": 0.0}, "enable_scale": false, "enable_video_tracking": true, "id": "video_trackings-43", "map_path": "", "result_path": "", "tracker_type": 0, "trackers": [], "tracking_time_range": 0, "type": "video_tracking", "version": ""}, {"config": {"center_x": 0.0, "center_y": 0.0, "height": 0.0, "rotation": 0.0, "width": 0.0}, "enable_scale": false, "enable_video_tracking": true, "id": "video_trackings-44", "map_path": "", "result_path": "", "tracker_type": 0, "trackers": [], "tracking_time_range": 0, "type": "video_tracking", "version": ""}, {"config": {"center_x": 0.0, "center_y": 0.0, "height": 0.0, "rotation": 0.0, "width": 0.0}, "enable_scale": false, "enable_video_tracking": true, "id": "video_trackings-45", "map_path": "", "result_path": "", "tracker_type": 0, "trackers": [], "tracking_time_range": 0, "type": "video_tracking", "version": ""}, {"config": {"center_x": 0.0, "center_y": 0.0, "height": 0.0, "rotation": 0.0, "width": 0.0}, "enable_scale": false, "enable_video_tracking": true, "id": "video_trackings-46", "map_path": "", "result_path": "", "tracker_type": 0, "trackers": [], "tracking_time_range": 0, "type": "video_tracking", "version": ""}, {"config": {"center_x": 0.0, "center_y": 0.0, "height": 0.0, "rotation": 0.0, "width": 0.0}, "enable_scale": false, "enable_video_tracking": true, "id": "video_trackings-47", "map_path": "", "result_path": "", "tracker_type": 0, "trackers": [], "tracking_time_range": 0, "type": "video_tracking", "version": ""}, {"config": {"center_x": 0.0, "center_y": 0.0, "height": 0.0, "rotation": 0.0, "width": 0.0}, "enable_scale": false, "enable_video_tracking": true, "id": "video_trackings-48", "map_path": "", "result_path": "", "tracker_type": 0, "trackers": [], "tracking_time_range": 0, "type": "video_tracking", "version": ""}, {"config": {"center_x": 0.0, "center_y": 0.0, "height": 0.0, "rotation": 0.0, "width": 0.0}, "enable_scale": false, "enable_video_tracking": true, "id": "video_trackings-49", "map_path": "", "result_path": "", "tracker_type": 0, "trackers": [], "tracking_time_range": 0, "type": "video_tracking", "version": ""}], "videos": [{"audio_fade": null, "cartoon_path": "", "category_id": "", "category_name": "local", "check_flag": 30719, "crop": {"lower_left_x": 0.0, "lower_left_y": 1.0, "lower_right_x": 1.0, "lower_right_y": 1.0, "upper_left_x": 0.0, "upper_left_y": 0.0, "upper_right_x": 1.0, "upper_right_y": 0.0}, "crop_ratio": "free", "crop_scale": 1.0, "duration": 10800000000, "extra_type_option": 0, "formula_id": "", "gameplay": null, "has_audio": false, "height": 1080, "id": "videos-0", "intensifies_audio_path": "", "intensifies_path": "", "is_unified_beauty_mode": false, "material_id": "", "material_name": "0.jpg", "material_url": "", "matting": {"flag": 0, "interactiveTime": [], "path": ""}, "path": "F:/PythonWorkProject/07.\u65b0\u5a92\u4f53\u5185\u5bb9\u521b\u4f5c/02.AI\u89c6\u9891\u521b\u4f5c/\uff08\u6a2a\u7248\uff09\u5934\u6761\u56fe\u6587\u8f6c\u89c6\u9891\u8f6c\u6362/image/0.jpg", "reverse_intensifies_path": "", "reverse_path": "", "source_platform": 0, "stable": null, "type": "photo", "video_algorithm": {"algorithms": [], "path": "", "time_range": null}, "width": 1920}, {"audio_fade": null, "cartoon_path": "", "category_id": "", "category_name": "local", "check_flag": 30719, "crop": {"lower_left_x": 0.0, "lower_left_y": 1.0, "lower_right_x": 1.0, "lower_right_y": 1.0, "upper_left_x": 0.0, "upper_left_y": 0.0, "upper_right_x": 1.0, "upper_right_y": 0.0}, "crop_ratio": "free", "crop_scale": 1.0, "duration": 10800000000, "extra_type_option": 0, "formula_id": "", "gameplay": null, "has_audio": false, "height": 1080, "id": "videos-1", "intensifies_audio_path": "", "intensifies_path": "", "is_unified_beauty_mode": false, "material_id": "", "material_name": "1.jpg", "material_url": "", "matting": {"flag": 0, "interactiveTime": [], "path": ""}, "path": "F:/PythonWorkProject/07.\u65b0\u5a92\u4f53\u5185\u5bb9\u521b\u4f5c/02.AI\u89c6\u9891\u521b\u4f5c/\uff08\u6a2a\u7248\uff09\u5934\u6761\u56fe\u6587\u8f6c\u89c6\u9891\u8f6c\u6362/image/1.jpg", "reverse_intensifies_path": "", "reverse_path": "", "source_platform": 0, "stable": null, "type": "photo", "video_algorithm": {"algorithms": [], "path": "", "time_range": null}, "width": 1920}, {"audio_fade": null, "cartoon_path": "", "category_id": "", "category_name": "local", "check_flag": 30719, "crop": {"lower_left_x": 0.0, "lower_left_y": 1.0, "lower_right_x": 1.0, "lower_right_y": 1.0, "upper_left_x": 0.0, "upper_left_y": 0.0, "upper_right_x": 1.0, "upper_right_y": 0.0}, "crop_ratio": "free", "crop_scale": 1.0, "duration": 10800000000, "extra_type_option": 0, "formula_id": "", "gameplay": null, "has_audio": false, "height": 1080, "id": "videos-2", "intensifies_audio_path": "", "intensifies_path": "", "is_unified_beauty_mode": false, "material_id": "", "material_name": "2.jpg", "material_url": "", "matting": {"flag": 0, "interactiveTime": [], "path": ""}, "path": "F:/PythonWorkProject/07.\u65b0\u5a92\u4f53\u5185\u5bb9\u521b\u4f5c/02.AI\u89c6\u9891\u521b\u4f5c/\uff08\u6a2a\u7248\uff09\u5934\u6761\u56fe\u6587\u8f6c\u89c6\u9891\u8f6c\u6362/image/2.jpg", "reverse_intensifies_path": "", "reverse_path": "", "source_platform": 0, "stable": null, "type": "photo", "video_algorithm": {"algorithms": [], "path": "", "time_range": null}, "width": 1920}, {"audio_fade": null, "cartoon_path": "", "category_id": "", "category_name": "local", "check_flag": 30719, "crop": {"lower_left_x": 0.0, "lower_left_y": 1.0, "lower_right_x": 1.0, "lower_right_y": 1.0, "upper_left_x": 0.0, "upper_left_y": 0.0, "upper_right_x": 1.0, "upper_right_y": 0.0}, "crop_ratio": "free", "crop_scale": 1.0, "duration": 10800000000, "extra_type_option": 0, "formula_id": "", "gameplay": null, "has_audio": false, "height": 1080, "id": "videos-3", "intensifies_audio_path": "", "intensifies_path": "", "is_unified_beauty_mode": false, "material_id": "", "material_name": "3.jpg", "material_url": "", "matting": {"flag": 0, "interactiveTime": [], "path": ""}, "path": "F:/PythonWorkProject/07.\u65b0\u5a92\u4f53\u5185\u5bb9\u521b\u4f5c/02.AI\u89c6\u9891\u521b\u4f5c/\uff08\u6a2a\u7248\uff09\u5934\u6761\u56fe\u6587\u8f6c\u89c6\u9891\u8f6c\u6362/image/3.jpg", "reverse_intensifies_path": "", "reverse_path": "", "source_platform": 0, "stable": null, "type": "photo", "video_algorithm": {"algorithms": [], "path": "", "time_range": null}, "width": 1920}, {"audio_fade": null, "cartoon_path": "", "category_id": "", "category_name": "local", "check_flag": 30719, "crop": {"lower_left_x": 0.0, "lower_left_y": 1.0, "lower_right_x": 1.0, "lower_right_y": 1.0, "upper_left_x": 0.0, "upper_left_y": 0.0, "upper_right_x": 1.0, "upper_right_y": 0.0}, "crop_ratio": "free", "crop_scale": 1.0, "duration": 10800000000, "extra_type_option": 0, "formula_id": "", "gameplay": null, "has_audio": false, "height": 1080, "id": "videos-4", "intensifies_audio_path": "", "intensifies_path": "", "is_unified_beauty_mode": false, "material_id": "", "material_name": "4.jpg", "material_url": "", "matting": {"flag": 0, "interactiveTime": [], "path": ""}, "path": "F:/PythonWorkProject/07.\u65b0\u5a92\u4f53\u5185\u5bb9\u521b\u4f5c/02.AI\u89c6\u9891\u521b\u4f5c/\uff08\u6a2a\u7248\uff09\u5934\u6761\u56fe\u6587\u8f6c\u89c6\u9891\u8f6c\u6362/image/4.jpg", "reverse_intensifies_path": "", "reverse_path": "", "source_platform": 0, "stable": null, "type": "photo", "video_algorithm": {"algorithms": [], "path": "", "time_range": null}, "width": 1920}, {"audio_fade": null, "cartoon_path": "", "category_id": "", "category_name": "local", "check_flag": 30719, "crop": {"lower_left_x": 0.0, "lower_left_y": 1.0, "lower_right_x": 1.0, "lower_right_y": 1.0, "upper_left_x": 0.0, "upper_left_y": 0.0, "upper_right_x": 1.0, "upper_right_y": 0.0}, "crop_ratio": "free", "crop_scale": 1.0, "duration": 10800000000, "extra_type_option": 0, "formula_id": "", "gameplay": null, "has_audio": false, "height": 1080, "id": "videos-5", "intensifies_audio_path": "", "intensifies_path": "", "is_unified_beauty_mode": false, "material_id": "", "material_name": "5.jpg", "material_url": "", "matting": {"flag": 0, "interactiveTime": [], "path": ""}, "path": "F:/PythonWorkProject/07.\u65b0\u5a92\u4f53\u5185\u5bb9\u521b\u4f5c/02.AI\u89c6\u9891\u521b\u4f5c/\uff08\u6a2a\u7248\uff09\u5934\u6761\u56fe\u6587\u8f6c\u89c6\u9891\u8f6c\u6362/image/5.jpg", "reverse_intensifies_path": "", "reverse_path": "", "source_platform": 0, "stable": null, "type": "photo", "video_algorithm": {"algorithms": [], "path": "", "time_range": null}, "width": 1920}, {"audio_fade": null, "cartoon_path": "", "category_id": "", "category_name": "local", "check_flag": 30719, "crop": {"lower_left_x": 0.0, "lower_left_y": 1.0, "lower_right_x": 1.0, "lower_right_y": 1.0, "upper_left_x": 0.0, "upper_left_y": 0.0, "upper_right_x": 1.0, "upper_right_y": 0.0}, "crop_ratio": "free", "crop_scale": 1.0, "duration": 10800000000, "extra_type_option": 0, "formula_id": "", "gameplay": null, "has_audio": false, "height": 1080, "id": "videos-6", "intensifies_audio_path": "", "intensifies_path": "", "is_unified_beauty_mode": false, "material_id": "", "material_name": "6.jpg", "material_url": "", "matting": {"flag": 0, "interactiveTime": [], "path": ""}, "path": "F:/PythonWorkProject/07.\u65b0\u5a92\u4f53\u5185\u5bb9\u521b\u4f5c/02.AI\u89c6\u9891\u521b\u4f5c/\uff08\u6a2a\u7248\uff09\u5934\u6761\u56fe\u6587\u8f6c\u89c6\u9891\u8f6c\u6362/image/6.jpg", "reverse_intensifies_path": "", "reverse_path": "", "source_platform": 0, "stable": null, "type": "photo", "video_algorithm": {"algorithms": [], "path": "", "time_range": null}, "width": 1920}, {"audio_fade": null, "cartoon_path": "", "category_id": "", "category_name": "local", "check_flag": 30719, "crop": {"lower_left_x": 0.0, "lower_left_y": 1.0, "lower_right_x": 1.0, "lower_right_y": 1.0, "upper_left_x": 0.0, "upper_left_y": 0.0, "upper_right_x": 1.0, "upper_right_y": 0.0}, "crop_ratio": "free", "crop_scale": 1.0, "duration": 10800000000, "extra_type_option": 0, "formula_id": "", "gameplay": null, "has_audio": false, "height": 1080, "id": "videos-7", "intensifies_audio_path": "", "intensifies_path": "", "is_unified_beauty_mode": false, "material_id": "", "material_name": "7.jpg", "material_url": "", "matting": {"flag": 0, "interactiveTime": [], "path": ""}, "path": "F:/PythonWorkProject/07.\u65b0\u5a92\u4f53\u5185\u5bb9\u521b\u4f5c/02.AI\u89c6\u9891\u521b\u4f5c/\uff08\u6a2a\u7248\uff09\u5934\u6761\u56fe\u6587\u8f6c\u89c6\u9891\u8f6c\u6362/image/7.jpg", "reverse_intensifies_path": "", "reverse_path": "", "source_platform": 0, "stable": null, "type": "photo", "video_algorithm": {"algorithms": [], "path": "", "time_range": null}, "width": 1920}, {"audio_fade": null, "cartoon_path": "", "category_id": "", "category_name": "local", "check_flag": 30719, "crop": {"lower_left_x": 0.0, "lower_left_y": 1.0, "lower_right_x": 1.0, "lower_right_y": 1.0, "upper_left_x": 0.0, "upper_left_y": 0.0, "upper_right_x": 1.0, "upper_right_y": 0.0}, "crop_ratio": "free", "crop_scale": 1.0, "duration": 10800000000, "extra_type_option": 0, "formula_id": "", "gameplay": null, "has_audio": false, "height": 1080, "id": "videos-8", "intensifies_audio_path": "", "intensifies_path": "", "is_unified_beauty_mode": false, "material_id": "", "material_name": "8.jpg", "material_url": "", "matting": {"flag": 0, "interactiveTime": [], "path": ""}, "path": "F:/PythonWorkProject/07.\u65b0\u5a92\u4f53\u5185\u5bb9\u521b\u4f5c/02.AI\u89c6\u9891\u521b\u4f5c/\uff08\u6a2a\u7248\uff09\u5934\u6761\u56fe\u6587\u8f6c\u89c6\u9891\u8f6c\u6362/image/8.jpg", "reverse_intensifies_path": "", "reverse_path": "", "source_platform": 0, "stable": null, "type": "photo", "video_algorithm": {"algorithms": [], "path": "", "time_range": null}, "width": 1920}, {"audio_fade": null, "cartoon_path": "", "category_id": "", "category_name": "local", "check_flag": 30719, "crop": {"lower_left_x": 0.0, "lower_left_y": 1.0, "lower_right_x": 1.0, "lower_right_y": 1.0, "upper_left_x": 0.0, "upper_left_y": 0.0, "upper_right_x": 1.0, "upper_right_y": 0.0}, "crop_ratio": "free", "crop_scale": 1.0, "duration": 10800000000, "extra_type_option": 0, "formula_id": "", "gameplay": null, "has_audio": false, "height": 1080, "id": "videos-9", "intensifies_audio_path": "", "intensifies_path": "", "is_unified_beauty_mode": false, "material_id": "", "material_name": "9.jpg", "material_url": "", "matting": {"flag": 0, "interactiveTime": [], "path": ""}, "path": "F:/PythonWorkProject/07.\u65b0\u5a92\u4f53\u5185\u5bb9\u521b\u4f5c/02.AI\u89c6\u9891\u521b\u4f5c/\uff08\u6a2a\u7248\uff09\u5934\u6761\u56fe\u6587\u8f6c\u89c6\u9891\u8f6c\u6362/image/9.jpg", "reverse_intensifies_path": "", "reverse_path": "", "source_platform": 0, "stable": null, "type": "photo", "video_algorithm": {"algorithms": [], "path": "", "time_range": null}, "width": 1920}, {"audio_fade": null, "cartoon_path": "", "category_id": "", "category_name": "local", "check_flag": 30719, "crop": {"lower_left_x": 0.0, "lower_left_y": 1.0, "lower_right_x": 1.0, "lower_right_y": 1.0, "upper_left_x": 0.0, "upper_left_y": 0.0, "upper_right_x": 1.0, "upper_right_y": 0.0}, "crop_ratio": "free", "crop_scale": 1.0, "duration": 10800000000, "extra_type_option": 0, "formula_id": "", "gameplay": null, "has_audio": false, "height": 1080, "id": "videos-10", "intensifies_audio_path": "", "intensifies_path": "", "is_unified_beauty_mode": false, "material_id": "", "material_name": "10.jpg", "material_url": "", "matting": {"flag": 0, "interactiveTime": [], "path": ""}, "path": "F:/PythonWorkProject/07.\u65b0\u5a92\u4f53\u5185\u5bb9\u521b\u4f5c/02.AI\u89c6\u9891\u521b\u4f5c/\uff08\u6a2a\u7248\uff09\u5934\u6761\u56fe\u6587\u8f6c\u89c6\u9891\u8f6c\u6362/image/10.jpg", "reverse_intensifies_path": "", "reverse_path": "", "source_platform": 0, "stable": null, "type": "photo", "video_algorithm": {"algorithms": [], "path": "", "time_range": null}, "width": 1920}, {"audio_fade": null, "cartoon_path": "", "category_id": "", "category_name": "local", "check_flag": 30719, "crop": {"lower_left_x": 0.0, "lower_left_y": 1.0, "lower_right_x": 1.0, "lower_right_y": 1.0, "upper_left_x": 0.0, "upper_left_y": 0.0, "upper_right_x": 1.0, "upper_right_y": 0.0}, "crop_ratio": "free", "crop_scale": 1.0, "duration": 10800000000, "extra_type_option": 0, "formula_id": "", "gameplay": null, "has_audio": false, "height": 1080, "id": "videos-11", "intensifies_audio_path": "", "intensifies_path": "", "is_unified_beauty_mode": false, "material_id": "", "material_name": "11.jpg", "material_url": "", "matting": {"flag": 0, "interactiveTime": [], "path": ""}, "path": "F:/PythonWorkProject/07.\u65b0\u5a92\u4f53\u5185\u5bb9\u521b\u4f5c/02.AI\u89c6\u9891\u521b\u4f5c/\uff08\u6a2a\u7248\uff09\u5934\u6761\u56fe\u6587\u8f6c\u89c6\u9891\u8f6c\u6362/image/11.jpg", "reverse_intensifies_path": "", "reverse_path": "", "source_platform": 0, "stable": null, "type": "photo", "video_algorithm": {"algorithms": [], "path": "", "time_range": null}, "width": 1920}, {"audio_fade": null, "cartoon_path": "", "category_id": "", "category_name": "local", "check_flag": 30719, "crop": {"lower_left_x": 0.0, "lower_left_y": 1.0, "lower_right_x": 1.0, "lower_right_y": 1.0, "upper_left_x": 0.0, "upper_left_y": 0.0, "upper_right_x": 1.0, "upper_right_y": 0.0}, "crop_ratio": "free", "crop_scale": 1.0, "duration": 10800000000, "extra_type_option": 0, "formula_id": "", "gameplay": null, "has_audio": false, "height": 1080, "id": "videos-12", "intensifies_audio_path": "", "intensifies_path": "", "is_unified_beauty_mode": false, "material_id": "", "material_name": "12.jpg", "material_url": "", "matting": {"flag": 0, "interactiveTime": [], "path": ""}, "path": "F:/PythonWorkProject/07.\u65b0\u5a92\u4f53\u5185\u5bb9\u521b\u4f5c/02.AI\u89c6\u9891\u521b\u4f5c/\uff08\u6a2a\u7248\uff09\u5934\u6761\u56fe\u6587\u8f6c\u89c6\u9891\u8f6c\u6362/image/12.jpg", "reverse_intensifies_path": "", "reverse_path": "", "source_platform": 0, "stable": null, "type": "photo", "video_algorithm": {"algorithms": [], "path": "", "time_range": null}, "width": 1920}, {"audio_fade": null, "cartoon_path": "", "category_id": "", "category_name": "local", "check_flag": 30719, "crop": {"lower_left_x": 0.0, "lower_left_y": 1.0, "lower_right_x": 1.0, "lower_right_y": 1.0, "upper_left_x": 0.0, "upper_left_y": 0.0, "upper_right_x": 1.0, "upper_right_y": 0.0}, "crop_ratio": "free", "crop_scale": 1.0, "duration": 10800000000, "extra_type_option": 0, "formula_id": "", "gameplay": null, "has_audio": false, "height": 1080, "id": "videos-13", "intensifies_audio_path": "", "intensifies_path": "", "is_unified_beauty_mode": false, "material_id": "", "material_name": "13.jpg", "material_url": "", "matting": {"flag": 0, "interactiveTime": [], "path": ""}, "path": "F:/PythonWorkProject/07.\u65b0\u5a92\u4f53\u5185\u5bb9\u521b\u4f5c/02.AI\u89c6\u9891\u521b\u4f5c/\uff08\u6a2a\u7248\uff09\u5934\u6761\u56fe\u6587\u8f6c\u89c6\u9891\u8f6c\u6362/image/13.jpg", "reverse_intensifies_path": "", "reverse_path": "", "source_platform": 0, "stable": null, "type": "photo", "video_algorithm": {"algorithms": [], "path": "", "time_range": null}, "width": 1920}, {"audio_fade": null, "cartoon_path": "", "category_id": "", "category_name": "local", "check_flag": 30719, "crop": {"lower_left_x": 0.0, "lower_left_y": 1.0, "lower_right_x": 1.0, "lower_right_y": 1.0, "upper_left_x": 0.0, "upper_left_y": 0.0, "upper_right_x": 1.0, "upper_right_y": 0.0}, "crop_ratio": "free", "crop_scale": 1.0, "duration": 10800000000, "extra_type_option": 0, "formula_id": "", "gameplay": null, "has_audio": false, "height": 1080, "id": "videos-14", "intensifies_audio_path": "", "intensifies_path": "", "is_unified_beauty_mode": false, "material_id": "", "material_name": "14.jpg", "material_url": "", "matting": {"flag": 0, "interactiveTime": [], "path": ""}, "path": "F:/PythonWorkProject/07.\u65b0\u5a92\u4f53\u5185\u5bb9\u521b\u4f5c/02.AI\u89c6\u9891\u521b\u4f5c/\uff08\u6a2a\u7248\uff09\u5934\u6761\u56fe\u6587\u8f6c\u89c6\u9891\u8f6c\u6362/image/14.jpg", "reverse_intensifies_path": "", "reverse_path": "", "source_platform": 0, "stable": null, "type": "photo", "video_algorithm": {"algorithms": [], "path": "", "time_range": null}, "width": 1920}, {"audio_fade": null, "cartoon_path": "", "category_id": "", "category_name": "local", "check_flag": 30719, "crop": {"lower_left_x": 0.0, "lower_left_y": 1.0, "lower_right_x": 1.0, "lower_right_y": 1.0, "upper_left_x": 0.0, "upper_left_y": 0.0, "upper_right_x": 1.0, "upper_right_y": 0.0}, "crop_ratio": "free", "crop_scale": 1.0, "duration": 10800000000, "extra_type_option": 0, "formula_id": "", "gameplay": null, "has_audio": false, "height": 1080, "id": "videos-15", "intensifies_audio_path": "", "intensifies_path": "", "is_unified_beauty_mode": false, "material_id": "", "material_name": "15.jpg", "material_url": "", "matting": {"flag": 0, "interactiveTime": [], "path": ""}, "path": "F:/PythonWorkProject/07.\u65b0\u5a92\u4f53\u5185\u5bb9\u521b\u4f5c/02.AI\u89c6\u9891\u521b\u4f5c/\uff08\u6a2a\u7248\uff09\u5934\u6761\u56fe\u6587\u8f6c\u89c6\u9891\u8f6c\u6362/image/15.jpg", "reverse_intensifies_path": "", "reverse_path": "", "source_platform": 0, "stable": null, "type": "photo", "video_algorithm": {"algorithms": [], "path": "", "time_range": null}, "width": 1920}, {"audio_fade": null, "cartoon_path": "", "category_id": "", "category_name": "local", "check_flag": 30719, "crop": {"lower_left_x": 0.0, "lower_left_y": 1.0, "lower_right_x": 1.0, "lower_right_y": 1.0, "upper_left_x": 0.0, "upper_left_y": 0.0, "upper_right_x": 1.0, "upper_right_y": 0.0}, "crop_ratio": "free", "crop_scale": 1.0, "duration": 10800000000, "extra_type_option": 0, "formula_id": "", "gameplay": null, "has_audio": false, "height": 1080, "id": "videos-16", "intensifies_audio_path": "", "intensifies_path": "", "is_unified_beauty_mode": false, "material_id": "", "material_name": "16.jpg", "material_url": "", "matting": {"flag": 0, "interactiveTime": [], "path": ""}, "path": "F:/PythonWorkProject/07.\u65b0\u5a92\u4f53\u5185\u5bb9\u521b\u4f5c/02.AI\u89c6\u9891\u521b\u4f5c/\uff08\u6a2a\u7248\uff09\u5934\u6761\u56fe\u6587\u8f6c\u89c6\u9891\u8f6c\u6362/image/16.jpg", "reverse_intensifies_path": "", "reverse_path": "", "source_platform": 0, "stable": null, "type": "photo", "video_algorithm": {"algorithms": [], "path": "", "time_range": null}, "width": 1920}, {"audio_fade": null, "cartoon_path": "", "category_id": "", "category_name": "local", "check_flag": 30719, "crop": {"lower_left_x": 0.0, "lower_left_y": 1.0, "lower_right_x": 1.0, "lower_right_y": 1.0, "upper_left_x": 0.0, "upper_left_y": 0.0, "upper_right_x": 1.0, "upper_right_y": 0.0}, "crop_ratio": "free", "crop_scale": 1.0, "duration": 10800000000, "extra_type_option": 0, "formula_id": "", "gameplay": null, "has_audio": false, "height": 1080, "id": "videos-17", "intensifies_audio_path": "", "intensifies_path": "", "is_unified_beauty_mode": false, "material_id": "", "material_name": "17.jpg", "material_url": "", "matting": {"flag": 0, "interactiveTime": [], "path": ""}, "path": "F:/PythonWorkProject/07.\u65b0\u5a92\u4f53\u5185\u5bb9\u521b\u4f5c/02.AI\u89c6\u9891\u521b\u4f5c/\uff08\u6a2a\u7248\uff09\u5934\u6761\u56fe\u6587\u8f6c\u89c6\u9891\u8f6c\u6362/image/17.jpg", "reverse_intensifies_path": "", "reverse_path": "", "source_platform": 0, "stable": null, "type": "photo", "video_algorithm": {"algorithms": [], "path": "", "time_range": null}, "width": 1920}, {"audio_fade": null, "cartoon_path": "", "category_id": "", "category_name": "local", "check_flag": 30719, "crop": {"lower_left_x": 0.0, "lower_left_y": 1.0, "lower_right_x": 1.0, "lower_right_y": 1.0, "upper_left_x": 0.0, "upper_left_y": 0.0, "upper_right_x": 1.0, "upper_right_y": 0.0}, "crop_ratio": "free", "crop_scale": 1.0, "duration": 10800000000, "extra_type_option": 0, "formula_id": "", "gameplay": null, "has_audio": false, "height": 1080, "id": "videos-18", "intensifies_audio_path": "", "intensifies_path": "", "is_unified_beauty_mode": false, "material_id": "", "material_name": "18.jpg", "material_url": "", "matting": {"flag": 0, "interactiveTime": [], "path": ""}, "path": "F:/PythonWorkProject/07.\u65b0\u5a92\u4f53\u5185\u5bb9\u521b\u4f5c/02.AI\u89c6\u9891\u521b\u4f5c/\uff08\u6a2a\u7248\uff09\u5934\u6761\u56fe\u6587\u8f6c\u89c6\u9891\u8f6c\u6362/image/18.jpg", "reverse_intensifies_path": "", "reverse_path": "", "source_platform": 0, "stable": null, "type": "photo", "video_algorithm": {"algorithms": [], "path": "", "time_range": null}, "width": 1920}, {"audio_fade": null, "cartoon_path": "", "category_id": "", "category_name": "local", "check_flag": 30719, "crop": {"lower_left_x": 0.0, "lower_left_y": 1.0, "lower_right_x": 1.0, "lower_right_y": 1.0, "upper_left_x": 0.0, "upper_left_y": 0.0, "upper_right_x": 1.0, "upper_right_y": 0.0}, "crop_ratio": "free", "crop_scale": 1.0, "duration": 10800000000, "extra_type_option": 0, "formula_id": "", "gameplay": null, "has_audio": false, "height": 1080, "id": "videos-19", "intensifies_audio_path": "", "intensifies_path": "", "is_unified_beauty_mode": false, "material_id": "", "material_name": "19.jpg", "material_url": "", "matting": {"flag": 0, "interactiveTime": [], "path": ""}, "path": "F:/PythonWorkProject/07.\u65b0\u5a92\u4f53\u5185\u5bb9\u521b\u4f5c/02.AI\u89c6\u9891\u521b\u4f5c/\uff08\u6a2a\u7248\uff09\u5934\u6761\u56fe\u6587\u8f6c\u89c6\u9891\u8f6c\u6362/image/19.jpg", "reverse_intensifies_path": "", "reverse_path": "", "source_platform": 0, "stable": null, "type": "photo", "video_algorithm": {"algorithms": [], "path": "", "time_range": null}, "width": 1920}, {"audio_fade": null, "cartoon_path": "", "category_id": "", "category_name": "local", "check_flag": 30719, "crop": {"lower_left_x": 0.0, "lower_left_y": 1.0, "lower_right_x": 1.0, "lower_right_y": 1.0, "upper_left_x": 0.0, "upper_left_y": 0.0, "upper_right_x": 1.0, "upper_right_y": 0.0}, "crop_ratio": "free", "crop_scale": 1.0, "duration": 10800000000, "extra_type_option": 0, "formula_id": "", "gameplay": null, "has_audio": false, "height": 1080, "id": "videos-20", "intensifies_audio_path": "", "intensifies_path": "", "is_unified_beauty_mode": false, "material_id": "", "material_name": "20.jpg", "material_url": "", "matting": {"flag": 0, "interactiveTime": [], "path": ""}, "path": "F:/PythonWorkProject/07.\u65b0\u5a92\u4f53\u5185\u5bb9\u521b\u4f5c/02.AI\u89c6\u9891\u521b\u4f5c/\uff08\u6a2a\u7248\uff09\u5934\u6761\u56fe\u6587\u8f6c\u89c6\u9891\u8f6c\u6362/image/20.jpg", "reverse_intensifies_path": "", "reverse_path": "", "source_platform": 0, "stable": null, "type": "photo", "video_algorithm": {"algorithms": [], "path": "", "time_range": null}, "width": 1920}, {"audio_fade": null, "cartoon_path": "", "category_id": "", "category_name": "local", "check_flag": 30719, "crop": {"lower_left_x": 0.0, "lower_left_y": 1.0, "lower_right_x": 1.0, "lower_right_y": 1.0, "upper_left_x": 0.0, "upper_left_y": 0.0, "upper_right_x": 1.0, "upper_right_y": 0.0}, "crop_ratio": "free", "crop_scale": 1.0, "duration": 10800000000, "extra_type_option": 0, "formula_id": "", "gameplay": null, "has_audio": false, "height": 1080, "id": "videos-21", "intensifies_audio_path": "", "intensifies_path": "", "is_unified_beauty_mode": false, "material_id": "", "material_name": "21.jpg", "material_url": "", "matting": {"flag": 0, "interactiveTime": [], "path": ""}, "path": "F:/PythonWorkProject/07.\u65b0\u5a92\u4f53\u5185\u5bb9\u521b\u4f5c/02.AI\u89c6\u9891\u521b\u4f5c/\uff08\u6a2a\u7248\uff09\u5934\u6761\u56fe\u6587\u8f6c\u89c6\u9891\u8f6c\u6362/image/21.jpg", "reverse_intensifies_path": "", "reverse_path": "", "source_platform": 0, "stable": null, "type": "photo", "video_algorithm": {"algorithms": [], "path": "", "time_range": null}, "width": 1920}, {"audio_fade": null, "cartoon_path": "", "category_id": "", "category_name": "local", "check_flag": 30719, "crop": {"lower_left_x": 0.0, "lower_left_y": 1.0, "lower_right_x": 1.0, "lower_right_y": 1.0, "upper_left_x": 0.0, "upper_left_y": 0.0, "upper_right_x": 1.0, "upper_right_y": 0.0}, "crop_ratio": "free", "crop_scale": 1.0, "duration": 10800000000, "extra_type_option": 0, "formula_id": "", "gameplay": null, "has_audio": false, "height": 1080, "id": "videos-22", "intensifies_audio_path": "", "intensifies_path": "", "is_unified_beauty_mode": false, "material_id": "", "material_name": "22.jpg", "material_url": "", "matting": {"flag": 0, "interactiveTime": [], "path": ""}, "path": "F:/PythonWorkProject/07.\u65b0\u5a92\u4f53\u5185\u5bb9\u521b\u4f5c/02.AI\u89c6\u9891\u521b\u4f5c/\uff08\u6a2a\u7248\uff09\u5934\u6761\u56fe\u6587\u8f6c\u89c6\u9891\u8f6c\u6362/image/22.jpg", "reverse_intensifies_path": "", "reverse_path": "", "source_platform": 0, "stable": null, "type": "photo", "video_algorithm": {"algorithms": [], "path": "", "time_range": null}, "width": 1920}, {"audio_fade": null, "cartoon_path": "", "category_id": "", "category_name": "local", "check_flag": 30719, "crop": {"lower_left_x": 0.0, "lower_left_y": 1.0, "lower_right_x": 1.0, "lower_right_y": 1.0, "upper_left_x": 0.0, "upper_left_y": 0.0, "upper_right_x": 1.0, "upper_right_y": 0.0}, "crop_ratio": "free", "crop_scale": 1.0, "duration": 10800000000, "extra_type_option": 0, "formula_id": "", "gameplay": null, "has_audio": false, "height": 1080, "id": "videos-23", "intensifies_audio_path": "", "intensifies_path": "", "is_unified_beauty_mode": false, "material_id": "", "material_name": "23.jpg", "material_url": "", "matting": {"flag": 0, "interactiveTime": [], "path": ""}, "path": "F:/PythonWorkProject/07.\u65b0\u5a92\u4f53\u5185\u5bb9\u521b\u4f5c/02.AI\u89c6\u9891\u521b\u4f5c/\uff08\u6a2a\u7248\uff09\u5934\u6761\u56fe\u6587\u8f6c\u89c6\u9891\u8f6c\u6362/image/23.jpg", "reverse_intensifies_path": "", "reverse_path": "", "source_platform": 0, "stable": null, "type": "photo", "video_algorithm": {"algorithms": [], "path": "", "time_range": null}, "width": 1920}, {"audio_fade": null, "cartoon_path": "", "category_id": "", "category_name": "local", "check_flag": 30719, "crop": {"lower_left_x": 0.0, "lower_left_y": 1.0, "lower_right_x": 1.0, "lower_right_y": 1.0, "upper_left_x": 0.0, "upper_left_y": 0.0, "upper_right_x": 1.0, "upper_right_y": 0.0}, "crop_ratio": "free", "crop_scale": 1.0, "duration": 10800000000, "extra_type_option": 0, "formula_id": "", "gameplay": null, "has_audio": false, "height": 1080, "id": "videos-24", "intensifies_audio_path": "", "intensifies_path": "", "is_unified_beauty_mode": false, "material_id": "", "material_name": "24.jpg", "material_url": "", "matting": {"flag": 0, "interactiveTime": [], "path": ""}, "path": "F:/PythonWorkProject/07.\u65b0\u5a92\u4f53\u5185\u5bb9\u521b\u4f5c/02.AI\u89c6\u9891\u521b\u4f5c/\uff08\u6a2a\u7248\uff09\u5934\u6761\u56fe\u6587\u8f6c\u89c6\u9891\u8f6c\u6362/image/24.jpg", "reverse_intensifies_path": "", "reverse_path": "", "source_platform": 0, "stable": null, "type": "photo", "video_algorithm": {"algorithms": [], "path": "", "time_range": null}, "width": 1920}, {"audio_fade": null, "cartoon_path": "", "category_id": "", "category_name": "local", "check_flag": 30719, "crop": {"lower_left_x": 0.0, "lower_left_y": 1.0, "lower_right_x": 1.0, "lower_right_y": 1.0, "upper_left_x": 0.0, "upper_left_y": 0.0, "upper_right_x": 1.0, "upper_right_y": 0.0}, "crop_ratio": "free", "crop_scale": 1.0, "duration": 10800000000, "extra_type_option": 0, "formula_id": "", "gameplay": null, "has_audio": false, "height": 1080, "id": "videos-25", "intensifies_audio_path": "", "intensifies_path": "", "is_unified_beauty_mode": false, "material_id": "", "material_name": "25.jpg", "material_url": "", "matting": {"flag": 0, "interactiveTime": [], "path": ""}, "path": "F:/PythonWorkProject/07.\u65b0\u5a92\u4f53\u5185\u5bb9\u521b\u4f5c/02.AI\u89c6\u9891\u521b\u4f5c/\uff08\u6a2a\u7248\uff09\u5934\u6761\u56fe\u6587\u8f6c\u89c6\u9891\u8f6c\u6362/image/25.jpg", "reverse_intensifies_path": "", "reverse_path": "", "source_platform": 0, "stable": null, "type": "photo", "video_algorithm": {"algorithms": [], "path": "", "time_range": null}, "width": 1920}, {"audio_fade": null, "cartoon_path": "", "category_id": "", "category_name": "local", "check_flag": 30719, "crop": {"lower_left_x": 0.0, "lower_left_y": 1.0, "lower_right_x": 1.0, "lower_right_y": 1.0, "upper_left_x": 0.0, "upper_left_y": 0.0, "upper_right_x": 1.0, "upper_right_y": 0.0}, "crop_ratio": "free", "crop_scale": 1.0, "duration": 10800000000, "extra_type_option": 0, "formula_id": "", "gameplay": null, "has_audio": false, "height": 1080, "id": "videos-26", "intensifies_audio_path": "", "intensifies_path": "", "is_unified_beauty_mode": false, "material_id": "", "material_name": "26.jpg", "material_url": "", "matting": {"flag": 0, "interactiveTime": [], "path": ""}, "path": "F:/PythonWorkProject/07.\u65b0\u5a92\u4f53\u5185\u5bb9\u521b\u4f5c/02.AI\u89c6\u9891\u521b\u4f5c/\uff08\u6a2a\u7248\uff09\u5934\u6761\u56fe\u6587\u8f6c\u89c6\u9891\u8f6c\u6362/image/26.jpg", "reverse_intensifies_path": "", "reverse_path": "", "source_platform": 0, "stable": null, "type": "photo", "video_algorithm": {"algorithms": [], "path": "", "time_range": null}, "width": 1920}, {"audio_fade": null, "cartoon_path": "", "category_id": "", "category_name": "local", "check_flag": 30719, "crop": {"lower_left_x": 0.0, "lower_left_y": 1.0, "lower_right_x": 1.0, "lower_right_y": 1.0, "upper_left_x": 0.0, "upper_left_y": 0.0, "upper_right_x": 1.0, "upper_right_y": 0.0}, "crop_ratio": "free", "crop_scale": 1.0, "duration": 10800000000, "extra_type_option": 0, "formula_id": "", "gameplay": null, "has_audio": false, "height": 1080, "id": "videos-27", "intensifies_audio_path": "", "intensifies_path": "", "is_unified_beauty_mode": false, "material_id": "", "material_name": "27.jpg", "material_url": "", "matting": {"flag": 0, "interactiveTime": [], "path": ""}, "path": "F:/PythonWorkProject/07.\u65b0\u5a92\u4f53\u5185\u5bb9\u521b\u4f5c/02.AI\u89c6\u9891\u521b\u4f5c/\uff08\u6a2a\u7248\uff09\u5934\u6761\u56fe\u6587\u8f6c\u89c6\u9891\u8f6c\u6362/image/27.jpg", "reverse_intensifies_path": "", "reverse_path": "", "source_platform": 0, "stable": null, "type": "photo", "video_algorithm": {"algorithms": [], "path": "", "time_range": null}, "width": 1920}, {"audio_fade": null, "cartoon_path": "", "category_id": "", "category_name": "local", "check_flag": 30719, "crop": {"lower_left_x": 0.0, "lower_left_y": 1.0, "lower_right_x": 1.0, "lower_right_y": 1.0, "upper_left_x": 0.0, "upper_left_y": 0.0, "upper_right_x": 1.0, "upper_right_y": 0.0}, "crop_ratio": "free", "crop_scale": 1.0, "duration": 10800000000, "extra_type_option": 0, "formula_id": "", "gameplay": null, "has_audio": false, "height": 1080, "id": "videos-28", "intensifies_audio_path": "", "intensifies_path": "", "is_unified_beauty_mode": false, "material_id": "", "material_name": "28.jpg", "material_url": "", "matting": {"flag": 0, "interactiveTime": [], "path": ""}, "path": "F:/PythonWorkProject/07.\u65b0\u5a92\u4f53\u5185\u5bb9\u521b\u4f5c/02.AI\u89c6\u9891\u521b\u4f5c/\uff08\u6a2a\u7248\uff09\u5934\u6761\u56fe\u6587\u8f6c\u89c6\u9891\u8f6c\u6362/image/28.jpg", "reverse_intensifies_path": "", "reverse_path": "", "source_platform": 0, "stable": null, "type": "photo", "video_algorithm": {"algorithms": [], "path": "", "time_range": null}, "width": 1920}, {"audio_fade": null, "cartoon_path": "", "category_id": "", "category_name": "local", "check_flag": 30719, "crop": {"lower_left_x": 0.0, "lower_left_y": 1.0, "lower_right_x": 1.0, "lower_right_y": 1.0, "upper_left_x": 0.0, "upper_left_y": 0.0, "upper_right_x": 1.0, "upper_right_y": 0.0}, "crop_ratio": "free", "crop_scale": 1.0, "duration": 10800000000, "extra_type_option": 0, "formula_id": "", "gameplay": null, "has_audio": false, "height": 1080, "id": "videos-29", "intensifies_audio_path": "", "intensifies_path": "", "is_unified_beauty_mode": false, "material_id": "", "material_name": "29.jpg", "material_url": "", "matting": {"flag": 0, "interactiveTime": [], "path": ""}, "path": "F:/PythonWorkProject/07.\u65b0\u5a92\u4f53\u5185\u5bb9\u521b\u4f5c/02.AI\u89c6\u9891\u521b\u4f5c/\uff08\u6a2a\u7248\uff09\u5934\u6761\u56fe\u6587\u8f6c\u89c6\u9891\u8f6c\u6362/image/29.jpg", "reverse_intensifies_path": "", "reverse_path": "", "source_platform": 0, "stable": null, "type": "photo", "video_algorithm": {"algorithms": [], "path": "", "time_range": null}, "width": 1920}, {"audio_fade": null, "cartoon_path": "", "category_id": "", "category_name": "local", "check_flag": 30719, "crop": {"lower_left_x": 0.0, "lower_left_y": 1.0, "lower_right_x": 1.0, "lower_right_y": 1.0, "upper_left_x": 0.0, "upper_left_y": 0.0, "upper_right_x": 1.0, "upper_right_y": 0.0}, "crop_ratio": "free", "crop_scale": 1.0, "duration": 10800000000, "extra_type_option": 0, "formula_id": "", "gameplay": null, "has_audio": false, "height": 1080, "id": "videos-30", "intensifies_audio_path": "", "intensifies_path": "", "is_unified_beauty_mode": false, "material_id": "", "material_name": "30.jpg", "material_url": "", "matting": {"flag": 0, "interactiveTime": [], "path": ""}, "path": "F:/PythonWorkProject/07.\u65b0\u5a92\u4f53\u5185\u5bb9\u521b\u4f5c/02.AI\u89c6\u9891\u521b\u4f5c/\uff08\u6a2a\u7248\uff09\u5934\u6761\u56fe\u6587\u8f6c\u89c6\u9891\u8f6c\u6362/image/30.jpg", "reverse_intensifies_path": "", "reverse_path": "", "source_platform": 0, "stable": null, "type": "photo", "video_algorithm": {"algorithms": [], "path": "", "time_range": null}, "width": 1920}, {"audio_fade": null, "cartoon_path": "", "category_id": "", "category_name": "local", "check_flag": 30719, "crop": {"lower_left_x": 0.0, "lower_left_y": 1.0, "lower_right_x": 1.0, "lower_right_y": 1.0, "upper_left_x": 0.0, "upper_left_y": 0.0, "upper_right_x": 1.0, "upper_right_y": 0.0}, "crop_ratio": "free", "crop_scale": 1.0, "duration": 10800000000, "extra_type_option": 0, "formula_id": "", "gameplay": null, "has_audio": false, "height": 1080, "id": "videos-31", "intensifies_audio_path": "", "intensifies_path": "", "is_unified_beauty_mode": false, "material_id": "", "material_name": "31.jpg", "material_url": "", "matting": {"flag": 0, "interactiveTime": [], "path": ""}, "path": "F:/PythonWorkProject/07.\u65b0\u5a92\u4f53\u5185\u5bb9\u521b\u4f5c/02.AI\u89c6\u9891\u521b\u4f5c/\uff08\u6a2a\u7248\uff09\u5934\u6761\u56fe\u6587\u8f6c\u89c6\u9891\u8f6c\u6362/image/31.jpg", "reverse_intensifies_path": "", "reverse_path": "", "source_platform": 0, "stable": null, "type": "photo", "video_algorithm": {"algorithms": [], "path": "", "time_range": null}, "width": 1920}, {"audio_fade": null, "cartoon_path": "", "category_id": "", "category_name": "local", "check_flag": 30719, "crop": {"lower_left_x": 0.0, "lower_left_y": 1.0, "lower_right_x": 1.0, "lower_right_y": 1.0, "upper_left_x": 0.0, "upper_left_y": 0.0, "upper_right_x": 1.0, "upper_right_y": 0.0}, "crop_ratio": "free", "crop_scale": 1.0, "duration": 10800000000, "extra_type_option": 0, "formula_id": "", "gameplay": null, "has_audio": false, "height": 1080, "id": "videos-32", "intensifies_audio_path": "", "intensifies_path": "", "is_unified_beauty_mode": false, "material_id": "", "material_name": "32.jpg", "material_url": "", "matting": {"flag": 0, "interactiveTime": [], "path": ""}, "path": "F:/PythonWorkProject/07.\u65b0\u5a92\u4f53\u5185\u5bb9\u521b\u4f5c/02.AI\u89c6\u9891\u521b\u4f5c/\uff08\u6a2a\u7248\uff09\u5934\u6761\u56fe\u6587\u8f6c\u89c6\u9891\u8f6c\u6362/image/32.jpg", "reverse_intensifies_path": "", "reverse_path": "", "source_platform": 0, "stable": null, "type": "photo", "video_algorithm": {"algorithms": [], "path": "", "time_range": null}, "width": 1920}, {"audio_fade": null, "cartoon_path": "", "category_id": "", "category_name": "local", "check_flag": 30719, "crop": {"lower_left_x": 0.0, "lower_left_y": 1.0, "lower_right_x": 1.0, "lower_right_y": 1.0, "upper_left_x": 0.0, "upper_left_y": 0.0, "upper_right_x": 1.0, "upper_right_y": 0.0}, "crop_ratio": "free", "crop_scale": 1.0, "duration": 10800000000, "extra_type_option": 0, "formula_id": "", "gameplay": null, "has_audio": false, "height": 1080, "id": "videos-33", "intensifies_audio_path": "", "intensifies_path": "", "is_unified_beauty_mode": false, "material_id": "", "material_name": "33.jpg", "material_url": "", "matting": {"flag": 0, "interactiveTime": [], "path": ""}, "path": "F:/PythonWorkProject/07.\u65b0\u5a92\u4f53\u5185\u5bb9\u521b\u4f5c/02.AI\u89c6\u9891\u521b\u4f5c/\uff08\u6a2a\u7248\uff09\u5934\u6761\u56fe\u6587\u8f6c\u89c6\u9891\u8f6c\u6362/image/33.jpg", "reverse_intensifies_path": "", "reverse_path": "", "source_platform": 0, "stable": null, "type": "photo", "video_algorithm": {"algorithms": [], "path": "", "time_range": null}, "width": 1920}, {"audio_fade": null, "cartoon_path": "", "category_id": "", "category_name": "local", "check_flag": 30719, "crop": {"lower_left_x": 0.0, "lower_left_y": 1.0, "lower_right_x": 1.0, "lower_right_y": 1.0, "upper_left_x": 0.0, "upper_left_y": 0.0, "upper_right_x": 1.0, "upper_right_y": 0.0}, "crop_ratio": "free", "crop_scale": 1.0, "duration": 10800000000, "extra_type_option": 0, "formula_id": "", "gameplay": null, "has_audio": false, "height": 1080, "id": "videos-34", "intensifies_audio_path": "", "intensifies_path": "", "is_unified_beauty_mode": false, "material_id": "", "material_name": "34.jpg", "material_url": "", "matting": {"flag": 0, "interactiveTime": [], "path": ""}, "path": "F:/PythonWorkProject/07.\u65b0\u5a92\u4f53\u5185\u5bb9\u521b\u4f5c/02.AI\u89c6\u9891\u521b\u4f5c/\uff08\u6a2a\u7248\uff09\u5934\u6761\u56fe\u6587\u8f6c\u89c6\u9891\u8f6c\u6362/image/34.jpg", "reverse_intensifies_path": "", "reverse_path": "", "source_platform": 0, "stable": null, "type": "photo", "video_algorithm": {"algorithms": [], "path": "", "time_range": null}, "width": 1920}, {"audio_fade": null, "cartoon_path": "", "category_id": "", "category_name": "local", "check_flag": 30719, "crop": {"lower_left_x": 0.0, "lower_left_y": 1.0, "lower_right_x": 1.0, "lower_right_y": 1.0, "upper_left_x": 0.0, "upper_left_y": 0.0, "upper_right_x": 1.0, "upper_right_y": 0.0}, "crop_ratio": "free", "crop_scale": 1.0, "duration": 10800000000, "extra_type_option": 0, "formula_id": "", "gameplay": null, "has_audio": false, "height": 1080, "id": "videos-35", "intensifies_audio_path": "", "intensifies_path": "", "is_unified_beauty_mode": false, "material_id": "", "material_name": "35.jpg", "material_url": "", "matting": {"flag": 0, "interactiveTime": [], "path": ""}, "path": "F:/PythonWorkProject/07.\u65b0\u5a92\u4f53\u5185\u5bb9\u521b\u4f5c/02.AI\u89c6\u9891\u521b\u4f5c/\uff08\u6a2a\u7248\uff09\u5934\u6761\u56fe\u6587\u8f6c\u89c6\u9891\u8f6c\u6362/image/35.jpg", "reverse_intensifies_path": "", "reverse_path": "", "source_platform": 0, "stable": null, "type": "photo", "video_algorithm": {"algorithms": [], "path": "", "time_range": null}, "width": 1920}, {"audio_fade": null, "cartoon_path": "", "category_id": "", "category_name": "local", "check_flag": 30719, "crop": {"lower_left_x": 0.0, "lower_left_y": 1.0, "lower_right_x": 1.0, "lower_right_y": 1.0, "upper_left_x": 0.0, "upper_left_y": 0.0, "upper_right_x": 1.0, "upper_right_y": 0.0}, "crop_ratio": "free", "crop_scale": 1.0, "duration": 10800000000, "extra_type_option": 0, "formula_id": "", "gameplay": null, "has_audio": false, "height": 1080, "id": "videos-36", "intensifies_audio_path": "", "intensifies_path": "", "is_unified_beauty_mode": false, "material_id": "", "material_name": "36.jpg", "material_url": "", "matting": {"flag": 0, "interactiveTime": [], "path": ""}, "path": "F:/PythonWorkProject/07.\u65b0\u5a92\u4f53\u5185\u5bb9\u521b\u4f5c/02.AI\u89c6\u9891\u521b\u4f5c/\uff08\u6a2a\u7248\uff09\u5934\u6761\u56fe\u6587\u8f6c\u89c6\u9891\u8f6c\u6362/image/36.jpg", "reverse_intensifies_path": "", "reverse_path": "", "source_platform": 0, "stable": null, "type": "photo", "video_algorithm": {"algorithms": [], "path": "", "time_range": null}, "width": 1920}, {"audio_fade": null, "cartoon_path": "", "category_id": "", "category_name": "local", "check_flag": 30719, "crop": {"lower_left_x": 0.0, "lower_left_y": 1.0, "lower_right_x": 1.0, "lower_right_y": 1.0, "upper_left_x": 0.0, "upper_left_y": 0.0, "upper_right_x": 1.0, "upper_right_y": 0.0}, "crop_ratio": "free", "crop_scale": 1.0, "duration": 10800000000, "extra_type_option": 0, "formula_id": "", "gameplay": null, "has_audio": false, "height": 1080, "id": "videos-37", "intensifies_audio_path": "", "intensifies_path": "", "is_unified_beauty_mode": false, "material_id": "", "material_name": "37.jpg", "material_url": "", "matting": {"flag": 0, "interactiveTime": [], "path": ""}, "path": "F:/PythonWorkProject/07.\u65b0\u5a92\u4f53\u5185\u5bb9\u521b\u4f5c/02.AI\u89c6\u9891\u521b\u4f5c/\uff08\u6a2a\u7248\uff09\u5934\u6761\u56fe\u6587\u8f6c\u89c6\u9891\u8f6c\u6362/image/37.jpg", "reverse_intensifies_path": "", "reverse_path": "", "source_platform": 0, "stable": null, "type": "photo", "video_algorithm": {"algorithms": [], "path": "", "time_range": null}, "width": 1920}, {"audio_fade": null, "cartoon_path": "", "category_id": "", "category_name": "local", "check_flag": 30719, "crop": {"lower_left_x": 0.0, "lower_left_y": 1.0, "lower_right_x": 1.0, "lower_right_y": 1.0, "upper_left_x": 0.0, "upper_left_y": 0.0, "upper_right_x": 1.0, "upper_right_y": 0.0}, "crop_ratio": "free", "crop_scale": 1.0, "duration": 10800000000, "extra_type_option": 0, "formula_id": "", "gameplay": null, "has_audio": false, "height": 1080, "id": "videos-38", "intensifies_audio_path": "", "intensifies_path": "", "is_unified_beauty_mode": false, "material_id": "", "material_name": "38.jpg", "material_url": "", "matting": {"flag": 0, "interactiveTime": [], "path": ""}, "path": "F:/PythonWorkProject/07.\u65b0\u5a92\u4f53\u5185\u5bb9\u521b\u4f5c/02.AI\u89c6\u9891\u521b\u4f5c/\uff08\u6a2a\u7248\uff09\u5934\u6761\u56fe\u6587\u8f6c\u89c6\u9891\u8f6c\u6362/image/38.jpg", "reverse_intensifies_path": "", "reverse_path": "", "source_platform": 0, "stable": null, "type": "photo", "video_algorithm": {"algorithms": [], "path": "", "time_range": null}, "width": 1920}, {"audio_fade": null, "cartoon_path": "", "category_id": "", "category_name": "local", "check_flag": 30719, "crop": {"lower_left_x": 0.0, "lower_left_y": 1.0, "lower_right_x": 1.0, "lower_right_y": 1.0, "upper_left_x": 0.0, "upper_left_y": 0.0, "upper_right_x": 1.0, "upper_right_y": 0.0}, "crop_ratio": "free", "crop_scale": 1.0, "duration": 10800000000, "extra_type_option": 0, "formula_id": "", "gameplay": null, "has_audio": false, "height": 1080, "id": "videos-39", "intensifies_audio_path": "", "intensifies_path": "", "is_unified_beauty_mode": false, "material_id": "", "material_name": "39.jpg", "material_url": "", "matting": {"flag": 0, "interactiveTime": [], "path": ""}, "path": "F:/PythonWorkProject/07.\u65b0\u5a92\u4f53\u5185\u5bb9\u521b\u4f5c/02.AI\u89c6\u9891\u521b\u4f5c/\uff08\u6a2a\u7248\uff09\u5934\u6761\u56fe\u6587\u8f6c\u89c6\u9891\u8f6c\u6362/image/39.jpg", "reverse_intensifies_path": "", "reverse_path": "", "source_platform": 0, "stable": null, "type": "photo", "video_algorithm": {"algorithms": [], "path": "", "time_range": null}, "width": 1920}, {"audio_fade": null, "cartoon_path": "", "category_id": "", "category_name": "local", "check_flag": 30719, "crop": {"lower_left_x": 0.0, "lower_left_y": 1.0, "lower_right_x": 1.0, "lower_right_y": 1.0, "upper_left_x": 0.0, "upper_left_y": 0.0, "upper_right_x": 1.0, "upper_right_y": 0.0}, "crop_ratio": "free", "crop_scale": 1.0, "duration": 10800000000, "extra_type_option": 0, "formula_id": "", "gameplay": null, "has_audio": false, "height": 1080, "id": "videos-40", "intensifies_audio_path": "", "intensifies_path": "", "is_unified_beauty_mode": false, "material_id": "", "material_name": "40.jpg", "material_url": "", "matting": {"flag": 0, "interactiveTime": [], "path": ""}, "path": "F:/PythonWorkProject/07.\u65b0\u5a92\u4f53\u5185\u5bb9\u521b\u4f5c/02.AI\u89c6\u9891\u521b\u4f5c/\uff08\u6a2a\u7248\uff09\u5934\u6761\u56fe\u6587\u8f6c\u89c6\u9891\u8f6c\u6362/image/40.jpg", "reverse_intensifies_path": "", "reverse_path": "", "source_platform": 0, "stable": null, "type": "photo", "video_algorithm": {"algorithms": [], "path": "", "time_range": null}, "width": 1920}, {"audio_fade": null, "cartoon_path": "", "category_id": "", "category_name": "local", "check_flag": 30719, "crop": {"lower_left_x": 0.0, "lower_left_y": 1.0, "lower_right_x": 1.0, "lower_right_y": 1.0, "upper_left_x": 0.0, "upper_left_y": 0.0, "upper_right_x": 1.0, "upper_right_y": 0.0}, "crop_ratio": "free", "crop_scale": 1.0, "duration": 10800000000, "extra_type_option": 0, "formula_id": "", "gameplay": null, "has_audio": false, "height": 1080, "id": "videos-41", "intensifies_audio_path": "", "intensifies_path": "", "is_unified_beauty_mode": false, "material_id": "", "material_name": "41.jpg", "material_url": "", "matting": {"flag": 0, "interactiveTime": [], "path": ""}, "path": "F:/PythonWorkProject/07.\u65b0\u5a92\u4f53\u5185\u5bb9\u521b\u4f5c/02.AI\u89c6\u9891\u521b\u4f5c/\uff08\u6a2a\u7248\uff09\u5934\u6761\u56fe\u6587\u8f6c\u89c6\u9891\u8f6c\u6362/image/41.jpg", "reverse_intensifies_path": "", "reverse_path": "", "source_platform": 0, "stable": null, "type": "photo", "video_algorithm": {"algorithms": [], "path": "", "time_range": null}, "width": 1920}, {"audio_fade": null, "cartoon_path": "", "category_id": "", "category_name": "local", "check_flag": 30719, "crop": {"lower_left_x": 0.0, "lower_left_y": 1.0, "lower_right_x": 1.0, "lower_right_y": 1.0, "upper_left_x": 0.0, "upper_left_y": 0.0, "upper_right_x": 1.0, "upper_right_y": 0.0}, "crop_ratio": "free", "crop_scale": 1.0, "duration": 10800000000, "extra_type_option": 0, "formula_id": "", "gameplay": null, "has_audio": false, "height": 1080, "id": "videos-42", "intensifies_audio_path": "", "intensifies_path": "", "is_unified_beauty_mode": false, "material_id": "", "material_name": "42.jpg", "material_url": "", "matting": {"flag": 0, "interactiveTime": [], "path": ""}, "path": "F:/PythonWorkProject/07.\u65b0\u5a92\u4f53\u5185\u5bb9\u521b\u4f5c/02.AI\u89c6\u9891\u521b\u4f5c/\uff08\u6a2a\u7248\uff09\u5934\u6761\u56fe\u6587\u8f6c\u89c6\u9891\u8f6c\u6362/image/42.jpg", "reverse_intensifies_path": "", "reverse_path": "", "source_platform": 0, "stable": null, "type": "photo", "video_algorithm": {"algorithms": [], "path": "", "time_range": null}, "width": 1920}, {"audio_fade": null, "cartoon_path": "", "category_id": "", "category_name": "local", "check_flag": 30719, "crop": {"lower_left_x": 0.0, "lower_left_y": 1.0, "lower_right_x": 1.0, "lower_right_y": 1.0, "upper_left_x": 0.0, "upper_left_y": 0.0, "upper_right_x": 1.0, "upper_right_y": 0.0}, "crop_ratio": "free", "crop_scale": 1.0, "duration": 10800000000, "extra_type_option": 0, "formula_id": "", "gameplay": null, "has_audio": false, "height": 1080, "id": "videos-43", "intensifies_audio_path": "", "intensifies_path": "", "is_unified_beauty_mode": false, "material_id": "", "material_name": "43.jpg", "material_url": "", "matting": {"flag": 0, "interactiveTime": [], "path": ""}, "path": "F:/PythonWorkProject/07.\u65b0\u5a92\u4f53\u5185\u5bb9\u521b\u4f5c/02.AI\u89c6\u9891\u521b\u4f5c/\uff08\u6a2a\u7248\uff09\u5934\u6761\u56fe\u6587\u8f6c\u89c6\u9891\u8f6c\u6362/image/43.jpg", "reverse_intensifies_path": "", "reverse_path": "", "source_platform": 0, "stable": null, "type": "photo", "video_algorithm": {"algorithms": [], "path": "", "time_range": null}, "width": 1920}, {"audio_fade": null, "cartoon_path": "", "category_id": "", "category_name": "local", "check_flag": 30719, "crop": {"lower_left_x": 0.0, "lower_left_y": 1.0, "lower_right_x": 1.0, "lower_right_y": 1.0, "upper_left_x": 0.0, "upper_left_y": 0.0, "upper_right_x": 1.0, "upper_right_y": 0.0}, "crop_ratio": "free", "crop_scale": 1.0, "duration": 10800000000, "extra_type_option": 0, "formula_id": "", "gameplay": null, "has_audio": false, "height": 1080, "id": "videos-44", "intensifies_audio_path": "", "intensifies_path": "", "is_unified_beauty_mode": false, "material_id": "", "material_name": "44.jpg", "material_url": "", "matting": {"flag": 0, "interactiveTime": [], "path": ""}, "path": "F:/PythonWorkProject/07.\u65b0\u5a92\u4f53\u5185\u5bb9\u521b\u4f5c/02.AI\u89c6\u9891\u521b\u4f5c/\uff08\u6a2a\u7248\uff09\u5934\u6761\u56fe\u6587\u8f6c\u89c6\u9891\u8f6c\u6362/image/44.jpg", "reverse_intensifies_path": "", "reverse_path": "", "source_platform": 0, "stable": null, "type": "photo", "video_algorithm": {"algorithms": [], "path": "", "time_range": null}, "width": 1920}, {"audio_fade": null, "cartoon_path": "", "category_id": "", "category_name": "local", "check_flag": 30719, "crop": {"lower_left_x": 0.0, "lower_left_y": 1.0, "lower_right_x": 1.0, "lower_right_y": 1.0, "upper_left_x": 0.0, "upper_left_y": 0.0, "upper_right_x": 1.0, "upper_right_y": 0.0}, "crop_ratio": "free", "crop_scale": 1.0, "duration": 10800000000, "extra_type_option": 0, "formula_id": "", "gameplay": null, "has_audio": false, "height": 1080, "id": "videos-45", "intensifies_audio_path": "", "intensifies_path": "", "is_unified_beauty_mode": false, "material_id": "", "material_name": "45.jpg", "material_url": "", "matting": {"flag": 0, "interactiveTime": [], "path": ""}, "path": "F:/PythonWorkProject/07.\u65b0\u5a92\u4f53\u5185\u5bb9\u521b\u4f5c/02.AI\u89c6\u9891\u521b\u4f5c/\uff08\u6a2a\u7248\uff09\u5934\u6761\u56fe\u6587\u8f6c\u89c6\u9891\u8f6c\u6362/image/45.jpg", "reverse_intensifies_path": "", "reverse_path": "", "source_platform": 0, "stable": null, "type": "photo", "video_algorithm": {"algorithms": [], "path": "", "time_range": null}, "width": 1920}, {"audio_fade": null, "cartoon_path": "", "category_id": "", "category_name": "local", "check_flag": 30719, "crop": {"lower_left_x": 0.0, "lower_left_y": 1.0, "lower_right_x": 1.0, "lower_right_y": 1.0, "upper_left_x": 0.0, "upper_left_y": 0.0, "upper_right_x": 1.0, "upper_right_y": 0.0}, "crop_ratio": "free", "crop_scale": 1.0, "duration": 10800000000, "extra_type_option": 0, "formula_id": "", "gameplay": null, "has_audio": false, "height": 1080, "id": "videos-46", "intensifies_audio_path": "", "intensifies_path": "", "is_unified_beauty_mode": false, "material_id": "", "material_name": "46.jpg", "material_url": "", "matting": {"flag": 0, "interactiveTime": [], "path": ""}, "path": "F:/PythonWorkProject/07.\u65b0\u5a92\u4f53\u5185\u5bb9\u521b\u4f5c/02.AI\u89c6\u9891\u521b\u4f5c/\uff08\u6a2a\u7248\uff09\u5934\u6761\u56fe\u6587\u8f6c\u89c6\u9891\u8f6c\u6362/image/46.jpg", "reverse_intensifies_path": "", "reverse_path": "", "source_platform": 0, "stable": null, "type": "photo", "video_algorithm": {"algorithms": [], "path": "", "time_range": null}, "width": 1920}, {"audio_fade": null, "cartoon_path": "", "category_id": "", "category_name": "local", "check_flag": 30719, "crop": {"lower_left_x": 0.0, "lower_left_y": 1.0, "lower_right_x": 1.0, "lower_right_y": 1.0, "upper_left_x": 0.0, "upper_left_y": 0.0, "upper_right_x": 1.0, "upper_right_y": 0.0}, "crop_ratio": "free", "crop_scale": 1.0, "duration": 10800000000, "extra_type_option": 0, "formula_id": "", "gameplay": null, "has_audio": false, "height": 1080, "id": "videos-47", "intensifies_audio_path": "", "intensifies_path": "", "is_unified_beauty_mode": false, "material_id": "", "material_name": "47.jpg", "material_url": "", "matting": {"flag": 0, "interactiveTime": [], "path": ""}, "path": "F:/PythonWorkProject/07.\u65b0\u5a92\u4f53\u5185\u5bb9\u521b\u4f5c/02.AI\u89c6\u9891\u521b\u4f5c/\uff08\u6a2a\u7248\uff09\u5934\u6761\u56fe\u6587\u8f6c\u89c6\u9891\u8f6c\u6362/image/47.jpg", "reverse_intensifies_path": "", "reverse_path": "", "source_platform": 0, "stable": null, "type": "photo", "video_algorithm": {"algorithms": [], "path": "", "time_range": null}, "width": 1920}, {"audio_fade": null, "cartoon_path": "", "category_id": "", "category_name": "local", "check_flag": 30719, "crop": {"lower_left_x": 0.0, "lower_left_y": 1.0, "lower_right_x": 1.0, "lower_right_y": 1.0, "upper_left_x": 0.0, "upper_left_y": 0.0, "upper_right_x": 1.0, "upper_right_y": 0.0}, "crop_ratio": "free", "crop_scale": 1.0, "duration": 10800000000, "extra_type_option": 0, "formula_id": "", "gameplay": null, "has_audio": false, "height": 1080, "id": "videos-48", "intensifies_audio_path": "", "intensifies_path": "", "is_unified_beauty_mode": false, "material_id": "", "material_name": "48.jpg", "material_url": "", "matting": {"flag": 0, "interactiveTime": [], "path": ""}, "path": "F:/PythonWorkProject/07.\u65b0\u5a92\u4f53\u5185\u5bb9\u521b\u4f5c/02.AI\u89c6\u9891\u521b\u4f5c/\uff08\u6a2a\u7248\uff09\u5934\u6761\u56fe\u6587\u8f6c\u89c6\u9891\u8f6c\u6362/image/48.jpg", "reverse_intensifies_path": "", "reverse_path": "", "source_platform": 0, "stable": null, "type": "photo", "video_algorithm": {"algorithms": [], "path": "", "time_range": null}, "width": 1920}, {"audio_fade": null, "cartoon_path": "", "category_id": "", "category_name": "local", "check_flag": 30719, "crop": {"lower_left_x": 0.0, "lower_left_y": 1.0, "lower_right_x": 1.0, "lower_right_y": 1.0, "upper_left_x": 0.0, "upper_left_y": 0.0, "upper_right_x": 1.0, "upper_right_y": 0.0}, "crop_ratio": "free", "crop_scale": 1.0, "duration": 10800000000, "extra_type_option": 0, "formula_id": "", "gameplay": null, "has_audio": false, "height": 1080, "id": "videos-49", "intensifies_audio_path": "", "intensifies_path": "", "is_unified_beauty_mode": false, "material_id": "", "material_name": "49.jpg", "material_url": "", "matting": {"flag": 0, "interactiveTime": [], "path": ""}, "path": "F:/PythonWorkProject/07.\u65b0\u5a92\u4f53\u5185\u5bb9\u521b\u4f5c/02.AI\u89c6\u9891\u521b\u4f5c/\uff08\u6a2a\u7248\uff09\u5934\u6761\u56fe\u6587\u8f6c\u89c6\u9891\u8f6c\u6362/image/49.jpg", "reverse_intensifies_path": "", "reverse_path": "", "source_platform": 0, "stable": null, "type": "photo", "video_algorithm": {"algorithms": [], "path": "", "time_range": null}, "width": 1920}]}, "mutable_config": null, "name": "", "new_version": "57.0.0", "platform": {"app_id": 3704, "app_version": "3.4.1", "os": "windows", "os_version": "10.0.19044"}, "relationships": [], "render_index_track_mode_on": false, "retouch_cover": null, "source": "default", "static_cover_image_path": "", "tracks": [{"attribute": 0, "flag": 0, "id": "53C83633-DB77-4946-A4C2-887DDED36B68", "segments": [{"cartoon": false, "clip": {"alpha": 1.0, "flip": {"horizontal": false, "vertical": false}, "rotation": 0.0, "scale": {"x": 1.0, "y": 1.0}, "transform": {"x": 0.0, "y": 0.0}}, "enable_adjust": true, "enable_color_curves": true, "enable_color_wheels": true, "enable_lut": true, "extra_material_refs": ["speeds-0", "canvases-0", "video_trackings-0"], "group_id": "", "hdr_settings": {"intensity": 1.0, "mode": 1, "nits": 1000}, "id": "tracks_0_segments-0", "intensifies_audio": false, "is_tone_modify": false, "keyframe_refs": [], "last_nonzero_volume": 1.0, "material_id": "videos-0", "render_index": 0, "reverse": false, "source_timerange": {"duration": 4179999, "start": 0}, "speed": 1.0, "target_timerange": {"duration": 4179999, "start": 0}, "track_attribute": 0, "track_render_index": 0, "visible": true, "volume": 1.0}, {"cartoon": false, "clip": {"alpha": 1.0, "flip": {"horizontal": false, "vertical": false}, "rotation": 0.0, "scale": {"x": 1.0, "y": 1.0}, "transform": {"x": 0.0, "y": 0.0}}, "enable_adjust": true, "enable_color_curves": true, "enable_color_wheels": true, "enable_lut": true, "extra_material_refs": ["speeds-1", "canvases-1", "video_trackings-1"], "group_id": "", "hdr_settings": {"intensity": 1.0, "mode": 1, "nits": 1000}, "id": "tracks_0_segments-1", "intensifies_audio": false, "is_tone_modify": false, "keyframe_refs": [], "last_nonzero_volume": 1.0, "material_id": "videos-1", "render_index": 0, "reverse": false, "source_timerange": {"duration": 2230000, "start": 0}, "speed": 1.0, "target_timerange": {"duration": 2230000, "start": 4179999}, "track_attribute": 0, "track_render_index": 0, "visible": true, "volume": 1.0}, {"cartoon": false, "clip": {"alpha": 1.0, "flip": {"horizontal": false, "vertical": false}, "rotation": 0.0, "scale": {"x": 1.0, "y": 1.0}, "transform": {"x": 0.0, "y": 0.0}}, "enable_adjust": true, "enable_color_curves": true, "enable_color_wheels": true, "enable_lut": true, "extra_material_refs": ["speeds-2", "canvases-2", "video_trackings-2"], "group_id": "", "hdr_settings": {"intensity": 1.0, "mode": 1, "nits": 1000}, "id": "tracks_0_segments-2", "intensifies_audio": false, "is_tone_modify": false, "keyframe_refs": [], "last_nonzero_volume": 1.0, "material_id": "videos-2", "render_index": 0, "reverse": false, "source_timerange": {"duration": 4820000, "start": 0}, "speed": 1.0, "target_timerange": {"duration": 4820000, "start": 6410000}, "track_attribute": 0, "track_render_index": 0, "visible": true, "volume": 1.0}, {"cartoon": false, "clip": {"alpha": 1.0, "flip": {"horizontal": false, "vertical": false}, "rotation": 0.0, "scale": {"x": 1.0, "y": 1.0}, "transform": {"x": 0.0, "y": 0.0}}, "enable_adjust": true, "enable_color_curves": true, "enable_color_wheels": true, "enable_lut": true, "extra_material_refs": ["speeds-3", "canvases-3", "video_trackings-3"], "group_id": "", "hdr_settings": {"intensity": 1.0, "mode": 1, "nits": 1000}, "id": "tracks_0_segments-3", "intensifies_audio": false, "is_tone_modify": false, "keyframe_refs": [], "last_nonzero_volume": 1.0, "material_id": "videos-3", "render_index": 0, "reverse": false, "source_timerange": {"duration": 3820000, "start": 0}, "speed": 1.0, "target_timerange": {"duration": 3820000, "start": 11230000}, "track_attribute": 0, "track_render_index": 0, "visible": true, "volume": 1.0}, {"cartoon": false, "clip": {"alpha": 1.0, "flip": {"horizontal": false, "vertical": false}, "rotation": 0.0, "scale": {"x": 1.0, "y": 1.0}, "transform": {"x": 0.0, "y": 0.0}}, "enable_adjust": true, "enable_color_curves": true, "enable_color_wheels": true, "enable_lut": true, "extra_material_refs": ["speeds-4", "canvases-4", "video_trackings-4"], "group_id": "", "hdr_settings": {"intensity": 1.0, "mode": 1, "nits": 1000}, "id": "tracks_0_segments-4", "intensifies_audio": false, "is_tone_modify": false, "keyframe_refs": [], "last_nonzero_volume": 1.0, "material_id": "videos-4", "render_index": 0, "reverse": false, "source_timerange": {"duration": 4029999, "start": 0}, "speed": 1.0, "target_timerange": {"duration": 4029999, "start": 15050000}, "track_attribute": 0, "track_render_index": 0, "visible": true, "volume": 1.0}, {"cartoon": false, "clip": {"alpha": 1.0, "flip": {"horizontal": false, "vertical": false}, "rotation": 0.0, "scale": {"x": 1.0, "y": 1.0}, "transform": {"x": 0.0, "y": 0.0}}, "enable_adjust": true, "enable_color_curves": true, "enable_color_wheels": true, "enable_lut": true, "extra_material_refs": ["speeds-5", "canvases-5", "video_trackings-5"], "group_id": "", "hdr_settings": {"intensity": 1.0, "mode": 1, "nits": 1000}, "id": "tracks_0_segments-5", "intensifies_audio": false, "is_tone_modify": false, "keyframe_refs": [], "last_nonzero_volume": 1.0, "material_id": "videos-5", "render_index": 0, "reverse": false, "source_timerange": {"duration": 5900000, "start": 0}, "speed": 1.0, "target_timerange": {"duration": 5900000, "start": 19080000}, "track_attribute": 0, "track_render_index": 0, "visible": true, "volume": 1.0}, {"cartoon": false, "clip": {"alpha": 1.0, "flip": {"horizontal": false, "vertical": false}, "rotation": 0.0, "scale": {"x": 1.0, "y": 1.0}, "transform": {"x": 0.0, "y": 0.0}}, "enable_adjust": true, "enable_color_curves": true, "enable_color_wheels": true, "enable_lut": true, "extra_material_refs": ["speeds-6", "canvases-6", "video_trackings-6"], "group_id": "", "hdr_settings": {"intensity": 1.0, "mode": 1, "nits": 1000}, "id": "tracks_0_segments-6", "intensifies_audio": false, "is_tone_modify": false, "keyframe_refs": [], "last_nonzero_volume": 1.0, "material_id": "videos-6", "render_index": 0, "reverse": false, "source_timerange": {"duration": 4359999, "start": 0}, "speed": 1.0, "target_timerange": {"duration": 4359999, "start": 24980000}, "track_attribute": 0, "track_render_index": 0, "visible": true, "volume": 1.0}, {"cartoon": false, "clip": {"alpha": 1.0, "flip": {"horizontal": false, "vertical": false}, "rotation": 0.0, "scale": {"x": 1.0, "y": 1.0}, "transform": {"x": 0.0, "y": 0.0}}, "enable_adjust": true, "enable_color_curves": true, "enable_color_wheels": true, "enable_lut": true, "extra_material_refs": ["speeds-7", "canvases-7", "video_trackings-7"], "group_id": "", "hdr_settings": {"intensity": 1.0, "mode": 1, "nits": 1000}, "id": "tracks_0_segments-7", "intensifies_audio": false, "is_tone_modify": false, "keyframe_refs": [], "last_nonzero_volume": 1.0, "material_id": "videos-7", "render_index": 0, "reverse": false, "source_timerange": {"duration": 4860000, "start": 0}, "speed": 1.0, "target_timerange": {"duration": 4860000, "start": 29340000}, "track_attribute": 0, "track_render_index": 0, "visible": true, "volume": 1.0}, {"cartoon": false, "clip": {"alpha": 1.0, "flip": {"horizontal": false, "vertical": false}, "rotation": 0.0, "scale": {"x": 1.0, "y": 1.0}, "transform": {"x": 0.0, "y": 0.0}}, "enable_adjust": true, "enable_color_curves": true, "enable_color_wheels": true, "enable_lut": true, "extra_material_refs": ["speeds-8", "canvases-8", "video_trackings-8"], "group_id": "", "hdr_settings": {"intensity": 1.0, "mode": 1, "nits": 1000}, "id": "tracks_0_segments-8", "intensifies_audio": false, "is_tone_modify": false, "keyframe_refs": [], "last_nonzero_volume": 1.0, "material_id": "videos-8", "render_index": 0, "reverse": false, "source_timerange": {"duration": 2699999, "start": 0}, "speed": 1.0, "target_timerange": {"duration": 2699999, "start": 34200000}, "track_attribute": 0, "track_render_index": 0, "visible": true, "volume": 1.0}, {"cartoon": false, "clip": {"alpha": 1.0, "flip": {"horizontal": false, "vertical": false}, "rotation": 0.0, "scale": {"x": 1.0, "y": 1.0}, "transform": {"x": 0.0, "y": 0.0}}, "enable_adjust": true, "enable_color_curves": true, "enable_color_wheels": true, "enable_lut": true, "extra_material_refs": ["speeds-9", "canvases-9", "video_trackings-9"], "group_id": "", "hdr_settings": {"intensity": 1.0, "mode": 1, "nits": 1000}, "id": "tracks_0_segments-9", "intensifies_audio": false, "is_tone_modify": false, "keyframe_refs": [], "last_nonzero_volume": 1.0, "material_id": "videos-9", "render_index": 0, "reverse": false, "source_timerange": {"duration": 3780000, "start": 0}, "speed": 1.0, "target_timerange": {"duration": 3780000, "start": 36900000}, "track_attribute": 0, "track_render_index": 0, "visible": true, "volume": 1.0}, {"cartoon": false, "clip": {"alpha": 1.0, "flip": {"horizontal": false, "vertical": false}, "rotation": 0.0, "scale": {"x": 1.0, "y": 1.0}, "transform": {"x": 0.0, "y": 0.0}}, "enable_adjust": true, "enable_color_curves": true, "enable_color_wheels": true, "enable_lut": true, "extra_material_refs": ["speeds-10", "canvases-10", "video_trackings-10"], "group_id": "", "hdr_settings": {"intensity": 1.0, "mode": 1, "nits": 1000}, "id": "tracks_0_segments-10", "intensifies_audio": false, "is_tone_modify": false, "keyframe_refs": [], "last_nonzero_volume": 1.0, "material_id": "videos-10", "render_index": 0, "reverse": false, "source_timerange": {"duration": 2450000, "start": 0}, "speed": 1.0, "target_timerange": {"duration": 2450000, "start": 40680000}, "track_attribute": 0, "track_render_index": 0, "visible": true, "volume": 1.0}, {"cartoon": false, "clip": {"alpha": 1.0, "flip": {"horizontal": false, "vertical": false}, "rotation": 0.0, "scale": {"x": 1.0, "y": 1.0}, "transform": {"x": 0.0, "y": 0.0}}, "enable_adjust": true, "enable_color_curves": true, "enable_color_wheels": true, "enable_lut": true, "extra_material_refs": ["speeds-11", "canvases-11", "video_trackings-11"], "group_id": "", "hdr_settings": {"intensity": 1.0, "mode": 1, "nits": 1000}, "id": "tracks_0_segments-11", "intensifies_audio": false, "is_tone_modify": false, "keyframe_refs": [], "last_nonzero_volume": 1.0, "material_id": "videos-11", "render_index": 0, "reverse": false, "source_timerange": {"duration": 3669999, "start": 0}, "speed": 1.0, "target_timerange": {"duration": 3669999, "start": 43130000}, "track_attribute": 0, "track_render_index": 0, "visible": true, "volume": 1.0}, {"cartoon": false, "clip": {"alpha": 1.0, "flip": {"horizontal": false, "vertical": false}, "rotation": 0.0, "scale": {"x": 1.0, "y": 1.0}, "transform": {"x": 0.0, "y": 0.0}}, "enable_adjust": true, "enable_color_curves": true, "enable_color_wheels": true, "enable_lut": true, "extra_material_refs": ["speeds-12", "canvases-12", "video_trackings-12"], "group_id": "", "hdr_settings": {"intensity": 1.0, "mode": 1, "nits": 1000}, "id": "tracks_0_segments-12", "intensifies_audio": false, "is_tone_modify": false, "keyframe_refs": [], "last_nonzero_volume": 1.0, "material_id": "videos-12", "render_index": 0, "reverse": false, "source_timerange": {"duration": 4179999, "start": 0}, "speed": 1.0, "target_timerange": {"duration": 4179999, "start": 46800000}, "track_attribute": 0, "track_render_index": 0, "visible": true, "volume": 1.0}, {"cartoon": false, "clip": {"alpha": 1.0, "flip": {"horizontal": false, "vertical": false}, "rotation": 0.0, "scale": {"x": 1.0, "y": 1.0}, "transform": {"x": 0.0, "y": 0.0}}, "enable_adjust": true, "enable_color_curves": true, "enable_color_wheels": true, "enable_lut": true, "extra_material_refs": ["speeds-13", "canvases-13", "video_trackings-13"], "group_id": "", "hdr_settings": {"intensity": 1.0, "mode": 1, "nits": 1000}, "id": "tracks_0_segments-13", "intensifies_audio": false, "is_tone_modify": false, "keyframe_refs": [], "last_nonzero_volume": 1.0, "material_id": "videos-13", "render_index": 0, "reverse": false, "source_timerange": {"duration": 4610000, "start": 0}, "speed": 1.0, "target_timerange": {"duration": 4610000, "start": 50980000}, "track_attribute": 0, "track_render_index": 0, "visible": true, "volume": 1.0}, {"cartoon": false, "clip": {"alpha": 1.0, "flip": {"horizontal": false, "vertical": false}, "rotation": 0.0, "scale": {"x": 1.0, "y": 1.0}, "transform": {"x": 0.0, "y": 0.0}}, "enable_adjust": true, "enable_color_curves": true, "enable_color_wheels": true, "enable_lut": true, "extra_material_refs": ["speeds-14", "canvases-14", "video_trackings-14"], "group_id": "", "hdr_settings": {"intensity": 1.0, "mode": 1, "nits": 1000}, "id": "tracks_0_segments-14", "intensifies_audio": false, "is_tone_modify": false, "keyframe_refs": [], "last_nonzero_volume": 1.0, "material_id": "videos-14", "render_index": 0, "reverse": false, "source_timerange": {"duration": 1579999, "start": 0}, "speed": 1.0, "target_timerange": {"duration": 1579999, "start": 55590000}, "track_attribute": 0, "track_render_index": 0, "visible": true, "volume": 1.0}, {"cartoon": false, "clip": {"alpha": 1.0, "flip": {"horizontal": false, "vertical": false}, "rotation": 0.0, "scale": {"x": 1.0, "y": 1.0}, "transform": {"x": 0.0, "y": 0.0}}, "enable_adjust": true, "enable_color_curves": true, "enable_color_wheels": true, "enable_lut": true, "extra_material_refs": ["speeds-15", "canvases-15", "video_trackings-15"], "group_id": "", "hdr_settings": {"intensity": 1.0, "mode": 1, "nits": 1000}, "id": "tracks_0_segments-15", "intensifies_audio": false, "is_tone_modify": false, "keyframe_refs": [], "last_nonzero_volume": 1.0, "material_id": "videos-15", "render_index": 0, "reverse": false, "source_timerange": {"duration": 4859999, "start": 0}, "speed": 1.0, "target_timerange": {"duration": 4859999, "start": 57170000}, "track_attribute": 0, "track_render_index": 0, "visible": true, "volume": 1.0}, {"cartoon": false, "clip": {"alpha": 1.0, "flip": {"horizontal": false, "vertical": false}, "rotation": 0.0, "scale": {"x": 1.0, "y": 1.0}, "transform": {"x": 0.0, "y": 0.0}}, "enable_adjust": true, "enable_color_curves": true, "enable_color_wheels": true, "enable_lut": true, "extra_material_refs": ["speeds-16", "canvases-16", "video_trackings-16"], "group_id": "", "hdr_settings": {"intensity": 1.0, "mode": 1, "nits": 1000}, "id": "tracks_0_segments-16", "intensifies_audio": false, "is_tone_modify": false, "keyframe_refs": [], "last_nonzero_volume": 1.0, "material_id": "videos-16", "render_index": 0, "reverse": false, "source_timerange": {"duration": 1729999, "start": 0}, "speed": 1.0, "target_timerange": {"duration": 1729999, "start": 62030000}, "track_attribute": 0, "track_render_index": 0, "visible": true, "volume": 1.0}, {"cartoon": false, "clip": {"alpha": 1.0, "flip": {"horizontal": false, "vertical": false}, "rotation": 0.0, "scale": {"x": 1.0, "y": 1.0}, "transform": {"x": 0.0, "y": 0.0}}, "enable_adjust": true, "enable_color_curves": true, "enable_color_wheels": true, "enable_lut": true, "extra_material_refs": ["speeds-17", "canvases-17", "video_trackings-17"], "group_id": "", "hdr_settings": {"intensity": 1.0, "mode": 1, "nits": 1000}, "id": "tracks_0_segments-17", "intensifies_audio": false, "is_tone_modify": false, "keyframe_refs": [], "last_nonzero_volume": 1.0, "material_id": "videos-17", "render_index": 0, "reverse": false, "source_timerange": {"duration": 1979999, "start": 0}, "speed": 1.0, "target_timerange": {"duration": 1979999, "start": 63760000}, "track_attribute": 0, "track_render_index": 0, "visible": true, "volume": 1.0}, {"cartoon": false, "clip": {"alpha": 1.0, "flip": {"horizontal": false, "vertical": false}, "rotation": 0.0, "scale": {"x": 1.0, "y": 1.0}, "transform": {"x": 0.0, "y": 0.0}}, "enable_adjust": true, "enable_color_curves": true, "enable_color_wheels": true, "enable_lut": true, "extra_material_refs": ["speeds-18", "canvases-18", "video_trackings-18"], "group_id": "", "hdr_settings": {"intensity": 1.0, "mode": 1, "nits": 1000}, "id": "tracks_0_segments-18", "intensifies_audio": false, "is_tone_modify": false, "keyframe_refs": [], "last_nonzero_volume": 1.0, "material_id": "videos-18", "render_index": 0, "reverse": false, "source_timerange": {"duration": 2200000, "start": 0}, "speed": 1.0, "target_timerange": {"duration": 2200000, "start": 65739999}, "track_attribute": 0, "track_render_index": 0, "visible": true, "volume": 1.0}, {"cartoon": false, "clip": {"alpha": 1.0, "flip": {"horizontal": false, "vertical": false}, "rotation": 0.0, "scale": {"x": 1.0, "y": 1.0}, "transform": {"x": 0.0, "y": 0.0}}, "enable_adjust": true, "enable_color_curves": true, "enable_color_wheels": true, "enable_lut": true, "extra_material_refs": ["speeds-19", "canvases-19", "video_trackings-19"], "group_id": "", "hdr_settings": {"intensity": 1.0, "mode": 1, "nits": 1000}, "id": "tracks_0_segments-19", "intensifies_audio": false, "is_tone_modify": false, "keyframe_refs": [], "last_nonzero_volume": 1.0, "material_id": "videos-19", "render_index": 0, "reverse": false, "source_timerange": {"duration": 3740000, "start": 0}, "speed": 1.0, "target_timerange": {"duration": 3740000, "start": 67940000}, "track_attribute": 0, "track_render_index": 0, "visible": true, "volume": 1.0}, {"cartoon": false, "clip": {"alpha": 1.0, "flip": {"horizontal": false, "vertical": false}, "rotation": 0.0, "scale": {"x": 1.0, "y": 1.0}, "transform": {"x": 0.0, "y": 0.0}}, "enable_adjust": true, "enable_color_curves": true, "enable_color_wheels": true, "enable_lut": true, "extra_material_refs": ["speeds-20", "canvases-20", "video_trackings-20"], "group_id": "", "hdr_settings": {"intensity": 1.0, "mode": 1, "nits": 1000}, "id": "tracks_0_segments-20", "intensifies_audio": false, "is_tone_modify": false, "keyframe_refs": [], "last_nonzero_volume": 1.0, "material_id": "videos-20", "render_index": 0, "reverse": false, "source_timerange": {"duration": 4429999, "start": 0}, "speed": 1.0, "target_timerange": {"duration": 4429999, "start": 71680000}, "track_attribute": 0, "track_render_index": 0, "visible": true, "volume": 1.0}, {"cartoon": false, "clip": {"alpha": 1.0, "flip": {"horizontal": false, "vertical": false}, "rotation": 0.0, "scale": {"x": 1.0, "y": 1.0}, "transform": {"x": 0.0, "y": 0.0}}, "enable_adjust": true, "enable_color_curves": true, "enable_color_wheels": true, "enable_lut": true, "extra_material_refs": ["speeds-21", "canvases-21", "video_trackings-21"], "group_id": "", "hdr_settings": {"intensity": 1.0, "mode": 1, "nits": 1000}, "id": "tracks_0_segments-21", "intensifies_audio": false, "is_tone_modify": false, "keyframe_refs": [], "last_nonzero_volume": 1.0, "material_id": "videos-21", "render_index": 0, "reverse": false, "source_timerange": {"duration": 2159999, "start": 0}, "speed": 1.0, "target_timerange": {"duration": 2159999, "start": 76110000}, "track_attribute": 0, "track_render_index": 0, "visible": true, "volume": 1.0}, {"cartoon": false, "clip": {"alpha": 1.0, "flip": {"horizontal": false, "vertical": false}, "rotation": 0.0, "scale": {"x": 1.0, "y": 1.0}, "transform": {"x": 0.0, "y": 0.0}}, "enable_adjust": true, "enable_color_curves": true, "enable_color_wheels": true, "enable_lut": true, "extra_material_refs": ["speeds-22", "canvases-22", "video_trackings-22"], "group_id": "", "hdr_settings": {"intensity": 1.0, "mode": 1, "nits": 1000}, "id": "tracks_0_segments-22", "intensifies_audio": false, "is_tone_modify": false, "keyframe_refs": [], "last_nonzero_volume": 1.0, "material_id": "videos-22", "render_index": 0, "reverse": false, "source_timerange": {"duration": 3820000, "start": 0}, "speed": 1.0, "target_timerange": {"duration": 3820000, "start": 78270000}, "track_attribute": 0, "track_render_index": 0, "visible": true, "volume": 1.0}, {"cartoon": false, "clip": {"alpha": 1.0, "flip": {"horizontal": false, "vertical": false}, "rotation": 0.0, "scale": {"x": 1.0, "y": 1.0}, "transform": {"x": 0.0, "y": 0.0}}, "enable_adjust": true, "enable_color_curves": true, "enable_color_wheels": true, "enable_lut": true, "extra_material_refs": ["speeds-23", "canvases-23", "video_trackings-23"], "group_id": "", "hdr_settings": {"intensity": 1.0, "mode": 1, "nits": 1000}, "id": "tracks_0_segments-23", "intensifies_audio": false, "is_tone_modify": false, "keyframe_refs": [], "last_nonzero_volume": 1.0, "material_id": "videos-23", "render_index": 0, "reverse": false, "source_timerange": {"duration": 3129999, "start": 0}, "speed": 1.0, "target_timerange": {"duration": 3129999, "start": 82090000}, "track_attribute": 0, "track_render_index": 0, "visible": true, "volume": 1.0}, {"cartoon": false, "clip": {"alpha": 1.0, "flip": {"horizontal": false, "vertical": false}, "rotation": 0.0, "scale": {"x": 1.0, "y": 1.0}, "transform": {"x": 0.0, "y": 0.0}}, "enable_adjust": true, "enable_color_curves": true, "enable_color_wheels": true, "enable_lut": true, "extra_material_refs": ["speeds-24", "canvases-24", "video_trackings-24"], "group_id": "", "hdr_settings": {"intensity": 1.0, "mode": 1, "nits": 1000}, "id": "tracks_0_segments-24", "intensifies_audio": false, "is_tone_modify": false, "keyframe_refs": [], "last_nonzero_volume": 1.0, "material_id": "videos-24", "render_index": 0, "reverse": false, "source_timerange": {"duration": 2519999, "start": 0}, "speed": 1.0, "target_timerange": {"duration": 2519999, "start": 85220000}, "track_attribute": 0, "track_render_index": 0, "visible": true, "volume": 1.0}, {"cartoon": false, "clip": {"alpha": 1.0, "flip": {"horizontal": false, "vertical": false}, "rotation": 0.0, "scale": {"x": 1.0, "y": 1.0}, "transform": {"x": 0.0, "y": 0.0}}, "enable_adjust": true, "enable_color_curves": true, "enable_color_wheels": true, "enable_lut": true, "extra_material_refs": ["speeds-25", "canvases-25", "video_trackings-25"], "group_id": "", "hdr_settings": {"intensity": 1.0, "mode": 1, "nits": 1000}, "id": "tracks_0_segments-25", "intensifies_audio": false, "is_tone_modify": false, "keyframe_refs": [], "last_nonzero_volume": 1.0, "material_id": "videos-25", "render_index": 0, "reverse": false, "source_timerange": {"duration": 4210000, "start": 0}, "speed": 1.0, "target_timerange": {"duration": 4210000, "start": 87740000}, "track_attribute": 0, "track_render_index": 0, "visible": true, "volume": 1.0}, {"cartoon": false, "clip": {"alpha": 1.0, "flip": {"horizontal": false, "vertical": false}, "rotation": 0.0, "scale": {"x": 1.0, "y": 1.0}, "transform": {"x": 0.0, "y": 0.0}}, "enable_adjust": true, "enable_color_curves": true, "enable_color_wheels": true, "enable_lut": true, "extra_material_refs": ["speeds-26", "canvases-26", "video_trackings-26"], "group_id": "", "hdr_settings": {"intensity": 1.0, "mode": 1, "nits": 1000}, "id": "tracks_0_segments-26", "intensifies_audio": false, "is_tone_modify": false, "keyframe_refs": [], "last_nonzero_volume": 1.0, "material_id": "videos-26", "render_index": 0, "reverse": false, "source_timerange": {"duration": 2700000, "start": 0}, "speed": 1.0, "target_timerange": {"duration": 2700000, "start": 91950000}, "track_attribute": 0, "track_render_index": 0, "visible": true, "volume": 1.0}, {"cartoon": false, "clip": {"alpha": 1.0, "flip": {"horizontal": false, "vertical": false}, "rotation": 0.0, "scale": {"x": 1.0, "y": 1.0}, "transform": {"x": 0.0, "y": 0.0}}, "enable_adjust": true, "enable_color_curves": true, "enable_color_wheels": true, "enable_lut": true, "extra_material_refs": ["speeds-27", "canvases-27", "video_trackings-27"], "group_id": "", "hdr_settings": {"intensity": 1.0, "mode": 1, "nits": 1000}, "id": "tracks_0_segments-27", "intensifies_audio": false, "is_tone_modify": false, "keyframe_refs": [], "last_nonzero_volume": 1.0, "material_id": "videos-27", "render_index": 0, "reverse": false, "source_timerange": {"duration": 4030000, "start": 0}, "speed": 1.0, "target_timerange": {"duration": 4030000, "start": 94650000}, "track_attribute": 0, "track_render_index": 0, "visible": true, "volume": 1.0}, {"cartoon": false, "clip": {"alpha": 1.0, "flip": {"horizontal": false, "vertical": false}, "rotation": 0.0, "scale": {"x": 1.0, "y": 1.0}, "transform": {"x": 0.0, "y": 0.0}}, "enable_adjust": true, "enable_color_curves": true, "enable_color_wheels": true, "enable_lut": true, "extra_material_refs": ["speeds-28", "canvases-28", "video_trackings-28"], "group_id": "", "hdr_settings": {"intensity": 1.0, "mode": 1, "nits": 1000}, "id": "tracks_0_segments-28", "intensifies_audio": false, "is_tone_modify": false, "keyframe_refs": [], "last_nonzero_volume": 1.0, "material_id": "videos-28", "render_index": 0, "reverse": false, "source_timerange": {"duration": 3169999, "start": 0}, "speed": 1.0, "target_timerange": {"duration": 3169999, "start": 98680000}, "track_attribute": 0, "track_render_index": 0, "visible": true, "volume": 1.0}, {"cartoon": false, "clip": {"alpha": 1.0, "flip": {"horizontal": false, "vertical": false}, "rotation": 0.0, "scale": {"x": 1.0, "y": 1.0}, "transform": {"x": 0.0, "y": 0.0}}, "enable_adjust": true, "enable_color_curves": true, "enable_color_wheels": true, "enable_lut": true, "extra_material_refs": ["speeds-29", "canvases-29", "video_trackings-29"], "group_id": "", "hdr_settings": {"intensity": 1.0, "mode": 1, "nits": 1000}, "id": "tracks_0_segments-29", "intensifies_audio": false, "is_tone_modify": false, "keyframe_refs": [], "last_nonzero_volume": 1.0, "material_id": "videos-29", "render_index": 0, "reverse": false, "source_timerange": {"duration": 3530000, "start": 0}, "speed": 1.0, "target_timerange": {"duration": 3530000, "start": 101850000}, "track_attribute": 0, "track_render_index": 0, "visible": true, "volume": 1.0}, {"cartoon": false, "clip": {"alpha": 1.0, "flip": {"horizontal": false, "vertical": false}, "rotation": 0.0, "scale": {"x": 1.0, "y": 1.0}, "transform": {"x": 0.0, "y": 0.0}}, "enable_adjust": true, "enable_color_curves": true, "enable_color_wheels": true, "enable_lut": true, "extra_material_refs": ["speeds-30", "canvases-30", "video_trackings-30"], "group_id": "", "hdr_settings": {"intensity": 1.0, "mode": 1, "nits": 1000}, "id": "tracks_0_segments-30", "intensifies_audio": false, "is_tone_modify": false, "keyframe_refs": [], "last_nonzero_volume": 1.0, "material_id": "videos-30", "render_index": 0, "reverse": false, "source_timerange": {"duration": 4500000, "start": 0}, "speed": 1.0, "target_timerange": {"duration": 4500000, "start": 105380000}, "track_attribute": 0, "track_render_index": 0, "visible": true, "volume": 1.0}, {"cartoon": false, "clip": {"alpha": 1.0, "flip": {"horizontal": false, "vertical": false}, "rotation": 0.0, "scale": {"x": 1.0, "y": 1.0}, "transform": {"x": 0.0, "y": 0.0}}, "enable_adjust": true, "enable_color_curves": true, "enable_color_wheels": true, "enable_lut": true, "extra_material_refs": ["speeds-31", "canvases-31", "video_trackings-31"], "group_id": "", "hdr_settings": {"intensity": 1.0, "mode": 1, "nits": 1000}, "id": "tracks_0_segments-31", "intensifies_audio": false, "is_tone_modify": false, "keyframe_refs": [], "last_nonzero_volume": 1.0, "material_id": "videos-31", "render_index": 0, "reverse": false, "source_timerange": {"duration": 4180000, "start": 0}, "speed": 1.0, "target_timerange": {"duration": 4180000, "start": 109880000}, "track_attribute": 0, "track_render_index": 0, "visible": true, "volume": 1.0}, {"cartoon": false, "clip": {"alpha": 1.0, "flip": {"horizontal": false, "vertical": false}, "rotation": 0.0, "scale": {"x": 1.0, "y": 1.0}, "transform": {"x": 0.0, "y": 0.0}}, "enable_adjust": true, "enable_color_curves": true, "enable_color_wheels": true, "enable_lut": true, "extra_material_refs": ["speeds-32", "canvases-32", "video_trackings-32"], "group_id": "", "hdr_settings": {"intensity": 1.0, "mode": 1, "nits": 1000}, "id": "tracks_0_segments-32", "intensifies_audio": false, "is_tone_modify": false, "keyframe_refs": [], "last_nonzero_volume": 1.0, "material_id": "videos-32", "render_index": 0, "reverse": false, "source_timerange": {"duration": 3459999, "start": 0}, "speed": 1.0, "target_timerange": {"duration": 3459999, "start": 114060000}, "track_attribute": 0, "track_render_index": 0, "visible": true, "volume": 1.0}, {"cartoon": false, "clip": {"alpha": 1.0, "flip": {"horizontal": false, "vertical": false}, "rotation": 0.0, "scale": {"x": 1.0, "y": 1.0}, "transform": {"x": 0.0, "y": 0.0}}, "enable_adjust": true, "enable_color_curves": true, "enable_color_wheels": true, "enable_lut": true, "extra_material_refs": ["speeds-33", "canvases-33", "video_trackings-33"], "group_id": "", "hdr_settings": {"intensity": 1.0, "mode": 1, "nits": 1000}, "id": "tracks_0_segments-33", "intensifies_audio": false, "is_tone_modify": false, "keyframe_refs": [], "last_nonzero_volume": 1.0, "material_id": "videos-33", "render_index": 0, "reverse": false, "source_timerange": {"duration": 1980000, "start": 0}, "speed": 1.0, "target_timerange": {"duration": 1980000, "start": 117520000}, "track_attribute": 0, "track_render_index": 0, "visible": true, "volume": 1.0}, {"cartoon": false, "clip": {"alpha": 1.0, "flip": {"horizontal": false, "vertical": false}, "rotation": 0.0, "scale": {"x": 1.0, "y": 1.0}, "transform": {"x": 0.0, "y": 0.0}}, "enable_adjust": true, "enable_color_curves": true, "enable_color_wheels": true, "enable_lut": true, "extra_material_refs": ["speeds-34", "canvases-34", "video_trackings-34"], "group_id": "", "hdr_settings": {"intensity": 1.0, "mode": 1, "nits": 1000}, "id": "tracks_0_segments-34", "intensifies_audio": false, "is_tone_modify": false, "keyframe_refs": [], "last_nonzero_volume": 1.0, "material_id": "videos-34", "render_index": 0, "reverse": false, "source_timerange": {"duration": 1980000, "start": 0}, "speed": 1.0, "target_timerange": {"duration": 1980000, "start": 119500000}, "track_attribute": 0, "track_render_index": 0, "visible": true, "volume": 1.0}, {"cartoon": false, "clip": {"alpha": 1.0, "flip": {"horizontal": false, "vertical": false}, "rotation": 0.0, "scale": {"x": 1.0, "y": 1.0}, "transform": {"x": 0.0, "y": 0.0}}, "enable_adjust": true, "enable_color_curves": true, "enable_color_wheels": true, "enable_lut": true, "extra_material_refs": ["speeds-35", "canvases-35", "video_trackings-35"], "group_id": "", "hdr_settings": {"intensity": 1.0, "mode": 1, "nits": 1000}, "id": "tracks_0_segments-35", "intensifies_audio": false, "is_tone_modify": false, "keyframe_refs": [], "last_nonzero_volume": 1.0, "material_id": "videos-35", "render_index": 0, "reverse": false, "source_timerange": {"duration": 4679999, "start": 0}, "speed": 1.0, "target_timerange": {"duration": 4679999, "start": 121480000}, "track_attribute": 0, "track_render_index": 0, "visible": true, "volume": 1.0}, {"cartoon": false, "clip": {"alpha": 1.0, "flip": {"horizontal": false, "vertical": false}, "rotation": 0.0, "scale": {"x": 1.0, "y": 1.0}, "transform": {"x": 0.0, "y": 0.0}}, "enable_adjust": true, "enable_color_curves": true, "enable_color_wheels": true, "enable_lut": true, "extra_material_refs": ["speeds-36", "canvases-36", "video_trackings-36"], "group_id": "", "hdr_settings": {"intensity": 1.0, "mode": 1, "nits": 1000}, "id": "tracks_0_segments-36", "intensifies_audio": false, "is_tone_modify": false, "keyframe_refs": [], "last_nonzero_volume": 1.0, "material_id": "videos-36", "render_index": 0, "reverse": false, "source_timerange": {"duration": 3599999, "start": 0}, "speed": 1.0, "target_timerange": {"duration": 3599999, "start": 126160000}, "track_attribute": 0, "track_render_index": 0, "visible": true, "volume": 1.0}, {"cartoon": false, "clip": {"alpha": 1.0, "flip": {"horizontal": false, "vertical": false}, "rotation": 0.0, "scale": {"x": 1.0, "y": 1.0}, "transform": {"x": 0.0, "y": 0.0}}, "enable_adjust": true, "enable_color_curves": true, "enable_color_wheels": true, "enable_lut": true, "extra_material_refs": ["speeds-37", "canvases-37", "video_trackings-37"], "group_id": "", "hdr_settings": {"intensity": 1.0, "mode": 1, "nits": 1000}, "id": "tracks_0_segments-37", "intensifies_audio": false, "is_tone_modify": false, "keyframe_refs": [], "last_nonzero_volume": 1.0, "material_id": "videos-37", "render_index": 0, "reverse": false, "source_timerange": {"duration": 3640000, "start": 0}, "speed": 1.0, "target_timerange": {"duration": 3640000, "start": 129759999}, "track_attribute": 0, "track_render_index": 0, "visible": true, "volume": 1.0}, {"cartoon": false, "clip": {"alpha": 1.0, "flip": {"horizontal": false, "vertical": false}, "rotation": 0.0, "scale": {"x": 1.0, "y": 1.0}, "transform": {"x": 0.0, "y": 0.0}}, "enable_adjust": true, "enable_color_curves": true, "enable_color_wheels": true, "enable_lut": true, "extra_material_refs": ["speeds-38", "canvases-38", "video_trackings-38"], "group_id": "", "hdr_settings": {"intensity": 1.0, "mode": 1, "nits": 1000}, "id": "tracks_0_segments-38", "intensifies_audio": false, "is_tone_modify": false, "keyframe_refs": [], "last_nonzero_volume": 1.0, "material_id": "videos-38", "render_index": 0, "reverse": false, "source_timerange": {"duration": 3169999, "start": 0}, "speed": 1.0, "target_timerange": {"duration": 3169999, "start": 133400000}, "track_attribute": 0, "track_render_index": 0, "visible": true, "volume": 1.0}, {"cartoon": false, "clip": {"alpha": 1.0, "flip": {"horizontal": false, "vertical": false}, "rotation": 0.0, "scale": {"x": 1.0, "y": 1.0}, "transform": {"x": 0.0, "y": 0.0}}, "enable_adjust": true, "enable_color_curves": true, "enable_color_wheels": true, "enable_lut": true, "extra_material_refs": ["speeds-39", "canvases-39", "video_trackings-39"], "group_id": "", "hdr_settings": {"intensity": 1.0, "mode": 1, "nits": 1000}, "id": "tracks_0_segments-39", "intensifies_audio": false, "is_tone_modify": false, "keyframe_refs": [], "last_nonzero_volume": 1.0, "material_id": "videos-39", "render_index": 0, "reverse": false, "source_timerange": {"duration": 3420000, "start": 0}, "speed": 1.0, "target_timerange": {"duration": 3420000, "start": 136570000}, "track_attribute": 0, "track_render_index": 0, "visible": true, "volume": 1.0}, {"cartoon": false, "clip": {"alpha": 1.0, "flip": {"horizontal": false, "vertical": false}, "rotation": 0.0, "scale": {"x": 1.0, "y": 1.0}, "transform": {"x": 0.0, "y": 0.0}}, "enable_adjust": true, "enable_color_curves": true, "enable_color_wheels": true, "enable_lut": true, "extra_material_refs": ["speeds-40", "canvases-40", "video_trackings-40"], "group_id": "", "hdr_settings": {"intensity": 1.0, "mode": 1, "nits": 1000}, "id": "tracks_0_segments-40", "intensifies_audio": false, "is_tone_modify": false, "keyframe_refs": [], "last_nonzero_volume": 1.0, "material_id": "videos-40", "render_index": 0, "reverse": false, "source_timerange": {"duration": 3489999, "start": 0}, "speed": 1.0, "target_timerange": {"duration": 3489999, "start": 139990000}, "track_attribute": 0, "track_render_index": 0, "visible": true, "volume": 1.0}, {"cartoon": false, "clip": {"alpha": 1.0, "flip": {"horizontal": false, "vertical": false}, "rotation": 0.0, "scale": {"x": 1.0, "y": 1.0}, "transform": {"x": 0.0, "y": 0.0}}, "enable_adjust": true, "enable_color_curves": true, "enable_color_wheels": true, "enable_lut": true, "extra_material_refs": ["speeds-41", "canvases-41", "video_trackings-41"], "group_id": "", "hdr_settings": {"intensity": 1.0, "mode": 1, "nits": 1000}, "id": "tracks_0_segments-41", "intensifies_audio": false, "is_tone_modify": false, "keyframe_refs": [], "last_nonzero_volume": 1.0, "material_id": "videos-41", "render_index": 0, "reverse": false, "source_timerange": {"duration": 2920000, "start": 0}, "speed": 1.0, "target_timerange": {"duration": 2920000, "start": 143480000}, "track_attribute": 0, "track_render_index": 0, "visible": true, "volume": 1.0}, {"cartoon": false, "clip": {"alpha": 1.0, "flip": {"horizontal": false, "vertical": false}, "rotation": 0.0, "scale": {"x": 1.0, "y": 1.0}, "transform": {"x": 0.0, "y": 0.0}}, "enable_adjust": true, "enable_color_curves": true, "enable_color_wheels": true, "enable_lut": true, "extra_material_refs": ["speeds-42", "canvases-42", "video_trackings-42"], "group_id": "", "hdr_settings": {"intensity": 1.0, "mode": 1, "nits": 1000}, "id": "tracks_0_segments-42", "intensifies_audio": false, "is_tone_modify": false, "keyframe_refs": [], "last_nonzero_volume": 1.0, "material_id": "videos-42", "render_index": 0, "reverse": false, "source_timerange": {"duration": 3919999, "start": 0}, "speed": 1.0, "target_timerange": {"duration": 3919999, "start": 146400000}, "track_attribute": 0, "track_render_index": 0, "visible": true, "volume": 1.0}, {"cartoon": false, "clip": {"alpha": 1.0, "flip": {"horizontal": false, "vertical": false}, "rotation": 0.0, "scale": {"x": 1.0, "y": 1.0}, "transform": {"x": 0.0, "y": 0.0}}, "enable_adjust": true, "enable_color_curves": true, "enable_color_wheels": true, "enable_lut": true, "extra_material_refs": ["speeds-43", "canvases-43", "video_trackings-43"], "group_id": "", "hdr_settings": {"intensity": 1.0, "mode": 1, "nits": 1000}, "id": "tracks_0_segments-43", "intensifies_audio": false, "is_tone_modify": false, "keyframe_refs": [], "last_nonzero_volume": 1.0, "material_id": "videos-43", "render_index": 0, "reverse": false, "source_timerange": {"duration": 2120000, "start": 0}, "speed": 1.0, "target_timerange": {"duration": 2120000, "start": 150320000}, "track_attribute": 0, "track_render_index": 0, "visible": true, "volume": 1.0}, {"cartoon": false, "clip": {"alpha": 1.0, "flip": {"horizontal": false, "vertical": false}, "rotation": 0.0, "scale": {"x": 1.0, "y": 1.0}, "transform": {"x": 0.0, "y": 0.0}}, "enable_adjust": true, "enable_color_curves": true, "enable_color_wheels": true, "enable_lut": true, "extra_material_refs": ["speeds-44", "canvases-44", "video_trackings-44"], "group_id": "", "hdr_settings": {"intensity": 1.0, "mode": 1, "nits": 1000}, "id": "tracks_0_segments-44", "intensifies_audio": false, "is_tone_modify": false, "keyframe_refs": [], "last_nonzero_volume": 1.0, "material_id": "videos-44", "render_index": 0, "reverse": false, "source_timerange": {"duration": 4750000, "start": 0}, "speed": 1.0, "target_timerange": {"duration": 4750000, "start": 152440000}, "track_attribute": 0, "track_render_index": 0, "visible": true, "volume": 1.0}, {"cartoon": false, "clip": {"alpha": 1.0, "flip": {"horizontal": false, "vertical": false}, "rotation": 0.0, "scale": {"x": 1.0, "y": 1.0}, "transform": {"x": 0.0, "y": 0.0}}, "enable_adjust": true, "enable_color_curves": true, "enable_color_wheels": true, "enable_lut": true, "extra_material_refs": ["speeds-45", "canvases-45", "video_trackings-45"], "group_id": "", "hdr_settings": {"intensity": 1.0, "mode": 1, "nits": 1000}, "id": "tracks_0_segments-45", "intensifies_audio": false, "is_tone_modify": false, "keyframe_refs": [], "last_nonzero_volume": 1.0, "material_id": "videos-45", "render_index": 0, "reverse": false, "source_timerange": {"duration": 4569999, "start": 0}, "speed": 1.0, "target_timerange": {"duration": 4569999, "start": 157190000}, "track_attribute": 0, "track_render_index": 0, "visible": true, "volume": 1.0}, {"cartoon": false, "clip": {"alpha": 1.0, "flip": {"horizontal": false, "vertical": false}, "rotation": 0.0, "scale": {"x": 1.0, "y": 1.0}, "transform": {"x": 0.0, "y": 0.0}}, "enable_adjust": true, "enable_color_curves": true, "enable_color_wheels": true, "enable_lut": true, "extra_material_refs": ["speeds-46", "canvases-46", "video_trackings-46"], "group_id": "", "hdr_settings": {"intensity": 1.0, "mode": 1, "nits": 1000}, "id": "tracks_0_segments-46", "intensifies_audio": false, "is_tone_modify": false, "keyframe_refs": [], "last_nonzero_volume": 1.0, "material_id": "videos-46", "render_index": 0, "reverse": false, "source_timerange": {"duration": 2700000, "start": 0}, "speed": 1.0, "target_timerange": {"duration": 2700000, "start": 161760000}, "track_attribute": 0, "track_render_index": 0, "visible": true, "volume": 1.0}, {"cartoon": false, "clip": {"alpha": 1.0, "flip": {"horizontal": false, "vertical": false}, "rotation": 0.0, "scale": {"x": 1.0, "y": 1.0}, "transform": {"x": 0.0, "y": 0.0}}, "enable_adjust": true, "enable_color_curves": true, "enable_color_wheels": true, "enable_lut": true, "extra_material_refs": ["speeds-47", "canvases-47", "video_trackings-47"], "group_id": "", "hdr_settings": {"intensity": 1.0, "mode": 1, "nits": 1000}, "id": "tracks_0_segments-47", "intensifies_audio": false, "is_tone_modify": false, "keyframe_refs": [], "last_nonzero_volume": 1.0, "material_id": "videos-47", "render_index": 0, "reverse": false, "source_timerange": {"duration": 4859999, "start": 0}, "speed": 1.0, "target_timerange": {"duration": 4859999, "start": 164460000}, "track_attribute": 0, "track_render_index": 0, "visible": true, "volume": 1.0}, {"cartoon": false, "clip": {"alpha": 1.0, "flip": {"horizontal": false, "vertical": false}, "rotation": 0.0, "scale": {"x": 1.0, "y": 1.0}, "transform": {"x": 0.0, "y": 0.0}}, "enable_adjust": true, "enable_color_curves": true, "enable_color_wheels": true, "enable_lut": true, "extra_material_refs": ["speeds-48", "canvases-48", "video_trackings-48"], "group_id": "", "hdr_settings": {"intensity": 1.0, "mode": 1, "nits": 1000}, "id": "tracks_0_segments-48", "intensifies_audio": false, "is_tone_modify": false, "keyframe_refs": [], "last_nonzero_volume": 1.0, "material_id": "videos-48", "render_index": 0, "reverse": false, "source_timerange": {"duration": 4099999, "start": 0}, "speed": 1.0, "target_timerange": {"duration": 4099999, "start": 169320000}, "track_attribute": 0, "track_render_index": 0, "visible": true, "volume": 1.0}, {"cartoon": false, "clip": {"alpha": 1.0, "flip": {"horizontal": false, "vertical": false}, "rotation": 0.0, "scale": {"x": 1.0, "y": 1.0}, "transform": {"x": 0.0, "y": 0.0}}, "enable_adjust": true, "enable_color_curves": true, "enable_color_wheels": true, "enable_lut": true, "extra_material_refs": ["speeds-49", "canvases-49", "video_trackings-49"], "group_id": "", "hdr_settings": {"intensity": 1.0, "mode": 1, "nits": 1000}, "id": "tracks_0_segments-49", "intensifies_audio": false, "is_tone_modify": false, "keyframe_refs": [], "last_nonzero_volume": 1.0, "material_id": "videos-49", "render_index": 0, "reverse": false, "source_timerange": {"duration": 2090000, "start": 0}, "speed": 1.0, "target_timerange": {"duration": 2090000, "start": 173420000}, "track_attribute": 0, "track_render_index": 0, "visible": true, "volume": 1.0}], "type": "video"}, {"attribute": 0, "flag": 0, "id": "E7D66262-4E8B-41dc-B4B1-EAC15A030D42", "segments": [{"cartoon": false, "clip": {"alpha": 1.0, "flip": {"horizontal": false, "vertical": false}, "rotation": 0.0, "scale": {"x": 0.7322295026571091, "y": 0.7322295026571091}, "transform": {"x": 0.0, "y": -0.8020681595802306}}, "enable_adjust": false, "enable_color_curves": true, "enable_color_wheels": true, "enable_lut": false, "extra_material_refs": ["material_animations-0"], "group_id": "", "hdr_settings": null, "id": "tracks_1_segments-0", "intensifies_audio": false, "is_tone_modify": false, "keyframe_refs": [], "last_nonzero_volume": 1.0, "material_id": "texts-0", "render_index": 14000, "reverse": false, "source_timerange": null, "speed": 1.0, "target_timerange": {"duration": 4179999, "start": 0}, "track_attribute": 0, "track_render_index": 0, "visible": true, "volume": 1.0}, {"cartoon": false, "clip": {"alpha": 1.0, "flip": {"horizontal": false, "vertical": false}, "rotation": 0.0, "scale": {"x": 0.7322295026571091, "y": 0.7322295026571091}, "transform": {"x": 0.0, "y": -0.8020681595802306}}, "enable_adjust": false, "enable_color_curves": true, "enable_color_wheels": true, "enable_lut": false, "extra_material_refs": ["material_animations-1"], "group_id": "", "hdr_settings": null, "id": "tracks_1_segments-1", "intensifies_audio": false, "is_tone_modify": false, "keyframe_refs": [], "last_nonzero_volume": 1.0, "material_id": "texts-1", "render_index": 14000, "reverse": false, "source_timerange": null, "speed": 1.0, "target_timerange": {"duration": 2230000, "start": 4179999}, "track_attribute": 0, "track_render_index": 0, "visible": true, "volume": 1.0}, {"cartoon": false, "clip": {"alpha": 1.0, "flip": {"horizontal": false, "vertical": false}, "rotation": 0.0, "scale": {"x": 0.7322295026571091, "y": 0.7322295026571091}, "transform": {"x": 0.0, "y": -0.8020681595802306}}, "enable_adjust": false, "enable_color_curves": true, "enable_color_wheels": true, "enable_lut": false, "extra_material_refs": ["material_animations-2"], "group_id": "", "hdr_settings": null, "id": "tracks_1_segments-2", "intensifies_audio": false, "is_tone_modify": false, "keyframe_refs": [], "last_nonzero_volume": 1.0, "material_id": "texts-2", "render_index": 14000, "reverse": false, "source_timerange": null, "speed": 1.0, "target_timerange": {"duration": 4820000, "start": 6410000}, "track_attribute": 0, "track_render_index": 0, "visible": true, "volume": 1.0}, {"cartoon": false, "clip": {"alpha": 1.0, "flip": {"horizontal": false, "vertical": false}, "rotation": 0.0, "scale": {"x": 0.7322295026571091, "y": 0.7322295026571091}, "transform": {"x": 0.0, "y": -0.8020681595802306}}, "enable_adjust": false, "enable_color_curves": true, "enable_color_wheels": true, "enable_lut": false, "extra_material_refs": ["material_animations-3"], "group_id": "", "hdr_settings": null, "id": "tracks_1_segments-3", "intensifies_audio": false, "is_tone_modify": false, "keyframe_refs": [], "last_nonzero_volume": 1.0, "material_id": "texts-3", "render_index": 14000, "reverse": false, "source_timerange": null, "speed": 1.0, "target_timerange": {"duration": 3820000, "start": 11230000}, "track_attribute": 0, "track_render_index": 0, "visible": true, "volume": 1.0}, {"cartoon": false, "clip": {"alpha": 1.0, "flip": {"horizontal": false, "vertical": false}, "rotation": 0.0, "scale": {"x": 0.7322295026571091, "y": 0.7322295026571091}, "transform": {"x": 0.0, "y": -0.8020681595802306}}, "enable_adjust": false, "enable_color_curves": true, "enable_color_wheels": true, "enable_lut": false, "extra_material_refs": ["material_animations-4"], "group_id": "", "hdr_settings": null, "id": "tracks_1_segments-4", "intensifies_audio": false, "is_tone_modify": false, "keyframe_refs": [], "last_nonzero_volume": 1.0, "material_id": "texts-4", "render_index": 14000, "reverse": false, "source_timerange": null, "speed": 1.0, "target_timerange": {"duration": 4029999, "start": 15050000}, "track_attribute": 0, "track_render_index": 0, "visible": true, "volume": 1.0}, {"cartoon": false, "clip": {"alpha": 1.0, "flip": {"horizontal": false, "vertical": false}, "rotation": 0.0, "scale": {"x": 0.7322295026571091, "y": 0.7322295026571091}, "transform": {"x": 0.0, "y": -0.8020681595802306}}, "enable_adjust": false, "enable_color_curves": true, "enable_color_wheels": true, "enable_lut": false, "extra_material_refs": ["material_animations-5"], "group_id": "", "hdr_settings": null, "id": "tracks_1_segments-5", "intensifies_audio": false, "is_tone_modify": false, "keyframe_refs": [], "last_nonzero_volume": 1.0, "material_id": "texts-5", "render_index": 14000, "reverse": false, "source_timerange": null, "speed": 1.0, "target_timerange": {"duration": 5900000, "start": 19080000}, "track_attribute": 0, "track_render_index": 0, "visible": true, "volume": 1.0}, {"cartoon": false, "clip": {"alpha": 1.0, "flip": {"horizontal": false, "vertical": false}, "rotation": 0.0, "scale": {"x": 0.7322295026571091, "y": 0.7322295026571091}, "transform": {"x": 0.0, "y": -0.8020681595802306}}, "enable_adjust": false, "enable_color_curves": true, "enable_color_wheels": true, "enable_lut": false, "extra_material_refs": ["material_animations-6"], "group_id": "", "hdr_settings": null, "id": "tracks_1_segments-6", "intensifies_audio": false, "is_tone_modify": false, "keyframe_refs": [], "last_nonzero_volume": 1.0, "material_id": "texts-6", "render_index": 14000, "reverse": false, "source_timerange": null, "speed": 1.0, "target_timerange": {"duration": 4359999, "start": 24980000}, "track_attribute": 0, "track_render_index": 0, "visible": true, "volume": 1.0}, {"cartoon": false, "clip": {"alpha": 1.0, "flip": {"horizontal": false, "vertical": false}, "rotation": 0.0, "scale": {"x": 0.7322295026571091, "y": 0.7322295026571091}, "transform": {"x": 0.0, "y": -0.8020681595802306}}, "enable_adjust": false, "enable_color_curves": true, "enable_color_wheels": true, "enable_lut": false, "extra_material_refs": ["material_animations-7"], "group_id": "", "hdr_settings": null, "id": "tracks_1_segments-7", "intensifies_audio": false, "is_tone_modify": false, "keyframe_refs": [], "last_nonzero_volume": 1.0, "material_id": "texts-7", "render_index": 14000, "reverse": false, "source_timerange": null, "speed": 1.0, "target_timerange": {"duration": 4860000, "start": 29340000}, "track_attribute": 0, "track_render_index": 0, "visible": true, "volume": 1.0}, {"cartoon": false, "clip": {"alpha": 1.0, "flip": {"horizontal": false, "vertical": false}, "rotation": 0.0, "scale": {"x": 0.7322295026571091, "y": 0.7322295026571091}, "transform": {"x": 0.0, "y": -0.8020681595802306}}, "enable_adjust": false, "enable_color_curves": true, "enable_color_wheels": true, "enable_lut": false, "extra_material_refs": ["material_animations-8"], "group_id": "", "hdr_settings": null, "id": "tracks_1_segments-8", "intensifies_audio": false, "is_tone_modify": false, "keyframe_refs": [], "last_nonzero_volume": 1.0, "material_id": "texts-8", "render_index": 14000, "reverse": false, "source_timerange": null, "speed": 1.0, "target_timerange": {"duration": 2699999, "start": 34200000}, "track_attribute": 0, "track_render_index": 0, "visible": true, "volume": 1.0}, {"cartoon": false, "clip": {"alpha": 1.0, "flip": {"horizontal": false, "vertical": false}, "rotation": 0.0, "scale": {"x": 0.7322295026571091, "y": 0.7322295026571091}, "transform": {"x": 0.0, "y": -0.8020681595802306}}, "enable_adjust": false, "enable_color_curves": true, "enable_color_wheels": true, "enable_lut": false, "extra_material_refs": ["material_animations-9"], "group_id": "", "hdr_settings": null, "id": "tracks_1_segments-9", "intensifies_audio": false, "is_tone_modify": false, "keyframe_refs": [], "last_nonzero_volume": 1.0, "material_id": "texts-9", "render_index": 14000, "reverse": false, "source_timerange": null, "speed": 1.0, "target_timerange": {"duration": 3780000, "start": 36900000}, "track_attribute": 0, "track_render_index": 0, "visible": true, "volume": 1.0}, {"cartoon": false, "clip": {"alpha": 1.0, "flip": {"horizontal": false, "vertical": false}, "rotation": 0.0, "scale": {"x": 0.7322295026571091, "y": 0.7322295026571091}, "transform": {"x": 0.0, "y": -0.8020681595802306}}, "enable_adjust": false, "enable_color_curves": true, "enable_color_wheels": true, "enable_lut": false, "extra_material_refs": ["material_animations-10"], "group_id": "", "hdr_settings": null, "id": "tracks_1_segments-10", "intensifies_audio": false, "is_tone_modify": false, "keyframe_refs": [], "last_nonzero_volume": 1.0, "material_id": "texts-10", "render_index": 14000, "reverse": false, "source_timerange": null, "speed": 1.0, "target_timerange": {"duration": 2450000, "start": 40680000}, "track_attribute": 0, "track_render_index": 0, "visible": true, "volume": 1.0}, {"cartoon": false, "clip": {"alpha": 1.0, "flip": {"horizontal": false, "vertical": false}, "rotation": 0.0, "scale": {"x": 0.7322295026571091, "y": 0.7322295026571091}, "transform": {"x": 0.0, "y": -0.8020681595802306}}, "enable_adjust": false, "enable_color_curves": true, "enable_color_wheels": true, "enable_lut": false, "extra_material_refs": ["material_animations-11"], "group_id": "", "hdr_settings": null, "id": "tracks_1_segments-11", "intensifies_audio": false, "is_tone_modify": false, "keyframe_refs": [], "last_nonzero_volume": 1.0, "material_id": "texts-11", "render_index": 14000, "reverse": false, "source_timerange": null, "speed": 1.0, "target_timerange": {"duration": 3669999, "start": 43130000}, "track_attribute": 0, "track_render_index": 0, "visible": true, "volume": 1.0}, {"cartoon": false, "clip": {"alpha": 1.0, "flip": {"horizontal": false, "vertical": false}, "rotation": 0.0, "scale": {"x": 0.7322295026571091, "y": 0.7322295026571091}, "transform": {"x": 0.0, "y": -0.8020681595802306}}, "enable_adjust": false, "enable_color_curves": true, "enable_color_wheels": true, "enable_lut": false, "extra_material_refs": ["material_animations-12"], "group_id": "", "hdr_settings": null, "id": "tracks_1_segments-12", "intensifies_audio": false, "is_tone_modify": false, "keyframe_refs": [], "last_nonzero_volume": 1.0, "material_id": "texts-12", "render_index": 14000, "reverse": false, "source_timerange": null, "speed": 1.0, "target_timerange": {"duration": 4179999, "start": 46800000}, "track_attribute": 0, "track_render_index": 0, "visible": true, "volume": 1.0}, {"cartoon": false, "clip": {"alpha": 1.0, "flip": {"horizontal": false, "vertical": false}, "rotation": 0.0, "scale": {"x": 0.7322295026571091, "y": 0.7322295026571091}, "transform": {"x": 0.0, "y": -0.8020681595802306}}, "enable_adjust": false, "enable_color_curves": true, "enable_color_wheels": true, "enable_lut": false, "extra_material_refs": ["material_animations-13"], "group_id": "", "hdr_settings": null, "id": "tracks_1_segments-13", "intensifies_audio": false, "is_tone_modify": false, "keyframe_refs": [], "last_nonzero_volume": 1.0, "material_id": "texts-13", "render_index": 14000, "reverse": false, "source_timerange": null, "speed": 1.0, "target_timerange": {"duration": 4610000, "start": 50980000}, "track_attribute": 0, "track_render_index": 0, "visible": true, "volume": 1.0}, {"cartoon": false, "clip": {"alpha": 1.0, "flip": {"horizontal": false, "vertical": false}, "rotation": 0.0, "scale": {"x": 0.7322295026571091, "y": 0.7322295026571091}, "transform": {"x": 0.0, "y": -0.8020681595802306}}, "enable_adjust": false, "enable_color_curves": true, "enable_color_wheels": true, "enable_lut": false, "extra_material_refs": ["material_animations-14"], "group_id": "", "hdr_settings": null, "id": "tracks_1_segments-14", "intensifies_audio": false, "is_tone_modify": false, "keyframe_refs": [], "last_nonzero_volume": 1.0, "material_id": "texts-14", "render_index": 14000, "reverse": false, "source_timerange": null, "speed": 1.0, "target_timerange": {"duration": 1579999, "start": 55590000}, "track_attribute": 0, "track_render_index": 0, "visible": true, "volume": 1.0}, {"cartoon": false, "clip": {"alpha": 1.0, "flip": {"horizontal": false, "vertical": false}, "rotation": 0.0, "scale": {"x": 0.7322295026571091, "y": 0.7322295026571091}, "transform": {"x": 0.0, "y": -0.8020681595802306}}, "enable_adjust": false, "enable_color_curves": true, "enable_color_wheels": true, "enable_lut": false, "extra_material_refs": ["material_animations-15"], "group_id": "", "hdr_settings": null, "id": "tracks_1_segments-15", "intensifies_audio": false, "is_tone_modify": false, "keyframe_refs": [], "last_nonzero_volume": 1.0, "material_id": "texts-15", "render_index": 14000, "reverse": false, "source_timerange": null, "speed": 1.0, "target_timerange": {"duration": 4859999, "start": 57170000}, "track_attribute": 0, "track_render_index": 0, "visible": true, "volume": 1.0}, {"cartoon": false, "clip": {"alpha": 1.0, "flip": {"horizontal": false, "vertical": false}, "rotation": 0.0, "scale": {"x": 0.7322295026571091, "y": 0.7322295026571091}, "transform": {"x": 0.0, "y": -0.8020681595802306}}, "enable_adjust": false, "enable_color_curves": true, "enable_color_wheels": true, "enable_lut": false, "extra_material_refs": ["material_animations-16"], "group_id": "", "hdr_settings": null, "id": "tracks_1_segments-16", "intensifies_audio": false, "is_tone_modify": false, "keyframe_refs": [], "last_nonzero_volume": 1.0, "material_id": "texts-16", "render_index": 14000, "reverse": false, "source_timerange": null, "speed": 1.0, "target_timerange": {"duration": 1729999, "start": 62030000}, "track_attribute": 0, "track_render_index": 0, "visible": true, "volume": 1.0}, {"cartoon": false, "clip": {"alpha": 1.0, "flip": {"horizontal": false, "vertical": false}, "rotation": 0.0, "scale": {"x": 0.7322295026571091, "y": 0.7322295026571091}, "transform": {"x": 0.0, "y": -0.8020681595802306}}, "enable_adjust": false, "enable_color_curves": true, "enable_color_wheels": true, "enable_lut": false, "extra_material_refs": ["material_animations-17"], "group_id": "", "hdr_settings": null, "id": "tracks_1_segments-17", "intensifies_audio": false, "is_tone_modify": false, "keyframe_refs": [], "last_nonzero_volume": 1.0, "material_id": "texts-17", "render_index": 14000, "reverse": false, "source_timerange": null, "speed": 1.0, "target_timerange": {"duration": 1979999, "start": 63760000}, "track_attribute": 0, "track_render_index": 0, "visible": true, "volume": 1.0}, {"cartoon": false, "clip": {"alpha": 1.0, "flip": {"horizontal": false, "vertical": false}, "rotation": 0.0, "scale": {"x": 0.7322295026571091, "y": 0.7322295026571091}, "transform": {"x": 0.0, "y": -0.8020681595802306}}, "enable_adjust": false, "enable_color_curves": true, "enable_color_wheels": true, "enable_lut": false, "extra_material_refs": ["material_animations-18"], "group_id": "", "hdr_settings": null, "id": "tracks_1_segments-18", "intensifies_audio": false, "is_tone_modify": false, "keyframe_refs": [], "last_nonzero_volume": 1.0, "material_id": "texts-18", "render_index": 14000, "reverse": false, "source_timerange": null, "speed": 1.0, "target_timerange": {"duration": 2200000, "start": 65739999}, "track_attribute": 0, "track_render_index": 0, "visible": true, "volume": 1.0}, {"cartoon": false, "clip": {"alpha": 1.0, "flip": {"horizontal": false, "vertical": false}, "rotation": 0.0, "scale": {"x": 0.7322295026571091, "y": 0.7322295026571091}, "transform": {"x": 0.0, "y": -0.8020681595802306}}, "enable_adjust": false, "enable_color_curves": true, "enable_color_wheels": true, "enable_lut": false, "extra_material_refs": ["material_animations-19"], "group_id": "", "hdr_settings": null, "id": "tracks_1_segments-19", "intensifies_audio": false, "is_tone_modify": false, "keyframe_refs": [], "last_nonzero_volume": 1.0, "material_id": "texts-19", "render_index": 14000, "reverse": false, "source_timerange": null, "speed": 1.0, "target_timerange": {"duration": 3740000, "start": 67940000}, "track_attribute": 0, "track_render_index": 0, "visible": true, "volume": 1.0}, {"cartoon": false, "clip": {"alpha": 1.0, "flip": {"horizontal": false, "vertical": false}, "rotation": 0.0, "scale": {"x": 0.7322295026571091, "y": 0.7322295026571091}, "transform": {"x": 0.0, "y": -0.8020681595802306}}, "enable_adjust": false, "enable_color_curves": true, "enable_color_wheels": true, "enable_lut": false, "extra_material_refs": ["material_animations-20"], "group_id": "", "hdr_settings": null, "id": "tracks_1_segments-20", "intensifies_audio": false, "is_tone_modify": false, "keyframe_refs": [], "last_nonzero_volume": 1.0, "material_id": "texts-20", "render_index": 14000, "reverse": false, "source_timerange": null, "speed": 1.0, "target_timerange": {"duration": 4429999, "start": 71680000}, "track_attribute": 0, "track_render_index": 0, "visible": true, "volume": 1.0}, {"cartoon": false, "clip": {"alpha": 1.0, "flip": {"horizontal": false, "vertical": false}, "rotation": 0.0, "scale": {"x": 0.7322295026571091, "y": 0.7322295026571091}, "transform": {"x": 0.0, "y": -0.8020681595802306}}, "enable_adjust": false, "enable_color_curves": true, "enable_color_wheels": true, "enable_lut": false, "extra_material_refs": ["material_animations-21"], "group_id": "", "hdr_settings": null, "id": "tracks_1_segments-21", "intensifies_audio": false, "is_tone_modify": false, "keyframe_refs": [], "last_nonzero_volume": 1.0, "material_id": "texts-21", "render_index": 14000, "reverse": false, "source_timerange": null, "speed": 1.0, "target_timerange": {"duration": 2159999, "start": 76110000}, "track_attribute": 0, "track_render_index": 0, "visible": true, "volume": 1.0}, {"cartoon": false, "clip": {"alpha": 1.0, "flip": {"horizontal": false, "vertical": false}, "rotation": 0.0, "scale": {"x": 0.7322295026571091, "y": 0.7322295026571091}, "transform": {"x": 0.0, "y": -0.8020681595802306}}, "enable_adjust": false, "enable_color_curves": true, "enable_color_wheels": true, "enable_lut": false, "extra_material_refs": ["material_animations-22"], "group_id": "", "hdr_settings": null, "id": "tracks_1_segments-22", "intensifies_audio": false, "is_tone_modify": false, "keyframe_refs": [], "last_nonzero_volume": 1.0, "material_id": "texts-22", "render_index": 14000, "reverse": false, "source_timerange": null, "speed": 1.0, "target_timerange": {"duration": 3820000, "start": 78270000}, "track_attribute": 0, "track_render_index": 0, "visible": true, "volume": 1.0}, {"cartoon": false, "clip": {"alpha": 1.0, "flip": {"horizontal": false, "vertical": false}, "rotation": 0.0, "scale": {"x": 0.7322295026571091, "y": 0.7322295026571091}, "transform": {"x": 0.0, "y": -0.8020681595802306}}, "enable_adjust": false, "enable_color_curves": true, "enable_color_wheels": true, "enable_lut": false, "extra_material_refs": ["material_animations-23"], "group_id": "", "hdr_settings": null, "id": "tracks_1_segments-23", "intensifies_audio": false, "is_tone_modify": false, "keyframe_refs": [], "last_nonzero_volume": 1.0, "material_id": "texts-23", "render_index": 14000, "reverse": false, "source_timerange": null, "speed": 1.0, "target_timerange": {"duration": 3129999, "start": 82090000}, "track_attribute": 0, "track_render_index": 0, "visible": true, "volume": 1.0}, {"cartoon": false, "clip": {"alpha": 1.0, "flip": {"horizontal": false, "vertical": false}, "rotation": 0.0, "scale": {"x": 0.7322295026571091, "y": 0.7322295026571091}, "transform": {"x": 0.0, "y": -0.8020681595802306}}, "enable_adjust": false, "enable_color_curves": true, "enable_color_wheels": true, "enable_lut": false, "extra_material_refs": ["material_animations-24"], "group_id": "", "hdr_settings": null, "id": "tracks_1_segments-24", "intensifies_audio": false, "is_tone_modify": false, "keyframe_refs": [], "last_nonzero_volume": 1.0, "material_id": "texts-24", "render_index": 14000, "reverse": false, "source_timerange": null, "speed": 1.0, "target_timerange": {"duration": 2519999, "start": 85220000}, "track_attribute": 0, "track_render_index": 0, "visible": true, "volume": 1.0}, {"cartoon": false, "clip": {"alpha": 1.0, "flip": {"horizontal": false, "vertical": false}, "rotation": 0.0, "scale": {"x": 0.7322295026571091, "y": 0.7322295026571091}, "transform": {"x": 0.0, "y": -0.8020681595802306}}, "enable_adjust": false, "enable_color_curves": true, "enable_color_wheels": true, "enable_lut": false, "extra_material_refs": ["material_animations-25"], "group_id": "", "hdr_settings": null, "id": "tracks_1_segments-25", "intensifies_audio": false, "is_tone_modify": false, "keyframe_refs": [], "last_nonzero_volume": 1.0, "material_id": "texts-25", "render_index": 14000, "reverse": false, "source_timerange": null, "speed": 1.0, "target_timerange": {"duration": 4210000, "start": 87740000}, "track_attribute": 0, "track_render_index": 0, "visible": true, "volume": 1.0}, {"cartoon": false, "clip": {"alpha": 1.0, "flip": {"horizontal": false, "vertical": false}, "rotation": 0.0, "scale": {"x": 0.7322295026571091, "y": 0.7322295026571091}, "transform": {"x": 0.0, "y": -0.8020681595802306}}, "enable_adjust": false, "enable_color_curves": true, "enable_color_wheels": true, "enable_lut": false, "extra_material_refs": ["material_animations-26"], "group_id": "", "hdr_settings": null, "id": "tracks_1_segments-26", "intensifies_audio": false, "is_tone_modify": false, "keyframe_refs": [], "last_nonzero_volume": 1.0, "material_id": "texts-26", "render_index": 14000, "reverse": false, "source_timerange": null, "speed": 1.0, "target_timerange": {"duration": 2700000, "start": 91950000}, "track_attribute": 0, "track_render_index": 0, "visible": true, "volume": 1.0}, {"cartoon": false, "clip": {"alpha": 1.0, "flip": {"horizontal": false, "vertical": false}, "rotation": 0.0, "scale": {"x": 0.7322295026571091, "y": 0.7322295026571091}, "transform": {"x": 0.0, "y": -0.8020681595802306}}, "enable_adjust": false, "enable_color_curves": true, "enable_color_wheels": true, "enable_lut": false, "extra_material_refs": ["material_animations-27"], "group_id": "", "hdr_settings": null, "id": "tracks_1_segments-27", "intensifies_audio": false, "is_tone_modify": false, "keyframe_refs": [], "last_nonzero_volume": 1.0, "material_id": "texts-27", "render_index": 14000, "reverse": false, "source_timerange": null, "speed": 1.0, "target_timerange": {"duration": 4030000, "start": 94650000}, "track_attribute": 0, "track_render_index": 0, "visible": true, "volume": 1.0}, {"cartoon": false, "clip": {"alpha": 1.0, "flip": {"horizontal": false, "vertical": false}, "rotation": 0.0, "scale": {"x": 0.7322295026571091, "y": 0.7322295026571091}, "transform": {"x": 0.0, "y": -0.8020681595802306}}, "enable_adjust": false, "enable_color_curves": true, "enable_color_wheels": true, "enable_lut": false, "extra_material_refs": ["material_animations-28"], "group_id": "", "hdr_settings": null, "id": "tracks_1_segments-28", "intensifies_audio": false, "is_tone_modify": false, "keyframe_refs": [], "last_nonzero_volume": 1.0, "material_id": "texts-28", "render_index": 14000, "reverse": false, "source_timerange": null, "speed": 1.0, "target_timerange": {"duration": 3169999, "start": 98680000}, "track_attribute": 0, "track_render_index": 0, "visible": true, "volume": 1.0}, {"cartoon": false, "clip": {"alpha": 1.0, "flip": {"horizontal": false, "vertical": false}, "rotation": 0.0, "scale": {"x": 0.7322295026571091, "y": 0.7322295026571091}, "transform": {"x": 0.0, "y": -0.8020681595802306}}, "enable_adjust": false, "enable_color_curves": true, "enable_color_wheels": true, "enable_lut": false, "extra_material_refs": ["material_animations-29"], "group_id": "", "hdr_settings": null, "id": "tracks_1_segments-29", "intensifies_audio": false, "is_tone_modify": false, "keyframe_refs": [], "last_nonzero_volume": 1.0, "material_id": "texts-29", "render_index": 14000, "reverse": false, "source_timerange": null, "speed": 1.0, "target_timerange": {"duration": 3530000, "start": 101850000}, "track_attribute": 0, "track_render_index": 0, "visible": true, "volume": 1.0}, {"cartoon": false, "clip": {"alpha": 1.0, "flip": {"horizontal": false, "vertical": false}, "rotation": 0.0, "scale": {"x": 0.7322295026571091, "y": 0.7322295026571091}, "transform": {"x": 0.0, "y": -0.8020681595802306}}, "enable_adjust": false, "enable_color_curves": true, "enable_color_wheels": true, "enable_lut": false, "extra_material_refs": ["material_animations-30"], "group_id": "", "hdr_settings": null, "id": "tracks_1_segments-30", "intensifies_audio": false, "is_tone_modify": false, "keyframe_refs": [], "last_nonzero_volume": 1.0, "material_id": "texts-30", "render_index": 14000, "reverse": false, "source_timerange": null, "speed": 1.0, "target_timerange": {"duration": 4500000, "start": 105380000}, "track_attribute": 0, "track_render_index": 0, "visible": true, "volume": 1.0}, {"cartoon": false, "clip": {"alpha": 1.0, "flip": {"horizontal": false, "vertical": false}, "rotation": 0.0, "scale": {"x": 0.7322295026571091, "y": 0.7322295026571091}, "transform": {"x": 0.0, "y": -0.8020681595802306}}, "enable_adjust": false, "enable_color_curves": true, "enable_color_wheels": true, "enable_lut": false, "extra_material_refs": ["material_animations-31"], "group_id": "", "hdr_settings": null, "id": "tracks_1_segments-31", "intensifies_audio": false, "is_tone_modify": false, "keyframe_refs": [], "last_nonzero_volume": 1.0, "material_id": "texts-31", "render_index": 14000, "reverse": false, "source_timerange": null, "speed": 1.0, "target_timerange": {"duration": 4180000, "start": 109880000}, "track_attribute": 0, "track_render_index": 0, "visible": true, "volume": 1.0}, {"cartoon": false, "clip": {"alpha": 1.0, "flip": {"horizontal": false, "vertical": false}, "rotation": 0.0, "scale": {"x": 0.7322295026571091, "y": 0.7322295026571091}, "transform": {"x": 0.0, "y": -0.8020681595802306}}, "enable_adjust": false, "enable_color_curves": true, "enable_color_wheels": true, "enable_lut": false, "extra_material_refs": ["material_animations-32"], "group_id": "", "hdr_settings": null, "id": "tracks_1_segments-32", "intensifies_audio": false, "is_tone_modify": false, "keyframe_refs": [], "last_nonzero_volume": 1.0, "material_id": "texts-32", "render_index": 14000, "reverse": false, "source_timerange": null, "speed": 1.0, "target_timerange": {"duration": 3459999, "start": 114060000}, "track_attribute": 0, "track_render_index": 0, "visible": true, "volume": 1.0}, {"cartoon": false, "clip": {"alpha": 1.0, "flip": {"horizontal": false, "vertical": false}, "rotation": 0.0, "scale": {"x": 0.7322295026571091, "y": 0.7322295026571091}, "transform": {"x": 0.0, "y": -0.8020681595802306}}, "enable_adjust": false, "enable_color_curves": true, "enable_color_wheels": true, "enable_lut": false, "extra_material_refs": ["material_animations-33"], "group_id": "", "hdr_settings": null, "id": "tracks_1_segments-33", "intensifies_audio": false, "is_tone_modify": false, "keyframe_refs": [], "last_nonzero_volume": 1.0, "material_id": "texts-33", "render_index": 14000, "reverse": false, "source_timerange": null, "speed": 1.0, "target_timerange": {"duration": 1980000, "start": 117520000}, "track_attribute": 0, "track_render_index": 0, "visible": true, "volume": 1.0}, {"cartoon": false, "clip": {"alpha": 1.0, "flip": {"horizontal": false, "vertical": false}, "rotation": 0.0, "scale": {"x": 0.7322295026571091, "y": 0.7322295026571091}, "transform": {"x": 0.0, "y": -0.8020681595802306}}, "enable_adjust": false, "enable_color_curves": true, "enable_color_wheels": true, "enable_lut": false, "extra_material_refs": ["material_animations-34"], "group_id": "", "hdr_settings": null, "id": "tracks_1_segments-34", "intensifies_audio": false, "is_tone_modify": false, "keyframe_refs": [], "last_nonzero_volume": 1.0, "material_id": "texts-34", "render_index": 14000, "reverse": false, "source_timerange": null, "speed": 1.0, "target_timerange": {"duration": 1980000, "start": 119500000}, "track_attribute": 0, "track_render_index": 0, "visible": true, "volume": 1.0}, {"cartoon": false, "clip": {"alpha": 1.0, "flip": {"horizontal": false, "vertical": false}, "rotation": 0.0, "scale": {"x": 0.7322295026571091, "y": 0.7322295026571091}, "transform": {"x": 0.0, "y": -0.8020681595802306}}, "enable_adjust": false, "enable_color_curves": true, "enable_color_wheels": true, "enable_lut": false, "extra_material_refs": ["material_animations-35"], "group_id": "", "hdr_settings": null, "id": "tracks_1_segments-35", "intensifies_audio": false, "is_tone_modify": false, "keyframe_refs": [], "last_nonzero_volume": 1.0, "material_id": "texts-35", "render_index": 14000, "reverse": false, "source_timerange": null, "speed": 1.0, "target_timerange": {"duration": 4679999, "start": 121480000}, "track_attribute": 0, "track_render_index": 0, "visible": true, "volume": 1.0}, {"cartoon": false, "clip": {"alpha": 1.0, "flip": {"horizontal": false, "vertical": false}, "rotation": 0.0, "scale": {"x": 0.7322295026571091, "y": 0.7322295026571091}, "transform": {"x": 0.0, "y": -0.8020681595802306}}, "enable_adjust": false, "enable_color_curves": true, "enable_color_wheels": true, "enable_lut": false, "extra_material_refs": ["material_animations-36"], "group_id": "", "hdr_settings": null, "id": "tracks_1_segments-36", "intensifies_audio": false, "is_tone_modify": false, "keyframe_refs": [], "last_nonzero_volume": 1.0, "material_id": "texts-36", "render_index": 14000, "reverse": false, "source_timerange": null, "speed": 1.0, "target_timerange": {"duration": 3599999, "start": 126160000}, "track_attribute": 0, "track_render_index": 0, "visible": true, "volume": 1.0}, {"cartoon": false, "clip": {"alpha": 1.0, "flip": {"horizontal": false, "vertical": false}, "rotation": 0.0, "scale": {"x": 0.7322295026571091, "y": 0.7322295026571091}, "transform": {"x": 0.0, "y": -0.8020681595802306}}, "enable_adjust": false, "enable_color_curves": true, "enable_color_wheels": true, "enable_lut": false, "extra_material_refs": ["material_animations-37"], "group_id": "", "hdr_settings": null, "id": "tracks_1_segments-37", "intensifies_audio": false, "is_tone_modify": false, "keyframe_refs": [], "last_nonzero_volume": 1.0, "material_id": "texts-37", "render_index": 14000, "reverse": false, "source_timerange": null, "speed": 1.0, "target_timerange": {"duration": 3640000, "start": 129759999}, "track_attribute": 0, "track_render_index": 0, "visible": true, "volume": 1.0}, {"cartoon": false, "clip": {"alpha": 1.0, "flip": {"horizontal": false, "vertical": false}, "rotation": 0.0, "scale": {"x": 0.7322295026571091, "y": 0.7322295026571091}, "transform": {"x": 0.0, "y": -0.8020681595802306}}, "enable_adjust": false, "enable_color_curves": true, "enable_color_wheels": true, "enable_lut": false, "extra_material_refs": ["material_animations-38"], "group_id": "", "hdr_settings": null, "id": "tracks_1_segments-38", "intensifies_audio": false, "is_tone_modify": false, "keyframe_refs": [], "last_nonzero_volume": 1.0, "material_id": "texts-38", "render_index": 14000, "reverse": false, "source_timerange": null, "speed": 1.0, "target_timerange": {"duration": 3169999, "start": 133400000}, "track_attribute": 0, "track_render_index": 0, "visible": true, "volume": 1.0}, {"cartoon": false, "clip": {"alpha": 1.0, "flip": {"horizontal": false, "vertical": false}, "rotation": 0.0, "scale": {"x": 0.7322295026571091, "y": 0.7322295026571091}, "transform": {"x": 0.0, "y": -0.8020681595802306}}, "enable_adjust": false, "enable_color_curves": true, "enable_color_wheels": true, "enable_lut": false, "extra_material_refs": ["material_animations-39"], "group_id": "", "hdr_settings": null, "id": "tracks_1_segments-39", "intensifies_audio": false, "is_tone_modify": false, "keyframe_refs": [], "last_nonzero_volume": 1.0, "material_id": "texts-39", "render_index": 14000, "reverse": false, "source_timerange": null, "speed": 1.0, "target_timerange": {"duration": 3420000, "start": 136570000}, "track_attribute": 0, "track_render_index": 0, "visible": true, "volume": 1.0}, {"cartoon": false, "clip": {"alpha": 1.0, "flip": {"horizontal": false, "vertical": false}, "rotation": 0.0, "scale": {"x": 0.7322295026571091, "y": 0.7322295026571091}, "transform": {"x": 0.0, "y": -0.8020681595802306}}, "enable_adjust": false, "enable_color_curves": true, "enable_color_wheels": true, "enable_lut": false, "extra_material_refs": ["material_animations-40"], "group_id": "", "hdr_settings": null, "id": "tracks_1_segments-40", "intensifies_audio": false, "is_tone_modify": false, "keyframe_refs": [], "last_nonzero_volume": 1.0, "material_id": "texts-40", "render_index": 14000, "reverse": false, "source_timerange": null, "speed": 1.0, "target_timerange": {"duration": 3489999, "start": 139990000}, "track_attribute": 0, "track_render_index": 0, "visible": true, "volume": 1.0}, {"cartoon": false, "clip": {"alpha": 1.0, "flip": {"horizontal": false, "vertical": false}, "rotation": 0.0, "scale": {"x": 0.7322295026571091, "y": 0.7322295026571091}, "transform": {"x": 0.0, "y": -0.8020681595802306}}, "enable_adjust": false, "enable_color_curves": true, "enable_color_wheels": true, "enable_lut": false, "extra_material_refs": ["material_animations-41"], "group_id": "", "hdr_settings": null, "id": "tracks_1_segments-41", "intensifies_audio": false, "is_tone_modify": false, "keyframe_refs": [], "last_nonzero_volume": 1.0, "material_id": "texts-41", "render_index": 14000, "reverse": false, "source_timerange": null, "speed": 1.0, "target_timerange": {"duration": 2920000, "start": 143480000}, "track_attribute": 0, "track_render_index": 0, "visible": true, "volume": 1.0}, {"cartoon": false, "clip": {"alpha": 1.0, "flip": {"horizontal": false, "vertical": false}, "rotation": 0.0, "scale": {"x": 0.7322295026571091, "y": 0.7322295026571091}, "transform": {"x": 0.0, "y": -0.8020681595802306}}, "enable_adjust": false, "enable_color_curves": true, "enable_color_wheels": true, "enable_lut": false, "extra_material_refs": ["material_animations-42"], "group_id": "", "hdr_settings": null, "id": "tracks_1_segments-42", "intensifies_audio": false, "is_tone_modify": false, "keyframe_refs": [], "last_nonzero_volume": 1.0, "material_id": "texts-42", "render_index": 14000, "reverse": false, "source_timerange": null, "speed": 1.0, "target_timerange": {"duration": 3919999, "start": 146400000}, "track_attribute": 0, "track_render_index": 0, "visible": true, "volume": 1.0}, {"cartoon": false, "clip": {"alpha": 1.0, "flip": {"horizontal": false, "vertical": false}, "rotation": 0.0, "scale": {"x": 0.7322295026571091, "y": 0.7322295026571091}, "transform": {"x": 0.0, "y": -0.8020681595802306}}, "enable_adjust": false, "enable_color_curves": true, "enable_color_wheels": true, "enable_lut": false, "extra_material_refs": ["material_animations-43"], "group_id": "", "hdr_settings": null, "id": "tracks_1_segments-43", "intensifies_audio": false, "is_tone_modify": false, "keyframe_refs": [], "last_nonzero_volume": 1.0, "material_id": "texts-43", "render_index": 14000, "reverse": false, "source_timerange": null, "speed": 1.0, "target_timerange": {"duration": 2120000, "start": 150320000}, "track_attribute": 0, "track_render_index": 0, "visible": true, "volume": 1.0}, {"cartoon": false, "clip": {"alpha": 1.0, "flip": {"horizontal": false, "vertical": false}, "rotation": 0.0, "scale": {"x": 0.7322295026571091, "y": 0.7322295026571091}, "transform": {"x": 0.0, "y": -0.8020681595802306}}, "enable_adjust": false, "enable_color_curves": true, "enable_color_wheels": true, "enable_lut": false, "extra_material_refs": ["material_animations-44"], "group_id": "", "hdr_settings": null, "id": "tracks_1_segments-44", "intensifies_audio": false, "is_tone_modify": false, "keyframe_refs": [], "last_nonzero_volume": 1.0, "material_id": "texts-44", "render_index": 14000, "reverse": false, "source_timerange": null, "speed": 1.0, "target_timerange": {"duration": 4750000, "start": 152440000}, "track_attribute": 0, "track_render_index": 0, "visible": true, "volume": 1.0}, {"cartoon": false, "clip": {"alpha": 1.0, "flip": {"horizontal": false, "vertical": false}, "rotation": 0.0, "scale": {"x": 0.7322295026571091, "y": 0.7322295026571091}, "transform": {"x": 0.0, "y": -0.8020681595802306}}, "enable_adjust": false, "enable_color_curves": true, "enable_color_wheels": true, "enable_lut": false, "extra_material_refs": ["material_animations-45"], "group_id": "", "hdr_settings": null, "id": "tracks_1_segments-45", "intensifies_audio": false, "is_tone_modify": false, "keyframe_refs": [], "last_nonzero_volume": 1.0, "material_id": "texts-45", "render_index": 14000, "reverse": false, "source_timerange": null, "speed": 1.0, "target_timerange": {"duration": 4569999, "start": 157190000}, "track_attribute": 0, "track_render_index": 0, "visible": true, "volume": 1.0}, {"cartoon": false, "clip": {"alpha": 1.0, "flip": {"horizontal": false, "vertical": false}, "rotation": 0.0, "scale": {"x": 0.7322295026571091, "y": 0.7322295026571091}, "transform": {"x": 0.0, "y": -0.8020681595802306}}, "enable_adjust": false, "enable_color_curves": true, "enable_color_wheels": true, "enable_lut": false, "extra_material_refs": ["material_animations-46"], "group_id": "", "hdr_settings": null, "id": "tracks_1_segments-46", "intensifies_audio": false, "is_tone_modify": false, "keyframe_refs": [], "last_nonzero_volume": 1.0, "material_id": "texts-46", "render_index": 14000, "reverse": false, "source_timerange": null, "speed": 1.0, "target_timerange": {"duration": 2700000, "start": 161760000}, "track_attribute": 0, "track_render_index": 0, "visible": true, "volume": 1.0}, {"cartoon": false, "clip": {"alpha": 1.0, "flip": {"horizontal": false, "vertical": false}, "rotation": 0.0, "scale": {"x": 0.7322295026571091, "y": 0.7322295026571091}, "transform": {"x": 0.0, "y": -0.8020681595802306}}, "enable_adjust": false, "enable_color_curves": true, "enable_color_wheels": true, "enable_lut": false, "extra_material_refs": ["material_animations-47"], "group_id": "", "hdr_settings": null, "id": "tracks_1_segments-47", "intensifies_audio": false, "is_tone_modify": false, "keyframe_refs": [], "last_nonzero_volume": 1.0, "material_id": "texts-47", "render_index": 14000, "reverse": false, "source_timerange": null, "speed": 1.0, "target_timerange": {"duration": 4859999, "start": 164460000}, "track_attribute": 0, "track_render_index": 0, "visible": true, "volume": 1.0}, {"cartoon": false, "clip": {"alpha": 1.0, "flip": {"horizontal": false, "vertical": false}, "rotation": 0.0, "scale": {"x": 0.7322295026571091, "y": 0.7322295026571091}, "transform": {"x": 0.0, "y": -0.8020681595802306}}, "enable_adjust": false, "enable_color_curves": true, "enable_color_wheels": true, "enable_lut": false, "extra_material_refs": ["material_animations-48"], "group_id": "", "hdr_settings": null, "id": "tracks_1_segments-48", "intensifies_audio": false, "is_tone_modify": false, "keyframe_refs": [], "last_nonzero_volume": 1.0, "material_id": "texts-48", "render_index": 14000, "reverse": false, "source_timerange": null, "speed": 1.0, "target_timerange": {"duration": 4099999, "start": 169320000}, "track_attribute": 0, "track_render_index": 0, "visible": true, "volume": 1.0}, {"cartoon": false, "clip": {"alpha": 1.0, "flip": {"horizontal": false, "vertical": false}, "rotation": 0.0, "scale": {"x": 0.7322295026571091, "y": 0.7322295026571091}, "transform": {"x": 0.0, "y": -0.8020681595802306}}, "enable_adjust": false, "enable_color_curves": true, "enable_color_wheels": true, "enable_lut": false, "extra_material_refs": ["material_animations-49"], "group_id": "", "hdr_settings": null, "id": "tracks_1_segments-49", "intensifies_audio": false, "is_tone_modify": false, "keyframe_refs": [], "last_nonzero_volume": 1.0, "material_id": "texts-49", "render_index": 14000, "reverse": false, "source_timerange": null, "speed": 1.0, "target_timerange": {"duration": 2090000, "start": 173420000}, "track_attribute": 0, "track_render_index": 0, "visible": true, "volume": 1.0}], "type": "text"}], "update_time": 0, "version": 360000}